<?xml version="1.0" encoding="UTF-8"?>
<svg id="Capa_2" data-name="Capa 2" xmlns="http://www.w3.org/2000/svg" viewBox="0 0 193.13 202.99">
  <defs>
    <style>
      .cls-1 {
        fill: #93a164;
      }
    </style>
  </defs>
  <g id="Site_mock_up" data-name="Site mock up">
    <g id="xgXken.tif">
      <g>
        <g>
          <path class="cls-1" d="M144.85,120.08c0-6.33,0-12.3,.03-18.27,0-.12,.42-.23,1.07-.57,.12,1.03,.29,1.85,.3,2.66,.03,4.82,.06,9.64-.01,14.46-.02,1.5,.24,2.49,1.85,3.11,3.86,1.47,6.6,4.18,7.76,8.21,2.08,7.23,4.17,14.46,6,21.76,.41,1.64,1.15,2.41,2.45,3.18,5.84,3.49,11.68,6.99,17.41,10.67,1.81,1.16,3.34,2.8,4.86,4.35,.67,.68,.99,1.7,1.11,2.88-7.36-7.75-16.7-12.24-25.93-17.37-2.98,7-5.9,13.73-8.68,20.52-.32,.78-.15,2.06,.3,2.81,2.93,4.9,5.8,9.86,9.14,14.49,.98,1.35,3.37,2.23,5.17,2.34,5.16,.31,10.36,.17,15.54,.09,3.78-.06,6-2.01,6.22-5.83,1.08-19.05,.84-38.04-4.62-56.51-3.52-11.89-9.86-22.42-17.43-32.18-2.78-3.59-5.82-6.97-8.78-10.42-3.77-4.39-8.32-7.51-14.05-8.82-4.48-1.02-8.92-2.24-13.52-3.4-.59,6.42-1.13,12.46-1.72,18.5-.15,1.53-.46,3.05-.74,4.57-.42,2.28-1.46,3.01-3.78,1.85-4.63-2.31-9.37-4.4-14.07-6.58-.8-.37-1.61-.71-2.63-1.17-1.66,3.72-3.23,7.25-4.98,11.17-1.56-1.24-2.78-2.24-4.03-3.21-.72-.56-1.41-1.31-2.23-1.53-1.76-.47-4.4-1.54-5.23-.78-1.72,1.57-3.53,4.22-3.46,6.36,.23,7.16,1.28,14.29,2.03,21.43,.03,.32,.25,.63,.49,1.22,1.01-1.09,1.78-2.12,2.75-2.89,.52-.41,1.38-.4,2.08-.58,.07,.79,.15,1.58,.19,2.37,0,.15-.14,.34-.26,.47-4.5,4.73-4.68,10.34-3.72,16.38,.75,4.71,.93,9.51,1.62,14.27,3.94-9.39,8.76-18.5,7.19-29.16-.41-2.8,.73-3.72,3.49-3.5,2.8,.22,5.63,.1,8.45,.03,1.65-.04,2.35,.62,2.16,2.26-1.04,8.85,1.54,16.93,4.75,25.06,3.96,10.04,7.2,20.37,10.66,30.61,.57,1.69,.94,3.55,.93,5.33-.04,6.59-2.81,10.01-9.38,10.34-8.87,.46-17.79,.49-26.67,.2-9.13-.3-12.01-5.57-10.1-14.66,1.26-6,3.86-11.72,5.61-17.64,.72-2.45,1.21-5.13,1.05-7.66-.43-7.15-1.25-14.27-1.98-22.13-2.29,3.52-4.22,6.47-6.13,9.42,1.57,2.25,3.76,4.25,1.45,7.01,2.73,4.56,2.4,6.02-1.71,8,.44,3.69-1.33,5.64-5.26,5.03-4.09-.64-8.08-1.91-11.89-2.85-.28,1.23-.16,3.09-.98,3.72-1.34,1.02-3.29,1.65-4.98,1.66-1.98,0-3.2,.51-4.59,1.99-4.44,4.75-9.1,9.3-13.78,13.82-1.24,1.19-1.85,2.27-1.38,4.02,.47,1.75,.68,3.57,.9,5.37,.09,.76-.1,1.55-.17,2.33-.32,.03-.64,.05-.95,.08-.52-2.67-1.05-5.35-1.69-8.63-1.89,1.71-3.65,3.07-5.12,4.68-2.79,3.05-6.14,4.26-10.24,4-3.35-.21-6.73-.03-10.09-.05-5.34-.02-7.64-1.99-8.96-7.21-2.7-10.64-2.87-21.38-1.78-32.23,1.16-11.58,1.91-23.31,6.09-34.24,3.92-10.24,8.67-20.17,13.36-30.09,3.09-6.55,8.83-9.92,15.76-11.39,.97-.21,1.93-.46,3.16-.75-.15-2.16-.33-4.3-.45-6.45-.92-16.17-.48-32.2,5.31-47.6,3.49-9.26,8.44-17.55,17.16-22.9,5.69-3.49,12.12-5.47,18.49-3.93,4.06,.98,7.69,.32,11.53,.37,12.41,.18,21.76,6.13,28.98,15.87,5.49,7.4,6.91,16.17,7.68,24.95,.91,10.4,1.12,20.86,1.64,31.3,.03,.54,.05,1.08,.09,1.88,2.53,.6,5.04,1.31,7.6,1.78,9.43,1.72,17.3,5.83,23.63,13.35,12.16,14.44,22.32,29.88,26.25,48.64,3.38,16.12,3.68,32.49,2.74,48.87-.32,5.59-3,7.99-8.55,8.03-4.91,.04-9.82-.02-14.73,.02-3.15,.03-5.8-1.05-7.39-3.79-4.32-7.44-8.51-14.97-12.74-22.47-.35-.62-.59-1.3-.87-1.95-.24,.01-.49,.03-.73,.04v28.02c-.37,.03-.74,.06-1.11,.08-.16-.93-.45-1.87-.46-2.8-.03-9.09,.06-18.19-.1-27.28-.03-1.54-.71-3.53-1.81-4.5-2.97-2.63-6.36-4.79-9.53-7.21-2.3-1.76-4.81-3.38-6.66-5.55-1.38-1.62-2.58-4.02-2.56-6.06,.02-2.52-1.08-3.89-2.49-5.58-1.68-1.99-2.99-4.31-4.37-6.54-1.13-1.83-1.19-3.57,.94-4.76-2.95-4.98-2.88-5.74,.41-7.05-.4-1.61-1.5-3.5-.98-4.69,.46-1.06,2.7-1.34,4.55-2.13,1.11-4.38,3.6-5.28,7.93-2.1,1.6,1.17,3.32,2.44,4.36,4.06,2.43,3.81,6.43,3.92,10.56,5.25ZM40.63,84.92c-8.14,1.43-13.17,3.85-15.94,8.47-7.47,12.44-13.68,25.51-16.95,39.68-1.89,8.2-2.72,16.66-3.78,25.04-1.45,11.45-1.31,22.88,1.94,34.06,.46,1.59,1.88,4.06,2.96,4.12,6.62,.35,13.26,.13,19.9,.09,4.18-3.7,8.36-7.41,12.59-11.15-5.52-4.68-10.09-9.4-9.47-17.34-4.1,1.95-7.8,3.85-11.61,5.5-3.73,1.62-7.17,4.05-11.39,4.51,.57-.96,1.34-1.48,2.16-1.88,7.03-3.4,14.06-6.82,21.12-10.15,1.74-.82,2.32-1.85,2.01-3.84-2.34-15.45-4.58-30.92-6.81-46.39-.23-1.59-.21-3.22-.3-4.83,.41-.03,.81-.07,1.22-.1,2.47,17.1,4.93,34.21,7.52,52.15,1.11-1.5,1.82-2.21,2.22-3.06,2.46-5.16,4.78-10.38,7.28-15.52,2.65-5.47,6.99-8.29,12.31-7.64,2.84,.35,5.72,1.19,8.35,2.33,4.04,1.77,7.89,3.99,11.77,6,2.67-3.08,5.2-6.31,8.06-9.2,2.29-2.31,3.18-4.62,2.68-7.96-1.01-6.74-.85-13.7-2.38-20.29-1.78-7.66-5.2-8.88-10.53-4.52-1.45,1.18-2.82,2.45-4.46,3.89-2.09-3.96-4.02-7.62-6.07-11.51-5.01,2.31-9.87,4.51-14.71,6.77-5.22,2.44-5.44,2.42-6.79-3.2-1.09-4.58-1.92-9.23-2.91-14.05Zm5.6,17.27c5.8-2.71,11.16-5.15,16.43-7.78,.62-.31,1.03-1.68,.99-2.52-.19-3.7-.55-7.39-.94-11.07-.18-1.73-.22-3.59-.91-5.12-3.98-8.85-4.79-17.97-3.03-27.44,.66-3.54,2.43-6.09,5.8-7.26,2.98-1.04,6.04-1.92,9.13-2.57,7.68-1.63,13.31-5.96,17.24-12.63,.52-.88,1.02-2.21,.73-3.06-1.8-5.3-3.66-10.59-5.86-15.72-.95-2.22-3.14-3.42-5.74-3.57-6.68-.39-12.82,1.18-18.26,5.08-8.69,6.24-13.37,15.24-16.25,25.16-5.92,20.37-4.91,40.96-1.21,61.55,.4,2.2,1.17,4.34,1.89,6.96Zm80.53-.01c.34-1.93,.7-3.32,.83-4.73,.51-5.6,1.19-11.21,1.36-16.83,.48-16.36,.31-32.71-3.33-48.8-2.87-12.72-10.78-21.18-22.68-25.91-5.09-2.02-10.49-2.85-15.39-.97,1.83,5.27,3.53,10.41,5.42,15.47,.35,.92,1.32,1.91,2.24,2.27,4.58,1.79,8.47,4.51,11.73,8.17,10.84,12.16,12.72,32.71,4.41,47.23-.6,1.05-.98,2.32-1.13,3.52-.44,3.49-.77,6.99-1,10.5-.05,.71,.31,1.88,.83,2.14,5.36,2.65,10.79,5.15,16.72,7.94Zm19.53,26.39c-.1,.39-.21,.78-.31,1.17-4.77-.47-9.31-2.04-13.79-3.8-4.6-1.81-9.06-4.09-14.62-4.35,1.97,6.8,8.69,7.75,12.79,11.56,4.53,4.21,10.25,4.88,16.37,5.73-.73,.84-.92,1.22-1.07,1.2-4.3-.36-8.66-.14-12.51-2.89-3.91-2.79-8.09-5.2-12.19-7.71-.76-.47-1.73-.6-3.16-1.08,1.63,5.15,4.18,8.98,8.1,11.36,4.92,3,10.27,5.29,15.44,7.89,.82,.41,1.63,.83,2.44,1.25-.71,.72-1.2,.92-1.55,.77-5.58-2.3-11.14-4.64-16.76-6.99-.27,2.59,.9,5.04,3.08,6.79,3.25,2.6,6.69,4.99,10.18,7.27,4.31,2.82,7.63,6.39,9.61,11.19,.88,2.13,1.88,4.21,3.08,6.87,.74-1.59,1.22-2.55,1.64-3.53,2.18-5.09,4.42-10.16,6.45-15.31,.57-1.44,.98-3.25,.63-4.69-1.63-6.69-3.49-13.33-5.4-19.96-1.36-4.74-4.55-7.7-9.32-9.06-7.86-2.23-15.69-4.56-23.55-6.8-.91-.26-1.92-.2-2.88-.28-.21,.26-.41,.52-.62,.78,1.3,1.48,2.32,3.62,3.96,4.32,5.58,2.39,11.35,4.31,17.09,6.32,2.24,.78,4.56,1.32,6.85,1.97Zm-84.67,27.4c.17-.37,.34-.74,.51-1.11,.98,.41,1.99,.74,2.92,1.24,5.22,2.82,10.49,5.5,16.57,5.72,1.04,.04,2.64-.41,3-1.12,.38-.74-.2-2.26-.8-3.12-.57-.82-1.66-1.38-2.63-1.79-5.17-2.17-10.4-4.21-15.56-6.41-1.24-.53-2.3-1.5-3.44-2.27,.14-.27,.28-.55,.41-.82,.73,.24,1.49,.41,2.18,.72,5.14,2.26,10.24,4.61,15.43,6.77,1.12,.47,2.51,.27,3.77,.38,.17-.29,.33-.58,.5-.88-.91-1.13-1.6-2.61-2.76-3.32-5.5-3.35-10.9-6.98-16.75-9.59-10.58-4.71-15.61-2.25-19.8,8.57-2.46,6.36-5.02,12.67-10.31,17.41-.75,.67-1.09,2.11-1.13,3.21-.25,6.78,4.3,10.52,9.28,14.58,1.96-2.13,3.84-3.98,5.47-6.03,.67-.83,.8-2.09,1.31-3.52,1.36-.68,3.34-1.67,5.32-2.65q-5.63-2.52-6.14-3.85c1.64,.33,3.1,.77,4.59,.88,2.86,.23,5.77,.57,8.61,.3,2.39-.23,2.74-1.67,.89-3.25-1.41-1.21-3.21-1.95-4.84-2.9-.76-.44-1.53-.87-2.3-1.3l.34-.85c1.22,.33,2.46,.64,3.67,1,5.38,1.62,10.74,3.34,16.16,4.84,1.33,.37,2.92,.31,4.28,0,1.53-.35,1.79-1.48,.47-2.55-.54-.43-1.27-.66-1.94-.9-4.16-1.53-8.36-2.94-12.47-4.59-1.7-.68-3.22-1.84-4.81-2.79Zm65.18,24.56c-.02-.12-.04-.47-.15-.78-3.29-9.13-6.51-18.28-9.91-27.37-2.19-5.86-4.7-11.6-3.81-18.12,.22-1.64,.03-3.35,.03-5h-10.77c0,3.23,.14,6.3-.05,9.35-.14,2.31-.38,4.72-1.15,6.88-3.31,9.31-6.85,18.55-10.26,27.82-.86,2.34-1.56,4.73-2.37,7.21h38.43Zm-11.91-130c-18.81,2.81-36.68,4.28-54.78-.66,0,5.16-.09,9.84,.1,14.51,.03,.71,1.29,1.69,2.17,1.98,3.36,1.1,6.78,2.01,10.2,2.92,4.76,1.27,8.87,1.07,11.6-4.07,1.36-2.57,3.97-2.35,5.82-.05,.45,.56,.88,1.17,1.21,1.81,1.29,2.5,3.29,3.55,6.06,3.03,5.08-.94,10.17-1.86,15.23-2.93,.64-.14,1.51-1.13,1.56-1.78,.37-4.66,.56-9.34,.84-14.74Zm-1.96,18.32c-.95,.18-1.8,.36-2.66,.5-4.65,.77-9.28,1.83-13.96,2.19-2.26,.17-4.08,.51-6.13,1.6-1.66,.88-4.68,1.18-6.04,.23-2.52-1.76-4.93-2.07-7.71-1.8-.61,.06-1.27-.09-1.88-.23-4.47-1.03-8.94-2.08-13.36-3.11,1.7,11.17,12.6,23.56,25.16,23.87,14.53,.36,24.7-12.61,26.59-23.24Zm-19.13-44.86c-4.69,9.38-11.75,14.84-21.77,16.43-2.22,.35-4.46,1-6.51,1.9-1.59,.7-2.92,2.02-4.75,3.35,17.98,5.4,35.23,3.48,52.64,.89-3.28-10.57-8.81-18.75-19.61-22.57Zm-6.4,158.99c-.5,2.12-1.15,4.02-1.37,5.98-.77,6.73,1.79,10.25,8.47,10.52,8.86,.36,17.75,.38,26.6-.04,6.29-.3,8.71-3.65,8.17-9.99-.17-1.94-.83-3.85-1.3-5.92-13.57,1.96-26.89,3.44-40.57-.55Zm-7.79-84.38c-4.86-5.6-9.91-11.42-15.02-17.31-1.49,8.79,3.09,15.58,6.88,22.52,2.94-1.89,5.65-3.62,8.13-5.21Zm23.09,4.98c2.56-6.6,6.67-12.75,5.67-20.81-5.51,5.36-10.69,10.4-15.62,15.21,3.62,2.04,6.65,3.74,9.95,5.6Zm-15.52,.12c2.55-3.55,5.26-7.31,8.11-11.28-6.88,2.23-13.42,1.54-19.83-1.14,3.91,4.14,7.82,8.28,11.72,12.42Zm5.92,78.54c9.26,2.2,18.5,1.83,27.76,0h-27.76Zm-1.71-112.05c-.31-.45-.51-.74-.71-1.03q-3.47-5.08-7.18-.35c-.32,.41-.6,.86-.87,1.26,2.93,3.22,5.6,3.26,8.76,.12Zm21.82-21.35c-15.25,1.55-30.5,3.62-45.82,.51,15.32,3.75,30.57,1.72,45.82-.51Zm10.93,64.42c2.53-1.74,3.23-1.51,5.21,.98,.89,1.12,2.24,1.87,3.39,2.79,.3-.38,.6-.76,.9-1.14-2.25-1.67-4.36-3.58-6.79-4.93-1.84-1.02-2.74-.09-2.71,2.29Zm-42.52,34.43c3.12-3.52,3.19-3.9,.98-5.58-.52,.59-1.07,1.16-1.57,1.78-.55,.69-1.05,1.43-1.66,2.27,.84,.57,1.56,1.06,2.25,1.53Zm9.65-14.94q-5.97,5.47-4.23,6.9c1.27-1.99,2.54-3.97,3.79-5.96,.18-.29,.3-.62,.44-.94Z"/>
          <path class="cls-1" d="M106.05,202.99c-3.67,0-7.41-.06-11.18-.18-4.59-.15-7.94-1.52-9.94-4.07-2.19-2.79-2.72-6.96-1.58-12.4,.79-3.75,2.09-7.4,3.35-10.94,.79-2.23,1.62-4.54,2.29-6.82,.79-2.66,1.12-5.06,.99-7.14-.3-5.06-.8-10.1-1.33-15.45-.08-.78-.15-1.57-.23-2.36l-3.23,4.96s.03,.05,.05,.07c1.26,1.69,3.11,4.16,1.36,7.07,1.21,2.15,1.81,3.87,1.32,5.5-.45,1.51-1.76,2.5-3.25,3.3,.04,2.3-.79,3.62-1.55,4.35-1.26,1.22-3.12,1.64-5.51,1.27-2.94-.46-5.8-1.23-8.57-1.97-.62-.17-1.23-.33-1.84-.49-.14,1.13-.37,2.32-1.33,3.04-1.59,1.21-3.84,1.96-5.88,1.96-1.6,0-2.42,.36-3.5,1.51-4.55,4.86-9.33,9.52-13.84,13.88-1.03,1-1.24,1.55-.97,2.55,.49,1.85,.72,3.74,.94,5.57,.09,.72,0,1.39-.08,1.98-.03,.22-.06,.44-.08,.66-.06,.73-.64,1.31-1.38,1.37l-.95,.08c-.74,.07-1.44-.46-1.59-1.21l-1.19-6.07c-1.11,.96-2.15,1.87-3.04,2.85-3.03,3.32-6.78,4.78-11.45,4.49-2.2-.14-4.47-.11-6.68-.07-1.11,.02-2.23,.04-3.32,.03-5.97-.02-8.89-2.36-10.41-8.35C-.03,182.14-.61,171.74,.64,159.22c.12-1.25,.24-2.49,.36-3.74,.99-10.3,2.01-20.94,5.82-30.89,3.73-9.75,8.27-19.34,12.66-28.62l.75-1.58c3.01-6.38,8.67-10.49,16.81-12.22,.61-.13,1.21-.28,1.88-.44l-.06-.79c-.11-1.48-.22-2.95-.3-4.42-.83-14.54-.83-31.65,5.41-48.21,4.26-11.3,9.91-18.82,17.78-23.65C68.51,.52,75.3-.9,81.37,.56c2.62,.63,5.07,.53,7.66,.42,1.15-.05,2.34-.1,3.55-.08,12.04,.17,22.19,5.71,30.17,16.47,5.38,7.26,7.08,15.53,7.97,25.71,.64,7.28,.94,14.7,1.23,21.87,.13,3.16,.26,6.32,.41,9.48l.04,.76c.44,.11,.87,.22,1.31,.33,1.68,.42,3.41,.86,5.12,1.17,10.21,1.87,18.22,6.4,24.5,13.86,10.06,11.95,22.18,28.35,26.57,49.3,3,14.27,3.88,29.92,2.77,49.27-.36,6.31-3.64,9.4-10.03,9.45-2.43,.02-4.85,.01-7.28,0-2.48,0-4.97-.01-7.45,.01-.04,0-.08,0-.13,0-3.88,0-6.85-1.57-8.57-4.53-3.35-5.77-6.67-11.68-9.88-17.39l-1.66-2.95v23.24c0,.78-.6,1.44-1.39,1.5l-1.11,.08c-.76,.05-1.46-.48-1.59-1.24-.05-.27-.11-.55-.17-.82-.14-.67-.31-1.43-.31-2.23-.01-3.06,0-6.11,0-9.17,0-5.93,.01-12.07-.1-18.09-.02-1.26-.61-2.79-1.3-3.4-1.86-1.65-3.96-3.15-5.98-4.6-1.16-.83-2.33-1.67-3.46-2.54-.5-.38-1-.75-1.51-1.13-1.88-1.39-3.82-2.82-5.38-4.64-1.43-1.67-2.95-4.41-2.92-7.05,.02-1.94-.76-2.96-2.14-4.6-1.46-1.73-2.64-3.67-3.78-5.54l-.59-.97c-.29,7.94,2.32,15.36,4.85,21.78,3.05,7.75,5.72,15.77,8.3,23.53,.79,2.38,1.58,4.76,2.39,7.14,.67,1.98,1.02,3.99,1.01,5.81-.04,7.59-3.58,11.46-10.8,11.83-5.04,.26-10.27,.39-15.61,.39Zm-17.57-18.16c-.05,.17-.09,.35-.14,.52-.35,1.32-.68,2.56-.82,3.77-.36,3.13,.05,5.34,1.26,6.74,1.12,1.31,3.01,2,5.78,2.11,9.16,.37,18.06,.36,26.47-.04,2.56-.12,4.33-.77,5.4-2,1.16-1.32,1.6-3.4,1.34-6.37-.1-1.19-.43-2.42-.77-3.72-.06-.21-.11-.43-.17-.65-12.85,1.82-25.49,3.03-38.36-.37Zm-79.39,9.96c4.87,.25,9.86,.19,14.68,.13,1.47-.02,2.95-.04,4.42-.05l10.88-9.63c-4.4-3.88-8.36-8.33-8.72-14.95-.51,.25-1.02,.5-1.53,.74-2.73,1.33-5.3,2.58-7.96,3.73-1.04,.45-2.04,.96-3.1,1.5-2.68,1.36-5.45,2.77-8.73,3.13-.57,.06-1.12-.2-1.42-.68-.31-.48-.32-1.09-.03-1.58,.82-1.38,1.93-2.05,2.8-2.47l1.93-.94c6.28-3.04,12.78-6.19,19.2-9.22,1.16-.55,1.37-.95,1.17-2.26-2.28-15.05-4.43-29.91-6.81-46.4-.17-1.17-.21-2.33-.25-3.46-.02-.5-.04-1-.06-1.5-.05-.81,.56-1.52,1.38-1.58l1.22-.1c.77-.06,1.49,.5,1.61,1.28l6.99,48.48c1.05-2.22,2.09-4.45,3.12-6.68,1.32-2.85,2.68-5.8,4.08-8.67,2.96-6.1,8-9.19,13.84-8.47,2.88,.35,5.91,1.2,8.77,2.45,2.9,1.26,5.7,2.77,8.42,4.22,.8,.43,1.59,.85,2.39,1.27,.54-.63,1.07-1.27,1.61-1.9,1.82-2.17,3.71-4.41,5.74-6.47,2.04-2.06,2.67-3.94,2.26-6.68-.42-2.8-.64-5.66-.86-8.42-.3-3.91-.62-7.96-1.5-11.75-.77-3.33-1.86-5.32-3.16-5.76-1.43-.49-3.48,.85-4.96,2.06-.95,.78-1.89,1.61-2.88,2.5-.49,.44-1,.89-1.54,1.36-.34,.3-.81,.43-1.26,.35-.45-.08-.84-.37-1.05-.78l-5.4-10.25-3.3,1.51c-3.41,1.56-6.77,3.1-10.11,4.66-2.87,1.34-4.61,2.15-6.16,1.41-1.56-.75-2.02-2.69-2.72-5.61-.76-3.19-1.38-6.34-2.04-9.67-.19-.99-.39-1.98-.59-2.98-7.14,1.43-11.21,3.71-13.48,7.49-8.55,14.24-13.88,26.71-16.77,39.25-1.53,6.65-2.38,13.63-3.2,20.37-.18,1.51-.37,3.01-.56,4.52-1.6,12.63-.98,23.57,1.9,33.45,.38,1.3,1.3,2.73,1.75,3.05Zm.06,.04h0Zm153.34-37.55l-1.39,3.25c-2.31,5.4-4.49,10.5-6.63,15.73-.12,.29-.04,1.07,.2,1.47l1.05,1.76c2.52,4.23,5.12,8.6,8.02,12.62,.61,.84,2.46,1.63,4.04,1.72,4.58,.27,9.29,.19,13.85,.11l1.58-.03c3.07-.05,4.58-1.45,4.75-4.41,.28-5,.5-10.26,.52-15.69-.05,.03-.1,.06-.16,.08-.58,.27-1.27,.13-1.71-.33-6.16-6.49-13.7-10.6-21.68-14.96-.81-.44-1.62-.88-2.43-1.33Zm-40.15,24.74s0,.04,0,.05c.02,.25-.02,.5-.11,.72,1.7-.22,3.39-.45,5.1-.69-.02-.05-.04-.11-.05-.16-.15,.05-.32,.08-.48,.08h-4.46Zm-32.75,0c.68,.17,1.35,.33,2.03,.48-.03-.15-.03-.3-.02-.46,0,0,0-.02,0-.03h-2.02Zm-33.22-42.43c-1.08,0-2.05,.18-2.91,.54-2.68,1.11-4.8,3.99-6.88,9.35-2.33,6.03-4.98,12.86-10.71,17.99-.27,.24-.59,1.14-.63,2.15-.21,5.6,3.31,8.91,7.64,12.47,.25-.26,.49-.52,.74-.78,1.33-1.4,2.58-2.73,3.7-4.13,.26-.32,.43-.93,.62-1.63,.13-.46,.27-.95,.45-1.45,.13-.37,.4-.67,.74-.84l2.49-1.24c-3.11-1.44-3.46-1.85-4.04-3.38-.2-.51-.1-1.09,.25-1.5s.9-.61,1.44-.5c.54,.11,1.06,.23,1.56,.34,1,.23,1.95,.45,2.85,.52l1.35,.11c2.33,.2,4.74,.4,7,.19,.24-.02,.43-.06,.56-.1-.1-.13-.26-.31-.51-.52-.85-.73-1.92-1.3-3.05-1.89-.53-.28-1.05-.55-1.56-.85-.53-.31-1.06-.61-1.59-.9l-.69-.39c-.65-.37-.93-1.16-.66-1.86l.34-.85c.28-.71,1.04-1.1,1.79-.9l1.14,.3c.86,.23,1.72,.45,2.57,.71,1.64,.5,3.29,1,4.93,1.51,3.66,1.13,7.45,2.29,11.19,3.33,.94,.26,2.18,.27,3.35,.02-.27-.2-.72-.36-1.16-.51l-.3-.11c-1.34-.49-2.69-.97-4.03-1.45-2.79-1-5.67-2.03-8.48-3.15-1.3-.52-2.46-1.27-3.58-1.99-.48-.31-.95-.61-1.43-.9-.66-.39-.92-1.22-.6-1.92l.51-1.12c.34-.73,1.2-1.07,1.94-.76,.3,.12,.6,.24,.9,.36,.71,.27,1.44,.56,2.15,.95,5.38,2.91,10.3,5.33,15.92,5.54,.54,.01,1.24-.17,1.56-.34-.04-.35-.28-1.03-.65-1.54-.28-.41-.95-.83-1.98-1.26-2.32-.97-4.65-1.92-6.98-2.87-2.82-1.14-5.74-2.33-8.59-3.54-1.02-.43-1.87-1.07-2.69-1.68-.33-.25-.66-.49-1-.72-.63-.42-.84-1.24-.5-1.92l.42-.83c.33-.66,1.1-.98,1.8-.75,.22,.07,.44,.13,.66,.2,.54,.16,1.1,.32,1.67,.57,1.67,.73,3.33,1.48,5,2.22,3.4,1.52,6.91,3.09,10.4,4.54,.36,.15,.85,.2,1.38,.21-.4-.59-.8-1.1-1.23-1.36-1.15-.7-2.29-1.41-3.44-2.13-4.23-2.63-8.6-5.35-13.14-7.37-3.23-1.44-5.85-2.15-8-2.15Zm34.05,39.43h34.38c-.73-2.04-1.46-4.09-2.2-6.13-2.35-6.57-4.78-13.36-7.26-20l-.59-1.57c-2.04-5.39-4.16-10.97-3.3-17.28,.14-1,.1-2.06,.06-3.18,0-.04,0-.08,0-.12h-7.8c0,.46,.01,.92,.02,1.38,.03,2.25,.06,4.38-.08,6.56-.15,2.4-.4,4.95-1.23,7.29-2.14,6.01-4.4,12.09-6.6,17.96-1.23,3.29-2.46,6.58-3.67,9.88-.57,1.56-1.07,3.14-1.6,4.81-.04,.13-.08,.26-.12,.39Zm36.76-33.99c.37,1.22,1.16,2.36,2.31,3.28,2.86,2.29,6.05,4.57,10.07,7.19,4.86,3.17,8.19,7.05,10.17,11.87,.52,1.26,1.08,2.49,1.71,3.88,.08-.19,.17-.37,.24-.55,.52-1.22,1.05-2.44,1.57-3.66,1.64-3.79,3.33-7.72,4.86-11.62,.58-1.46,.79-2.87,.57-3.79-1.68-6.88-3.58-13.63-5.38-19.9-1.2-4.16-3.91-6.79-8.29-8.03-4.06-1.15-8.12-2.33-12.17-3.51-3.79-1.1-7.58-2.2-11.37-3.28-.17-.05-.36-.08-.55-.11,.66,.91,1.33,1.8,2.02,2.1,4.65,1.99,9.54,3.69,14.27,5.33l2.73,.95c1.48,.52,3.06,.94,4.59,1.35,.73,.19,1.45,.39,2.17,.59,.79,.22,1.25,1.04,1.04,1.83l-.31,1.17c-.19,.71-.85,1.18-1.6,1.11-5.02-.5-9.79-2.17-14.19-3.9-.82-.32-1.64-.66-2.46-1-3.05-1.26-5.97-2.47-9.24-2.99,1.46,2.46,3.88,3.84,6.4,5.29,1.74,.99,3.53,2.02,5.04,3.42,4.03,3.75,9.1,4.45,14.96,5.26l.6,.08c.55,.08,1.01,.44,1.2,.96,.19,.52,.09,1.1-.28,1.51-.27,.31-.46,.56-.6,.73-.35,.44-.81,1.05-1.72,.98-.68-.06-1.37-.1-2.05-.14-3.75-.23-7.63-.47-11.21-3.02-3.04-2.17-6.33-4.16-9.52-6.08-.82-.49-1.63-.98-2.44-1.48,1.54,3.47,3.64,5.98,6.36,7.64,3.37,2.05,7.04,3.81,10.59,5.52,1.59,.76,3.17,1.53,4.74,2.32,.57,.29,1.14,.58,1.71,.87l.74,.38c.43,.22,.72,.62,.8,1.1,.08,.47-.08,.95-.41,1.29-.42,.43-1.7,1.72-3.19,1.11-4.53-1.87-9.05-3.76-13.6-5.67l-.87-.37Zm-71.25,25.63s.06,.04,.08,.06l.07-.05c-.05,0-.1,0-.16-.01Zm90.02-70.91c.24,0,.49,.06,.71,.18,.43,.23,.73,.66,.78,1.15,.04,.33,.08,.64,.12,.93,.09,.64,.18,1.25,.18,1.9v.57c.03,4.56,.05,9.28-.01,13.92-.02,1.23,.14,1.4,.89,1.69,4.42,1.69,7.42,4.87,8.67,9.2l.21,.74c1.98,6.88,4.03,13.99,5.8,21.07,.3,1.22,.77,1.67,1.77,2.26,5.64,3.36,11.63,6.96,17.45,10.69,1.79,1.15,3.27,2.67,4.71,4.14l.41,.42c.31,.32,.58,.68,.79,1.1-.2-11.67-1.45-24.02-5.06-36.2-3.11-10.5-8.56-20.57-17.18-31.69-2.1-2.71-4.41-5.36-6.63-7.93-.7-.81-1.4-1.62-2.1-2.43-3.81-4.44-8.15-7.17-13.25-8.33-3.11-.71-6.12-1.49-9.31-2.32-.85-.22-1.69-.44-2.55-.66l-.32,3.48c-.41,4.52-.81,8.9-1.24,13.28-.14,1.37-.39,2.73-.64,4.03l-.12,.67c-.12,.63-.47,2.53-2.02,3.3-1.05,.52-2.33,.4-3.9-.39-3.31-1.65-6.75-3.23-10.08-4.75-1.32-.6-2.64-1.21-3.95-1.82-.4-.19-.8-.36-1.24-.55l-4.37,9.81c-.19,.42-.56,.74-1.01,.85-.45,.11-.93,0-1.29-.29l-1.38-1.11c-.94-.76-1.78-1.43-2.63-2.09-.2-.16-.4-.33-.61-.5-.38-.33-.81-.69-1.1-.77-.37-.1-.78-.22-1.2-.35-.79-.24-2.24-.68-2.76-.64-1.44,1.37-2.89,3.56-2.84,5.08,.17,5.2,.79,10.5,1.38,15.63,.15,1.31,.3,2.62,.45,3.92,.31-.32,.64-.63,1-.92,.67-.53,1.46-.66,2.1-.76,.19-.03,.38-.06,.55-.1,.43-.11,.88-.02,1.24,.23,.36,.25,.59,.66,.63,1.09l.05,.6c.06,.61,.11,1.22,.14,1.84,.03,.55-.2,1.08-.67,1.58-4.31,4.52-4.14,9.93-3.32,15.11,.4,2.53,.64,5.11,.88,7.61,.04,.37,.07,.75,.11,1.12,3.26-7.58,6.08-14.87,4.85-23.16-.27-1.81,.02-3.14,.87-4.05,1.17-1.25,2.96-1.26,4.21-1.16,2.34,.19,4.79,.12,7.16,.06l1.14-.03c1.32-.03,2.29,.3,2.95,1.02,.02,.02,.03,.04,.05,.06,.17-.26,.38-.51,.61-.74-1.32-2.3-2-3.92-1.51-5.38,.33-.98,1.13-1.61,2.05-2.09-.02-.06-.04-.12-.07-.19-.49-1.36-1.05-2.9-.46-4.28,.58-1.35,2.07-1.82,3.64-2.32,.35-.11,.7-.22,1.04-.34,.7-2.22,1.79-3.57,3.32-4.12,1.85-.66,4.05-.03,6.74,1.93,1.66,1.22,3.55,2.6,4.74,4.46,1.57,2.46,3.93,3.07,6.92,3.84,.29,.07,.58,.15,.87,.23,0-5.6,0-10.94,.03-16.28,0-1.04,.9-1.44,1.33-1.63,.15-.07,.34-.15,.56-.26,.21-.11,.45-.17,.68-.17Zm.02,66.68c.01,.16,.02,.32,.03,.48,0,.17,0,.34,0,.51,.03,0,.05,0,.08,0l.38-.02c-.16-.33-.32-.65-.49-.97Zm-65.75-.69h0Zm-16.34-1.02c.06,.05,.11,.09,.17,.14,.18,.16,.34,.31,.49,.46,.04-.12,.1-.24,.18-.35-.1-.03-.19-.06-.29-.09-.18-.06-.37-.11-.55-.17Zm29.11-3.15c.02,.43,.02,.88,0,1.33,0,0,0,0,0-.01,.16-.43,.32-.86,.48-1.29-.1,0-.21,0-.32,0-.06,0-.11-.02-.17-.03Zm-9.72-20.81c.08,.04,.16,.09,.23,.14,.66,.5,1.45,1.1,1.85,1.93l1.17-1.79c-.16-.06-.31-.14-.44-.25-.57-.46-1.15-.94-1.41-1.63-.47,.53-.94,1.06-1.4,1.6Zm41.79,.25c.02,.07,.05,.15,.07,.22,.08-.02,.16-.03,.23-.04-.08-.05-.16-.1-.24-.15-.02-.01-.04-.02-.06-.04Zm-35.13-9.62c-.04,.23-.1,.46-.16,.69,.16-.14,.32-.29,.49-.45,.03-.03,.06-.05,.09-.08-.15-.03-.29-.09-.42-.17Zm1.68-.11c.15,.04,.3,.1,.44,.18,.57-.97,1.28-1.92,2.13-2.84v-.09c-.49,.42-.96,.96-1.5,1.57-.28,.33-.58,.66-.9,1.01-.06,.06-.11,.11-.18,.16Zm28.2-10.99s.05,0,.08,.01l-.06-.06s-.01,.04-.02,.05Zm14.47-2.8c.13,.04,.25,.07,.38,.11-.09-.08-.18-.17-.26-.25l-.11,.14Zm-9.69-2.81c1.42,.41,2.83,.82,4.25,1.23-.24-.23-.46-.47-.67-.74q-1.48-1.86-3.19-.68c-.12,.08-.25,.15-.39,.19Zm-1.83-.52c.07,.02,.15,.04,.22,.06-.04-.04-.07-.09-.1-.14-.04,.03-.08,.05-.11,.08Zm-35.77-8.98s.01,.05,.02,.07c0-.02,.01-.04,.02-.06-.01,0-.03,0-.04,0Zm-21.19-20.21c.09,5.77,2.84,10.7,5.74,15.86,.16,.28,.32,.57,.47,.85l5.33-3.41-11.54-13.3Zm29.42,12.68l6.72,3.78c.42-.99,.86-1.97,1.28-2.92,1.82-4.05,3.55-7.92,3.77-12.32l-11.77,11.46Zm-14.65-3.14l6.45,6.83,4.67-6.49c-3.67,.64-7.35,.52-11.11-.34Zm-2.46-89.63c-5.77,0-10.96,1.63-15.45,4.86-7.42,5.33-12.4,13.07-15.68,24.36-5.11,17.57-5.48,36.91-1.18,60.87,.25,1.39,.66,2.76,1.13,4.34,.08,.26,.16,.52,.24,.79,.8-.37,1.6-.74,2.39-1.11,4.27-1.99,8.3-3.86,12.29-5.85,.14-.22,.31-.8,.29-1.17-.2-3.73-.56-7.49-.93-10.99-.03-.32-.06-.65-.09-.98-.12-1.37-.24-2.66-.7-3.68-4-8.89-5.03-18.16-3.14-28.33,.79-4.29,3.08-7.12,6.78-8.41,3.18-1.11,6.31-1.99,9.31-2.62,7.1-1.5,12.42-5.4,16.26-11.92,.52-.88,.65-1.63,.6-1.82-1.63-4.78-3.55-10.33-5.82-15.61-.92-2.15-3.19-2.59-4.46-2.67-.62-.04-1.24-.05-1.84-.05Zm32.77,88.11c4.11,2.03,8.27,3.98,12.67,6.04l2.09,.98c.2-1,.37-1.86,.44-2.69,.13-1.43,.27-2.87,.41-4.3,.4-4.08,.82-8.3,.94-12.43,.46-15.54,.38-32.16-3.29-48.42-2.67-11.81-9.99-20.17-21.77-24.85-4.86-1.93-9.2-2.4-12.92-1.41,.3,.88,.6,1.75,.9,2.62,1.34,3.93,2.62,7.64,4.01,11.38,.2,.53,.85,1.2,1.38,1.4,4.76,1.86,8.9,4.75,12.31,8.57,11.33,12.71,13.3,33.77,4.59,48.97-.47,.82-.8,1.87-.94,2.96-.42,3.34-.75,6.85-.99,10.41-.01,.21,.08,.59,.18,.79Zm-14.33-1.37c.08,.12,.13,.25,.17,.39l.88-.86c-.35,.17-.7,.32-1.06,.48Zm-33.43-21.4c2.57,9.84,12.11,20.1,23.25,20.37,13.25,.34,22.03-10.95,24.57-19.83-.14,.03-.29,.05-.43,.07-1.32,.22-2.63,.46-3.95,.7-3.3,.61-6.72,1.23-10.14,1.5-2.07,.16-3.71,.45-5.54,1.43-2.09,1.11-5.73,1.44-7.61,.13-1.96-1.37-3.9-1.81-6.71-1.54-.85,.08-1.65-.1-2.34-.26-3.44-.79-6.87-1.59-10.27-2.39l-.83-.19Zm10.44,19.13l.79,.91c.08-.09,.18-.17,.28-.23-.36-.22-.71-.44-1.06-.67Zm-9.47-9.74s0,.08,.01,.12c0,.04,0,.09,.01,.13,.02,0,.04-.01,.06-.02,.02,0,.04,0,.05-.01-.05-.07-.09-.14-.14-.22Zm20.46-9.74c.85,.74,1.62,1.11,2.35,1.13,.74,.02,1.57-.33,2.49-1.06-.9-1.31-1.82-2.66-2.3-3.08-.5,.38-1.48,1.64-2.43,2.86-.04,.05-.07,.1-.11,.15Zm2.29-8.03c1.54,0,3.09,.84,4.31,2.36,.6,.75,1.04,1.41,1.38,2.06,1,1.94,2.37,2.63,4.45,2.24l2.12-.39c4.27-.79,8.69-1.6,13-2.52,.16-.1,.41-.4,.47-.55,.26-3.38,.44-6.93,.62-10.69,.03-.68,.07-1.38,.1-2.09-18.98,2.75-35.23,3.65-51.69-.47,0,.63,0,1.25,0,1.86-.02,3.63-.03,7.06,.1,10.46,.19,.24,.74,.66,1.15,.8,3.19,1.05,6.51,1.93,9.73,2.79l.39,.1c5.12,1.37,7.89,.43,9.88-3.33,.83-1.55,2.11-2.49,3.61-2.63,.13-.01,.26-.02,.39-.02Zm-26.59-13.47c.08,0,.17,.02,.25,.05,1.8,.49,3.61,.92,5.41,1.29-.06-.22-.06-.46,0-.69,.03-.15,.09-.29,.16-.41-1.83-.4-3.67-.88-5.51-1.43-.12,.38-.21,.77-.3,1.19Zm3.78-3.34c16.04,4.15,31.6,2.61,47.39,.3-3.47-10.12-8.76-16.21-16.91-19.47-4.97,9.21-12.26,14.46-22.26,16.04-2.11,.33-4.24,.95-6.14,1.79-.69,.3-1.36,.78-2.08,1.34ZM85.53,4.05c.2,.18,.38,.37,.55,.58,.04-.21,.13-.4,.25-.57-.27,0-.53,0-.8,0Z"/>
        </g>
        <g>
          <path class="cls-1" d="M77.03,77.83c7.31,4.22,14.08,3.35,20.91,.44-.38,2.43-2.65,3.49-7.99,4.06-6.5,.69-11.45-.72-12.91-4.5Z"/>
          <path class="cls-1" d="M86.95,83.99c-5.85,0-9.91-1.98-11.32-5.62-.23-.59-.06-1.27,.42-1.68s1.17-.48,1.73-.16c5.99,3.46,12.03,3.57,19.57,.36,.5-.21,1.08-.14,1.51,.2,.43,.33,.64,.88,.56,1.42-.64,4.06-5.14,4.87-9.32,5.32-1.1,.12-2.16,.18-3.16,.18Z"/>
        </g>
        <g>
          <circle class="cls-1" cx="73.36" cy="59.78" r="2.01"/>
          <path class="cls-1" d="M73.36,63.29c-1.94,0-3.51-1.57-3.51-3.51s1.58-3.51,3.51-3.51,3.51,1.58,3.51,3.51-1.58,3.51-3.51,3.51Zm0-4.02c-.28,0-.51,.23-.51,.51s.23,.51,.51,.51,.51-.23,.51-.51-.23-.51-.51-.51Z"/>
        </g>
        <g>
          <circle class="cls-1" cx="100.64" cy="59.78" r="2.01"/>
          <path class="cls-1" d="M100.64,63.29c-1.94,0-3.51-1.57-3.51-3.51s1.58-3.51,3.51-3.51,3.51,1.58,3.51,3.51-1.58,3.51-3.51,3.51Zm0-4.02c-.28,0-.51,.23-.51,.51s.23,.51,.51,.51,.51-.23,.51-.51-.23-.51-.51-.51Z"/>
        </g>
      </g>
    </g>
  </g>
</svg>