<?xml version="1.0" encoding="UTF-8"?>
<svg id="Capa_2" data-name="Capa 2" xmlns="http://www.w3.org/2000/svg" viewBox="0 0 290.73 201">
  <defs>
    <style>
      .cls-1 {
        fill: #93a164;
      }
    </style>
  </defs>
  <g id="Site_mock_up" data-name="Site mock up">
    <g id="ZfTzLw.tif">
      <g>
        <g>
          <path class="cls-1" d="M220.31,200.5c-16.77,.08-33.08-2.18-48.15-10.09-23.54-12.37-28.93-34.36-13.93-56.34,28.63-41.95,94.97-41.94,123.57,.02,15.03,22.05,9.71,43.84-13.94,56.35-14.85,7.85-30.98,10.1-47.54,10.07Zm-.57-6.47c15.33,.06,30.27-1.96,44.16-8.91,20.92-10.46,25.48-28.2,12.35-47.64-25.6-37.89-87.74-37.6-112.9,.53-12.58,19.06-8.02,36.5,12.28,46.83,13.86,7.05,28.76,9.19,44.1,9.19Z"/>
          <path class="cls-1" d="M219.49,201c-19.26,0-34.39-3.23-47.56-10.15-11.65-6.12-19.14-14.7-21.66-24.82-2.53-10.16,.08-21.31,7.54-32.24,13.54-19.84,36.79-31.68,62.2-31.68h.02c25.41,0,48.65,11.85,62.17,31.69,7.47,10.96,10.1,22.09,7.59,32.19-2.5,10.08-10.01,18.69-21.72,24.88-13.06,6.91-28.15,10.13-47.5,10.13h-.28c-.27,0-.55,0-.82,0Zm.52-97.9c-25.08,0-48.02,11.68-61.37,31.24-7.3,10.7-9.86,21.57-7.4,31.44,2.45,9.83,9.76,18.19,21.15,24.18,13.02,6.84,28,10.04,47.1,10.04,.27,0,.54,0,.82,0h0c19.28,.02,34.34-3.15,47.31-10.01,11.45-6.06,18.78-14.44,21.21-24.24,2.43-9.81-.14-20.67-7.45-31.39-13.34-19.57-36.27-31.25-61.35-31.26h-.02Zm.39,91.42c-.25,0-.49,0-.75,0-17.8,0-31.86-2.94-44.25-9.24-10.07-5.12-16.54-12.18-18.71-20.41-2.18-8.26-.03-17.65,6.24-27.15,11.9-18.03,33.07-28.87,56.64-29,.14,0,.28,0,.43,0,23.45,0,44.61,10.62,56.66,28.46,6.55,9.7,8.85,19.27,6.65,27.67-2.19,8.36-8.83,15.52-19.19,20.7-12.21,6.11-26.12,8.96-43.72,8.96Zm-.66-1h0c17.73,.1,31.72-2.74,43.94-8.85,10.09-5.05,16.55-11.98,18.67-20.06,2.13-8.12-.12-17.41-6.51-26.86-11.87-17.57-32.72-28.02-55.83-28.02-.14,0-.28,0-.42,0-23.24,.13-44.1,10.8-55.81,28.55-6.11,9.25-8.22,18.36-6.11,26.34,2.1,7.94,8.39,14.78,18.2,19.77,12.24,6.23,26.16,9.13,43.79,9.13h.08Z"/>
        </g>
        <g>
          <path class="cls-1" d="M70.54,200.5c-16.57,.05-32.67-2.25-47.56-10.03-23.65-12.35-29.12-34.36-14.11-56.28,29.11-42.5,96.16-42.07,124.2,.8,13.99,21.38,9,42.38-13.33,54.81-15.25,8.49-32.01,10.78-49.2,10.7Zm-.08-6.47c15.33,.07,30.27-1.96,44.16-8.92,20.95-10.49,25.5-28.2,12.36-47.66-25.43-37.67-87.08-37.62-112.56,.08-13.14,19.45-8.51,37.18,12.47,47.6,13.73,6.82,28.43,8.91,43.57,8.89Z"/>
          <path class="cls-1" d="M71.27,201c-.4,0-.81,0-1.21,0-19.1,0-34.15-3.21-47.31-10.08-11.74-6.13-19.28-14.74-21.81-24.9-2.53-10.13,.07-21.24,7.52-32.11,13.68-19.98,36.95-31.83,62.38-31.83,.29,0,.58,0,.87,0,25.49,.27,48.59,12.47,61.78,32.63,6.99,10.68,9.41,21.5,6.99,31.3-2.4,9.72-9.48,18.09-20.49,24.22-13.19,7.34-28.69,10.77-48.71,10.77Zm-.73-1h0c.24,0,.49,0,.73,0,19.85,0,35.19-3.39,48.23-10.64,10.76-5.99,17.68-14.14,20.01-23.59,2.35-9.52-.02-20.07-6.85-30.51-13.01-19.88-35.79-31.92-60.95-32.18-.29,0-.57,0-.86,0-25.1,0-48.06,11.69-61.56,31.4-7.28,10.63-9.83,21.45-7.37,31.3,2.46,9.87,9.83,18.26,21.3,24.25,13.02,6.8,27.92,9.97,46.85,9.97,.16,0,.31,0,.47,0Zm.65-5.47c-.24,0-.49,0-.73,0h-.15c-17.49,0-31.36-2.84-43.64-8.95-10.4-5.17-17.07-12.33-19.28-20.69-2.21-8.4,.07-17.95,6.62-27.64,12.07-17.86,33.29-28.53,56.76-28.53h.01c23.42,0,44.59,10.64,56.61,28.44,6.55,9.7,8.85,19.27,6.65,27.67-2.19,8.36-8.83,15.52-19.2,20.72-12.21,6.12-26.1,8.97-43.65,8.97Zm-.73-1h0c17.74,.06,31.69-2.74,43.93-8.87,10.11-5.06,16.57-12,18.68-20.07,2.13-8.11-.12-17.4-6.51-26.86-11.84-17.53-32.69-28-55.78-28h-.01c-23.14,0-44.05,10.5-55.94,28.09-6.38,9.44-8.62,18.71-6.48,26.82,2.13,8.08,8.62,15.02,18.75,20.05,12.14,6.03,25.87,8.84,43.2,8.84h.15Z"/>
        </g>
        <g>
          <path class="cls-1" d="M32.05,42.66c-.12-23.4,14.71-40.41,33.35-41.95,19.28-1.59,35.25,11.52,38.42,31.7,1.48,9.42,.49,19.23,6.45,27.83,2.39,3.45,.03,7.65-4.2,8.27-4.13,.61-4.99,2.99-6.22,6.1-1.71,4.28-3.56,8.64-6.15,12.42-6.16,8.99-16.05,12.1-25.52,6.81-21.35-11.93-32.72-30.9-36.14-51.17Zm71.78,20.04c-1.93-4.94-4.24-9.23-5.23-13.8-1.01-4.67-.42-9.66-1.07-14.44-2.37-17.49-15.64-28.79-31.81-27.37-15.19,1.33-28.16,15.71-26.8,32.08,1.79,21.53,13.47,37.67,31.77,48.74,6.36,3.85,12.83,2.13,17.11-4,2.95-4.23,5.47-9.08,6.81-14.02,1.36-4.98,3.18-8.04,9.21-7.2Z"/>
          <path class="cls-1" d="M77.59,96.91c-3.2,0-6.47-.86-9.65-2.64-19.72-11.02-32.64-29.32-36.39-51.53v-.08C31.43,19.69,45.65,1.84,65.36,.22c19.73-1.62,35.73,11.59,38.96,32.12,.39,2.48,.61,5.02,.83,7.48,.6,6.83,1.22,13.9,5.54,20.14,1.14,1.64,1.36,3.58,.6,5.33-.86,1.98-2.78,3.37-5.13,3.72-3.75,.55-4.54,2.55-5.75,5.58l-.08,.21c-1.59,4-3.52,8.6-6.2,12.52-4.3,6.28-10.26,9.6-16.53,9.6ZM32.55,42.62c3.7,21.89,16.44,39.92,35.88,50.78,8.92,4.99,18.68,2.37,24.86-6.65,2.63-3.84,4.52-8.37,6.09-12.32l.08-.21c1.18-2.98,2.21-5.56,6.53-6.2,2.01-.3,3.64-1.47,4.36-3.13,.62-1.44,.45-2.99-.5-4.36-4.48-6.46-5.11-13.66-5.72-20.62-.21-2.44-.43-4.96-.82-7.41C100.19,12.5,84.62-.37,65.44,1.22c-19.17,1.58-32.99,18.99-32.89,41.4Zm44.92,47.84c-2.31,0-4.7-.69-7.04-2.11-19.52-11.81-30.29-28.34-32.01-49.13-1.35-16.27,11.13-31.2,27.26-32.62,16.63-1.46,29.93,9.97,32.35,27.8,.29,2.11,.33,4.29,.38,6.39,.06,2.67,.12,5.43,.68,8.01,.67,3.1,1.96,6.08,3.33,9.24,.62,1.44,1.27,2.93,1.87,4.48l.31,.8-.85-.12c-5.5-.77-7.3,1.81-8.66,6.83-1.26,4.63-3.64,9.53-6.88,14.18-2.88,4.12-6.68,6.25-10.74,6.25ZM68.49,7.47c-.9,0-1.81,.04-2.73,.12-15.32,1.34-27.63,16.08-26.35,31.54,1.7,20.45,12.31,36.72,31.53,48.36,6.05,3.66,12.2,2.22,16.44-3.86,3.18-4.55,5.51-9.35,6.74-13.87,1.38-5.06,3.4-8.12,8.92-7.65-.51-1.26-1.04-2.48-1.55-3.67-1.39-3.21-2.7-6.24-3.39-9.43-.58-2.68-.64-5.49-.7-8.2-.05-2.07-.09-4.22-.37-6.28-2.21-16.28-13.77-27.06-28.55-27.06Z"/>
        </g>
        <g>
          <path class="cls-1" d="M222.38,.51c23.99,.57,41.29,23.8,35,48.13-4.48,17.33-14.46,31.58-29.1,42-14.03,9.99-26.74,6.48-34.42-8.83-1.26-2.51-2.31-5.16-3.19-7.83-.92-2.79-1.85-4.78-5.47-5.3-4.58-.66-7.21-4.78-4.65-8.49,6.21-8.99,4.9-19.26,6.56-29.04C190.18,13.2,205.3,.1,222.38,.51Zm-33.57,62.08c5.21,.74,5.14,.77,7.15,7.08,.92,2.87,1.99,5.73,3.32,8.43,6.28,12.79,15.01,15.19,26.32,6.59,12.77-9.7,21.41-22.62,25.54-38.05,4.67-17.46-6.68-35.78-23.47-39.19-16.79-3.42-31.7,8.42-34.53,27.35-1.36,9.14-2.84,18.26-4.33,27.8Z"/>
          <path class="cls-1" d="M213.06,96.76c-1.46,0-2.89-.17-4.28-.52-6.15-1.53-11.46-6.44-15.37-14.22-1.18-2.36-2.26-5.02-3.22-7.9-.88-2.68-1.71-4.48-5.06-4.96-2.63-.38-4.74-1.84-5.64-3.9-.76-1.75-.53-3.65,.66-5.37,4.37-6.34,4.97-13.49,5.54-20.41,.23-2.77,.47-5.64,.94-8.43C189.72,12.95,205.09-.39,222.4,0h0c11.42,.27,21.96,5.7,28.91,14.91,7.25,9.6,9.64,21.93,6.57,33.85-4.5,17.42-14.36,31.65-29.29,42.28-5.32,3.78-10.6,5.72-15.52,5.72ZM221.62,1c-16.5,0-31.04,12.86-34,30.22-.47,2.75-.7,5.59-.93,8.34-.58,7.05-1.19,14.34-5.71,20.9-.98,1.42-1.18,2.98-.56,4.4,.75,1.71,2.61,2.98,4.87,3.31,3.9,.57,4.93,2.79,5.87,5.64,.94,2.84,2,5.45,3.16,7.77,3.77,7.5,8.85,12.24,14.71,13.69,5.76,1.43,12.32-.31,18.97-5.05,14.74-10.49,24.46-24.52,28.9-41.71,3-11.62,.67-23.64-6.4-32.99-6.77-8.96-17.02-14.25-28.14-14.51-.25,0-.5,0-.75,0Zm-8.25,89.25c-.93,0-1.84-.1-2.73-.31-4.58-1.08-8.55-5-11.81-11.63-1.22-2.49-2.32-5.27-3.35-8.5l-.09-.29q-1.83-5.75-6.65-6.44l-.5-.07,.08-.5c.46-2.97,.92-5.9,1.38-8.8,1.03-6.53,2-12.71,2.94-19,1.49-10,6.31-18.31,13.58-23.39,6.25-4.38,13.9-5.93,21.55-4.37,8.07,1.64,15.33,6.84,19.93,14.27,4.77,7.7,6.2,17.01,3.92,25.54-4.18,15.64-12.83,28.53-25.72,38.32-4.53,3.44-8.73,5.17-12.53,5.17Zm-23.98-28.09c4.85,.7,5.04,1.02,6.96,7.05l.09,.29c1.01,3.18,2.09,5.91,3.29,8.36,3.12,6.35,6.87,10.09,11.14,11.1,4.18,.99,9.03-.59,14.42-4.68,12.71-9.65,21.24-22.36,25.36-37.78,2.21-8.26,.82-17.29-3.8-24.76-4.46-7.19-11.48-12.23-19.28-13.82-7.37-1.5-14.75,0-20.77,4.21-7.04,4.93-11.71,13-13.16,22.72-.94,6.3-1.91,12.47-2.94,19.01-.43,2.74-.87,5.5-1.3,8.3Z"/>
        </g>
      </g>
    </g>
  </g>
</svg>