<?xml version="1.0" encoding="UTF-8"?>
<svg id="Capa_2" data-name="Capa 2" xmlns="http://www.w3.org/2000/svg" viewBox="0 0 100 85.83">
  <defs>
    <style>
      .cls-1 {
        fill: #93a164;
      }
    </style>
  </defs>
  <g id="Site_mock_up" data-name="Site mock up">
    <g id="sWFvpJ.tif">
      <path class="cls-1" d="M43.15,.64c10.96,.25,20.88,.47,30.8,.71,2.87,.07,5.03,1.67,6.96,3.53,2.62,2.53,5.1,5.21,7.68,7.8,.42,.42,.95,.88,1.5,.99,4.07,.85,6.12,3.84,7.84,7.21,1.36,2.67,2.03,5.53,2.04,8.53,.02,9.06,.05,18.11,.03,27.17,0,1.55-.15,3.12-.39,4.65-.65,4.18-2.73,6.4-6.88,7.31-1.96,.43-3.95,.74-5.95,.91-.99,.09-1.56,.45-1.76,1.33-.74,3.1-1.45,6.2-2.11,9.32-.2,.95-.21,1.95-.27,2.93-.14,2.36-2.37,3.59-4.29,2.21-1.42-1.02-2.67-2.29-3.92-3.52-2.73-2.72-5.38-5.51-8.13-8.22-2.03-2.01-4.51-2.99-7.4-3.11-11.79-.51-23.59-1.08-35.38-1.68-1.25-.06-2.63-.19-3.69-.77-3.39-1.88-6.89-3.69-9.92-6.07C3.66,56.97,.17,50.38,.03,42.36c-.11-6.43,.11-12.86,.33-19.29,.15-4.46,.45-8.92,.85-13.37,.25-2.83,.99-5.65,3.63-7.19,1.73-1.01,3.74-1.81,5.7-2.06C13.94,.03,17.4-.04,20.83,.02c7.79,.13,15.57,.42,22.31,.62Zm34.73,76.6c.11-.6,.16-1.17,.31-1.71,.72-2.51,1.32-5.07,2.26-7.5,.95-2.43,2.82-3.79,5.59-3.88,1.87-.07,3.75-.41,5.59-.79,1.91-.39,2.61-1.27,2.79-3.21,.12-1.3,.22-2.62,.22-3.93,0-8.73-.03-17.46-.07-26.19-.01-3.42-.99-6.51-3.02-9.3-.99-1.36-2.23-1.97-3.87-1.93-14.34,.31-28.69,.58-43.03,.95-7.33,.19-14.63,1.17-21.98,.5-.36-.03-.74,0-1.11,.02-3,.2-4.47,1.76-4.37,4.77,.13,4.14,.34,8.27,.48,12.41,.23,6.76,.42,13.52,.65,20.28,.12,3.45,2.1,5.48,5.53,5.64,11.83,.57,23.67,1.11,35.5,1.65,3.92,.18,7.36,1.53,10.24,4.19,1.65,1.53,3.2,3.17,4.81,4.75,1.11,1.08,2.25,2.14,3.46,3.29ZM11.91,5.58c.06,.23,.06,.33,.11,.38,2.52,2.85,5.04,5.7,7.59,8.51,.25,.27,.76,.41,1.16,.43,2.12,.1,4.25,.16,6.37,.19,2.07,.03,4.13,0,6.32,0-.13-.41-.14-.54-.21-.63-2.31-2.81-4.62-5.62-6.96-8.41-.21-.25-.62-.45-.93-.45-4.45-.03-8.9-.02-13.45-.02ZM52.11,14.03c-.48-.69-.8-1.16-1.13-1.62-1.33-1.87-2.63-3.76-4.01-5.59-.28-.37-.86-.73-1.31-.74-3.56-.13-7.12-.19-10.68-.26-.51-.01-1.02,0-1.73,0,1.84,2.31,3.68,4.35,5.2,6.61,1.14,1.7,2.38,2.32,4.43,2.09,2.95-.34,5.94-.33,9.23-.49Zm19.3-.4c-.1-.32-.1-.46-.18-.53-2.1-2.06-4.2-4.13-6.33-6.16-.26-.25-.74-.36-1.12-.37-3.23-.12-6.47-.2-9.7-.29-.21,0-.43,.07-.78,.12,1.72,2.42,3.33,4.74,5.02,7,.23,.3,.84,.45,1.26,.45,3.15-.04,6.31-.14,9.46-.21,.76-.02,1.52,0,2.37,0ZM6.17,22.51c-.14,.03-.29,.06-.43,.09-.11,3.58-.23,7.17-.32,10.75,0,.18,.22,.4,.38,.56,1.88,1.92,3.77,3.82,5.64,5.74,.29,.29,.53,.63,.62,.74,0-2.82-.03-5.72,.01-8.62,.02-1.41-.16-2.61-1.27-3.74-1.68-1.71-3.1-3.67-4.63-5.52Zm6.65,34.79c0-2.33,0-4.49-.01-6.65,0-.26-.13-.55-.29-.77-1.3-1.74-2.61-3.47-3.94-5.18-.96-1.24-1.96-2.46-3.1-3.9-.19,6.88,2.32,12.2,7.34,16.5ZM7.15,8.61l-.43,.16c-.14,1.33-.19,2.67-.43,3.97-.28,1.5,.12,2.54,1.3,3.58,1.67,1.48,3.08,3.23,4.57,4.84,.88-1.35,1.74-2.66,2.69-4.12-2.54-2.78-5.13-5.6-7.71-8.43Zm66.11-2.03c-.05,.14-.11,.28-.16,.43,1.46,1.64,3.1,3.16,4.34,4.96,1.14,1.66,2.52,1.52,4.18,1.18-1.99-2.02-4.03-3.95-6.18-5.76-.56-.47-1.45-.55-2.18-.81Z"/>
    </g>
  </g>
</svg>