<?xml version="1.0" encoding="UTF-8"?>
<svg id="Capa_2" data-name="Capa 2" xmlns="http://www.w3.org/2000/svg" viewBox="0 0 192.17 202">
  <defs>
    <style>
      .cls-1 {
        fill: #93a164;
      }
    </style>
  </defs>
  <g id="Site_mock_up" data-name="Site mock up">
    <g id="_24nBLM.tif" data-name="24nBLM.tif">
      <g>
        <path class="cls-1" d="M66.76,15.18c.7-3.8,1.42-7.35,1.99-10.92,.34-2.13,1.39-2.73,3.42-2.28,2.86,.64,5.74,1.2,8.63,1.66,2.04,.32,2.85,1.15,2.32,3.32-.61,2.49-.89,5.07-1.36,7.84h5.06c0-3.53,.13-7.04-.04-10.54-.12-2.51,.81-3.37,3.28-3.24,3.1,.17,6.21,.13,9.31,0,2.11-.08,2.96,.67,2.89,2.82-.11,3.52-.03,7.04-.03,10.72h5.92c-.47-2.67-.86-5.22-1.38-7.75-.41-1.98,.08-3.09,2.27-3.39,2.98-.41,5.95-1.01,8.9-1.62,1.94-.4,2.91,.27,3.22,2.24,.43,2.81,1.19,5.58,1.47,8.4,.21,2.17,1.16,2.6,3.16,2.59,20.36-.07,40.71-.04,61.07-.04q4.3,0,4.31,4.29c0,38.74,0,77.48,0,116.22q0,4.37-4.5,4.38c-9.92,0-19.84,0-29.76,0h-3.11c0,3.12-.05,6.03,.02,8.93,.05,1.87-.7,2.67-2.6,2.62-2.83-.08-5.66-.02-8.84-.02,.98,5.47,1.88,10.62,2.82,15.76,1.89,10.34,3.77,20.69,5.72,31.02,.35,1.88-.49,2.62-2.15,2.66-3.79,.08-7.59,.05-11.39,.11-1.82,.03-1.99-1.26-2.23-2.57-2.38-13.06-4.78-26.11-7.17-39.17-.12-.68-.25-1.35-.4-2.03q-1.3-5.79-7.39-5.79h-17.96c0,1.22,0,2.22,0,3.23,0,12.25,0,24.5,0,36.76,0,3.47-.05,3.5-3.42,3.51-3.02,0-6.05-.13-9.06,.04-2.34,.13-2.97-.86-2.96-3.03,.06-12.34,.03-24.68,.03-37.02,0-1.02,0-2.04,0-3.27h-22.57c-1.03,5.73-2.06,11.48-3.09,17.23-1.77,9.93-3.56,19.85-5.3,29.78-.29,1.63-1.02,2.4-2.75,2.34-3.45-.11-6.9-.1-10.35-.09-2.27,0-3.03-.92-2.6-3.24,2.78-14.82,5.46-29.66,8.18-44.5,.07-.41,.14-.81,.28-1.66-3.36,0-6.51-.08-9.66,.03-1.99,.07-2.84-.61-2.75-2.67,.11-2.83,.03-5.67,.03-8.89h-2.9c-9.75,0-19.5-.07-29.24,.05-2.46,.03-3.09-.88-3.09-3.17,.05-39.52,.05-79.04-.01-118.55,0-2.59,.98-3.19,3.37-3.18,19.67,.07,39.33,.04,59,.04,1.03,0,2.06,0,3.39,0ZM4.45,18.27v118.12H187.74V18.27H4.45Zm145.97,121.8H39.54v7.84h110.88v-7.84Zm-98.61,11.49c-2.76,15.25-5.51,30.48-8.32,45.99h9.29c2.77-15.37,5.51-30.59,8.29-45.99h-9.27Zm78.28-.13c-.06,.66-.14,.93-.09,1.17,2.59,14.6,5.17,29.19,7.83,43.77,.1,.53,.93,1.29,1.45,1.31,2.56,.14,5.13,.06,7.68,.06,.09-.72,.19-.98,.14-1.21-2.62-14.59-5.23-29.18-7.92-43.75-.1-.53-.95-1.27-1.48-1.3-2.48-.14-4.97-.06-7.61-.06Zm-39.86,.12v39.98h8.61v-39.98h-8.61ZM98.86,14.85V4.47h-8.72V14.85h8.72Zm-28.9,.15c2.7,0,4.92,.05,7.13-.04,.47-.02,1.25-.48,1.33-.86,.54-2.44,.93-4.92,1.38-7.46-2.91-.53-5.32-.96-7.91-1.43-.65,3.31-1.25,6.31-1.93,9.79Zm49.87-.29c-.6-3.12-1.19-6.19-1.85-9.56-2.75,.54-5.22,1.03-7.63,1.5,.29,8.27,.73,8.68,8.38,8.32,.17,0,.33-.08,1.09-.26Z"/>
        <path class="cls-1" d="M53.27,202c-.06,0-.13,0-.19,0-3.55-.11-7.14-.1-10.32-.09-1.47-.01-2.46-.35-3.07-1.09-.83-1-.69-2.38-.51-3.33,2.12-11.31,4.22-22.81,6.25-33.94l1.93-10.56c.03-.15,.05-.3,.08-.48-.61,0-1.21,0-1.81-.01-2.29-.02-4.45-.03-6.63,.04-.86,.03-2.1-.03-2.94-.87-.62-.63-.9-1.55-.85-2.84,.08-1.94,.06-3.9,.04-5.97,0-.61,0-1.24-.01-1.88h-1.9c-2.63,0-5.26,0-7.9-.01-6.99-.01-14.22-.03-21.33,.06-.93,.01-2.25-.07-3.12-.94-.86-.85-.98-2.11-.98-3.23C.06,93.1,.06,54.32,0,18.31c0-.94,.1-2.3,.99-3.19,.88-.88,2.18-1,3.38-.99,15.09,.06,30.44,.05,45.29,.05h16.27c.16-.87,.32-1.72,.48-2.57,.49-2.59,.96-5.03,1.35-7.51,.21-1.33,.69-2.23,1.46-2.76,.78-.53,1.82-.64,3.16-.34,2.96,.66,5.84,1.21,8.57,1.65,.9,.14,2.17,.45,2.85,1.47,.51,.76,.6,1.77,.28,3.07-.41,1.68-.67,3.41-.95,5.23-.07,.45-.14,.91-.21,1.37h2.88c0-.73,.01-1.46,.02-2.18,.03-2.4,.05-4.89-.06-7.31-.05-.99,0-2.41,.95-3.36C87.67,0,89.11-.04,90.11,.01c2.75,.15,5.68,.15,9.22,0,.89-.04,2.16,.02,3.03,.88,.66,.65,.95,1.6,.9,2.97-.08,2.44-.06,4.85-.04,7.41,0,.76,0,1.52,.01,2.28h3.74c-.07-.42-.14-.83-.21-1.25-.31-1.83-.6-3.56-.96-5.3-.18-.88-.34-2.17,.39-3.2,.53-.75,1.43-1.21,2.73-1.39,3.04-.42,6.12-1.05,8.83-1.6,1.26-.26,2.24-.13,3,.39,.75,.52,1.21,1.4,1.41,2.68,.17,1.12,.4,2.26,.62,3.36,.33,1.66,.68,3.37,.85,5.09,.14,1.44,.44,1.69,2.1,1.69h.06c16.11-.05,32.5-.05,48.34-.04h12.73c4.86,0,5.31,.45,5.31,5.29v116.22c0,4.92-.46,5.38-5.49,5.38h-31.88c0,.6,0,1.2,0,1.79-.01,2.11-.02,4.11,.03,6.12,.03,1.25-.26,2.16-.88,2.78-.62,.62-1.52,.9-2.75,.86-1.95-.06-3.9-.04-5.98-.03-.54,0-1.08,0-1.64,0l.69,3.89c.65,3.64,1.28,7.17,1.92,10.7l.36,1.96c1.74,9.53,3.54,19.38,5.36,29.06,.22,1.18,.06,2.12-.49,2.79-.54,.67-1.43,1.02-2.62,1.05-2.09,.04-4.17,.06-6.26,.07-1.71,0-3.42,.02-5.13,.05-.03,0-.05,0-.08,0-2.54,0-2.91-2.04-3.13-3.26l-.02-.14c-2.18-11.93-4.36-23.86-6.55-35.79l-.62-3.37c-.12-.66-.25-1.33-.4-1.99-.58-2.57-.9-3.99-1.54-4.5-.65-.51-2.15-.51-4.87-.51h-16.96v12.44c0,8.85,0,17.7,0,26.55,0,4-.5,4.5-4.42,4.51-.92,0-1.89-.01-2.83-.02-2.03-.02-4.13-.05-6.17,.06-1.38,.07-2.34-.19-3.01-.83-.9-.85-1.01-2.16-1-3.2,.04-9.15,.04-18.46,.03-27.47v-11.82h-20.74l-4.1,22.9c-1.39,7.76-2.78,15.52-4.14,23.29-.37,2.13-1.54,3.17-3.58,3.17Zm-7.94-2.1c2.5,0,5.16,.02,7.81,.1,1.14,.04,1.52-.29,1.74-1.51,1.36-7.77,2.75-15.53,4.14-23.3l4.25-23.72c.08-.48,.5-.82,.98-.82h22.57c.55,0,1,.45,1,1v12.82c.01,9.01,.02,18.32-.03,27.48,0,.93,.12,1.5,.38,1.75,.24,.23,.76,.33,1.52,.28,2.11-.12,4.24-.09,6.3-.06,.94,.01,1.85,.02,2.81,.02,.92,0,2.06,0,2.27-.16,.16-.21,.16-1.39,.16-2.35,0-8.85,0-17.7,0-26.55v-13.44c0-.55,.45-1,1-1h17.96c6.57,0,6.96,.31,8.37,6.57,.15,.68,.29,1.37,.41,2.06l.62,3.37c2.19,11.93,4.37,23.86,6.55,35.79l.03,.14c.26,1.45,.39,1.63,1.21,1.61,1.72-.03,3.44-.04,5.15-.05,2.08-.01,4.15-.02,6.23-.07,.57-.01,.96-.12,1.11-.31,.15-.19,.18-.6,.08-1.16-1.82-9.68-3.62-19.54-5.36-29.07l-.36-1.96c-.65-3.53-1.27-7.07-1.92-10.71l-.9-5.06c-.05-.29,.03-.59,.22-.82,.19-.23,.47-.36,.77-.36,.97,0,1.91,0,2.82-.01,2.09-.01,4.07-.02,6.05,.03,.45,.01,1.02-.03,1.28-.28,.26-.26,.3-.86,.29-1.31-.05-2.04-.04-4.05-.03-6.18,0-.91,0-1.83,0-2.78,0-.55,.45-1,1-1h32.87c1.59,0,2.96,0,3.24-.26,.26-.25,.26-1.58,.26-3.11V19.3c0-1.5,0-2.8-.25-3.04-.25-.25-1.55-.25-3.06-.25h-12.73c-15.85,0-32.22-.01-48.33,.04h-.04c-1.96,0-3.81-.44-4.11-3.5-.16-1.63-.5-3.29-.82-4.89-.23-1.13-.46-2.29-.64-3.45-.11-.7-.3-1.15-.58-1.34-.28-.19-.76-.22-1.45-.07-2.75,.56-5.86,1.2-8.96,1.63-.71,.1-1.18,.29-1.37,.56-.2,.29-.22,.84-.06,1.64,.36,1.77,.66,3.52,.97,5.36,.13,.79,.27,1.6,.41,2.41,.05,.29-.03,.59-.22,.82-.19,.23-.47,.36-.77,.36h-5.92c-.55,0-1-.45-1-1,0-1.1,0-2.19-.01-3.27-.02-2.57-.04-5,.05-7.49,.02-.76-.08-1.26-.31-1.49-.24-.23-.75-.33-1.54-.3-3.61,.14-6.6,.14-9.41,0-.95-.05-1.58,.07-1.87,.35-.29,.28-.41,.9-.36,1.84,.12,2.48,.09,4.99,.07,7.43-.01,1.05-.02,2.11-.02,3.16,0,.55-.45,1-1,1h-5.06c-.29,0-.57-.13-.76-.35-.19-.22-.27-.52-.22-.81,.14-.85,.27-1.69,.39-2.5,.28-1.87,.55-3.64,.98-5.41,.12-.5,.22-1.16,0-1.49-.18-.27-.69-.48-1.5-.61-2.77-.44-5.69-1-8.69-1.67-.77-.17-1.31-.16-1.6,.05-.29,.2-.5,.67-.62,1.41-.4,2.51-.86,4.97-1.36,7.57-.21,1.11-.42,2.23-.63,3.37-.09,.47-.5,.82-.98,.82h-17.1c-14.85,0-30.2,.01-45.29-.04-1.08-.02-1.68,.12-1.96,.41-.27,.27-.4,.86-.4,1.77,.06,36.01,.06,74.79,.01,118.56,0,.97,.12,1.54,.38,1.8,.25,.25,.83,.38,1.69,.36,7.12-.09,14.36-.08,21.36-.06,2.63,0,5.26,.01,7.89,.01h2.9c.55,0,1,.45,1,1,0,.99,0,1.94,.02,2.86,.02,2.1,.03,4.08-.04,6.06-.02,.47,.01,1.09,.27,1.35,.21,.21,.71,.31,1.45,.28,2.22-.08,4.4-.06,6.71-.04,.98,0,1.97,.01,2.98,.01,.29,0,.57,.13,.76,.35,.19,.22,.27,.52,.22,.81l-.13,.78c-.06,.37-.1,.63-.15,.89l-1.93,10.55c-2.03,11.13-4.13,22.64-6.25,33.95-.16,.83-.13,1.43,.08,1.68,.2,.25,.74,.37,1.53,.37,.83,0,1.69,0,2.57,0Zm97.63-1.13c-1.24,0-2.5-.02-3.74-.08-.98-.05-2.2-1.15-2.38-2.13-2.59-14.21-5.16-28.67-7.63-42.66l-.2-1.12c-.05-.3-.02-.56,.02-.87,.02-.15,.04-.33,.06-.56,.04-.52,.48-.91,1-.91,.7,0,1.39,0,2.07-.01,1.92-.02,3.74-.03,5.59,.07,.99,.06,2.23,1.14,2.41,2.11,2.62,14.21,5.22,28.68,7.73,42.67l.2,1.09c.06,.31,0,.58-.04,.9-.03,.15-.06,.35-.09,.61-.06,.5-.49,.88-.99,.88-.66,0-1.32,0-1.98,.01-.66,0-1.33,0-2,0Zm-11.98-46.34v.02l.2,1.1c2.48,13.98,5.04,28.44,7.63,42.65,.06,.13,.41,.45,.58,.5,1.81,.09,3.72,.08,5.57,.06,.38,0,.76,0,1.14,0,0-.03,0-.06,0-.09l-.19-1.03c-2.51-13.99-5.1-28.45-7.73-42.66-.06-.12-.42-.44-.6-.48-1.74-.09-3.53-.08-5.42-.06-.4,0-.79,0-1.19,0Zm-78.2,46.13h-9.29c-.3,0-.58-.13-.77-.36-.19-.23-.27-.53-.22-.82l8.32-45.99c.09-.48,.5-.82,.98-.82h9.27c.3,0,.58,.13,.77,.36,.19,.23,.27,.53,.22,.82l-8.29,45.99c-.09,.48-.5,.82-.98,.82Zm-8.1-2h7.26l7.93-43.99h-7.24l-7.96,43.99Zm54.16-4.02h-8.61c-.55,0-1-.45-1-1v-39.98c0-.55,.45-1,1-1h8.61c.55,0,1,.45,1,1v39.98c0,.55-.45,1-1,1Zm-7.61-2h6.61v-37.98h-6.61v37.98Zm59.19-41.62H39.54c-.55,0-1-.45-1-1v-7.84c0-.55,.45-1,1-1h110.88c.55,0,1,.45,1,1v7.84c0,.55-.45,1-1,1Zm-109.88-2h108.88v-5.84H40.54v5.84Zm147.2-9.52H4.45c-.55,0-1-.45-1-1V18.27c0-.55,.45-1,1-1H187.74c.55,0,1,.45,1,1v118.12c0,.55-.45,1-1,1Zm-182.29-2H186.74V19.27H5.45v116.12ZM115.9,16.06c-2.17,0-3.69-.25-4.74-1.22-1.51-1.39-1.67-3.88-1.82-8.16-.02-.49,.32-.92,.81-1.02l7.63-1.5c.26-.05,.53,0,.75,.15,.22,.15,.37,.38,.42,.64l1.85,9.56c.1,.52-.23,1.04-.75,1.16-.3,.07-.51,.13-.65,.17-.26,.07-.42,.11-.63,.12-1.07,.05-2.02,.09-2.87,.09Zm-4.52-8.6c.12,3.08,.32,5.15,1.14,5.91,.85,.78,2.98,.75,6.14,.6l-1.48-7.65-5.81,1.14Zm-37.47,8.55c-.59,0-1.2,0-1.84,0-.67,0-1.37,0-2.11,0-.3,0-.58-.13-.77-.37-.19-.23-.27-.54-.21-.83l1.93-9.79c.11-.54,.62-.89,1.16-.79l7.91,1.43c.54,.1,.9,.62,.81,1.16l-.32,1.86c-.34,1.94-.65,3.78-1.07,5.64-.21,.95-1.49,1.61-2.27,1.64-1.06,.04-2.11,.06-3.22,.06Zm-2.73-2.01c.31,0,.61,0,.9,0,1.82,0,3.38,.02,4.97-.05,.1-.01,.32-.12,.43-.22,.39-1.77,.69-3.54,1.02-5.41l.15-.89-5.96-1.08-1.51,7.63Zm27.69,1.85h-8.72c-.55,0-1-.45-1-1V4.47c0-.55,.45-1,1-1h8.72c.55,0,1,.45,1,1V14.85c0,.55-.45,1-1,1Zm-7.72-2h6.72V5.47h-6.72V13.85Z"/>
      </g>
    </g>
  </g>
</svg>