<?xml version="1.0" encoding="UTF-8"?>
<svg id="Capa_2" data-name="Capa 2" xmlns="http://www.w3.org/2000/svg" viewBox="0 0 1742.68 148.22">
  <defs>
    <style>
      .cls-1 {
        fill: #f0f0e7;
      }
    </style>
  </defs>
  <g id="Site_mock_up" data-name="Site mock up">
    <g>
      <path class="cls-1" d="M29.06,118.71H0V9.49H64.55v23.68H29.06v20.84H61.78v23.68H29.06v41.01Z"/>
      <path class="cls-1" d="M121.15,32.57c10.71,0,19.07,2.65,25.1,7.96,6.03,5.3,9.04,12.86,9.04,22.67v55.51h-20.25l-5.6-11.21h-.6c-2.39,2.99-4.84,5.42-7.36,7.29-2.52,1.87-5.39,3.24-8.63,4.11-3.24,.87-7.2,1.31-11.88,1.31s-9.26-1-13.15-2.99c-3.88-1.99-6.95-5.01-9.19-9.04s-3.36-9.14-3.36-15.32c0-9.06,3.14-15.79,9.41-20.17s15.36-6.85,27.27-7.4l14.12-.45v-1.2c0-3.78-.93-6.47-2.8-8.07-1.87-1.59-4.37-2.39-7.51-2.39-3.34,0-7.06,.59-11.17,1.75-4.11,1.17-8.23,2.68-12.36,4.52l-8.44-19.27c4.88-2.49,10.41-4.38,16.58-5.68,6.17-1.29,13.1-1.94,20.77-1.94Zm5.08,48.33l-6.72,.3c-5.38,.2-9.15,1.13-11.32,2.8-2.17,1.67-3.25,4.05-3.25,7.13,0,2.89,.77,5.02,2.32,6.39,1.54,1.37,3.59,2.05,6.13,2.05,3.54,0,6.56-1.12,9.08-3.36,2.51-2.24,3.77-5.16,3.77-8.74v-6.57Z"/>
      <path class="cls-1" d="M237.15,92.71c0,5.38-1.2,10.13-3.59,14.27-2.39,4.13-6.21,7.37-11.47,9.71-5.26,2.34-12.17,3.51-20.73,3.51-6.03,0-11.42-.33-16.17-.97-4.76-.65-9.58-1.89-14.46-3.74v-23.38c5.33,2.44,10.76,4.2,16.29,5.27,5.53,1.07,9.89,1.61,13.07,1.61s5.69-.36,7.21-1.08c1.52-.72,2.28-1.8,2.28-3.25,0-1.24-.51-2.3-1.53-3.17-1.02-.87-2.84-1.88-5.45-3.03-2.61-1.15-6.29-2.69-11.02-4.63-4.68-1.94-8.58-4.06-11.69-6.35-3.11-2.29-5.44-5.03-6.98-8.22-1.54-3.19-2.32-7.1-2.32-11.73,0-8.27,3.19-14.49,9.56-18.68,6.37-4.18,14.82-6.28,25.33-6.28,5.58,0,10.83,.61,15.76,1.83s10.04,3,15.31,5.34l-7.99,18.83c-4.18-1.89-8.42-3.41-12.7-4.56-4.28-1.14-7.69-1.72-10.23-1.72-2.29,0-4.06,.3-5.3,.9-1.25,.6-1.87,1.47-1.87,2.61,0,1.05,.44,1.97,1.31,2.76,.87,.8,2.53,1.72,4.97,2.76,2.44,1.04,6,2.52,10.68,4.41,4.93,1.99,9,4.12,12.21,6.39,3.21,2.27,5.6,5.02,7.17,8.25,1.57,3.24,2.35,7.35,2.35,12.33Z"/>
      <path class="cls-1" d="M290.99,120.2c-8.57,0-16.01-1.53-22.34-4.6-6.33-3.06-11.22-7.79-14.68-14.19-3.46-6.4-5.19-14.61-5.19-24.62s1.93-18.65,5.79-25.18c3.86-6.52,9.15-11.33,15.88-14.42,6.72-3.09,14.34-4.63,22.86-4.63,5.18,0,10.1,.57,14.75,1.72,4.66,1.15,8.98,2.72,12.96,4.71l-8.59,21.59c-3.49-1.54-6.74-2.78-9.75-3.7-3.01-.92-6.14-1.38-9.38-1.38-2.94,0-5.53,.77-7.77,2.32-2.24,1.54-3.99,3.87-5.23,6.98-1.25,3.11-1.87,7.06-1.87,11.84s.64,8.82,1.9,11.8c1.27,2.99,3.04,5.16,5.31,6.5,2.27,1.35,4.87,2.02,7.81,2.02,4.23,0,8.45-.66,12.66-1.98,4.21-1.32,8.2-3.15,11.99-5.49v23.23c-3.49,2.29-7.42,4.11-11.8,5.45-4.38,1.34-9.49,2.02-15.32,2.02Z"/>
      <path class="cls-1" d="M348.87,0c4.18,0,7.83,.87,10.94,2.61,3.11,1.74,4.67,5.21,4.67,10.38s-1.56,8.43-4.67,10.2c-3.11,1.77-6.76,2.65-10.94,2.65s-7.93-.88-10.94-2.65c-3.01-1.77-4.52-5.17-4.52-10.2s1.51-8.64,4.52-10.38c3.01-1.74,6.66-2.61,10.94-2.61Zm14.49,34.07V118.71h-29.21V34.07h29.21Z"/>
      <path class="cls-1" d="M435.81,32.57c8.71,0,15.84,2.47,21.37,7.4,5.53,4.93,8.29,12.83,8.29,23.68v55.06h-29.21v-46.17c0-5.63-.81-9.87-2.43-12.74-1.62-2.86-4.22-4.3-7.81-4.3-5.53,0-9.24,2.25-11.13,6.76-1.89,4.51-2.84,10.97-2.84,19.39v37.05h-29.21V34.07h22.04l3.96,11.21h1.12c1.79-2.69,3.93-4.98,6.42-6.87,2.49-1.89,5.35-3.34,8.59-4.33,3.24-1,6.85-1.49,10.83-1.49Z"/>
      <path class="cls-1" d="M525.73,32.57c10.71,0,19.07,2.65,25.1,7.96,6.03,5.3,9.04,12.86,9.04,22.67v55.51h-20.25l-5.6-11.21h-.6c-2.39,2.99-4.84,5.42-7.36,7.29-2.52,1.87-5.39,3.24-8.63,4.11-3.24,.87-7.2,1.31-11.88,1.31s-9.26-1-13.15-2.99c-3.88-1.99-6.95-5.01-9.19-9.04s-3.36-9.14-3.36-15.32c0-9.06,3.14-15.79,9.41-20.17s15.36-6.85,27.27-7.4l14.12-.45v-1.2c0-3.78-.93-6.47-2.8-8.07-1.87-1.59-4.37-2.39-7.51-2.39-3.34,0-7.06,.59-11.17,1.75-4.11,1.17-8.23,2.68-12.36,4.52l-8.44-19.27c4.88-2.49,10.41-4.38,16.58-5.68,6.17-1.29,13.1-1.94,20.77-1.94Zm5.08,48.33l-6.72,.3c-5.38,.2-9.15,1.13-11.32,2.8-2.17,1.67-3.25,4.05-3.25,7.13,0,2.89,.77,5.02,2.32,6.39,1.54,1.37,3.59,2.05,6.13,2.05,3.54,0,6.56-1.12,9.08-3.36,2.51-2.24,3.77-5.16,3.77-8.74v-6.57Z"/>
      <path class="cls-1" d="M620.29,97.12c2.64,0,5.05-.27,7.25-.82,2.19-.55,4.48-1.24,6.87-2.09v21.29c-3.19,1.39-6.56,2.53-10.12,3.4-3.56,.87-8.11,1.31-13.63,1.31s-10.31-.86-14.49-2.58-7.43-4.71-9.75-8.96c-2.32-4.26-3.47-10.2-3.47-17.82V55.96h-10.24v-11.88l13-9.19,7.55-17.78h19.12v16.96h20.77v21.89h-20.77v32.95c0,2.74,.7,4.79,2.09,6.16,1.39,1.37,3.34,2.05,5.83,2.05Z"/>
      <path class="cls-1" d="M663.15,0c4.18,0,7.83,.87,10.94,2.61,3.11,1.74,4.67,5.21,4.67,10.38s-1.56,8.43-4.67,10.2c-3.11,1.77-6.76,2.65-10.94,2.65s-7.93-.88-10.94-2.65c-3.01-1.77-4.52-5.17-4.52-10.2s1.51-8.64,4.52-10.38c3.01-1.74,6.66-2.61,10.94-2.61Zm14.49,34.07V118.71h-29.21V34.07h29.21Z"/>
      <path class="cls-1" d="M777.96,76.2c0,7.07-.97,13.35-2.91,18.83-1.94,5.48-4.76,10.08-8.44,13.82-3.69,3.73-8.14,6.56-13.37,8.48-5.23,1.92-11.13,2.88-17.71,2.88-6.13,0-11.74-.96-16.85-2.88-5.11-1.92-9.55-4.74-13.33-8.48-3.79-3.74-6.71-8.34-8.78-13.82-2.07-5.48-3.1-11.75-3.1-18.83,0-9.36,1.71-17.28,5.12-23.76,3.41-6.47,8.29-11.4,14.64-14.79,6.35-3.39,13.93-5.08,22.75-5.08,8.12,0,15.34,1.69,21.67,5.08,6.32,3.39,11.29,8.32,14.9,14.79,3.61,6.47,5.42,14.39,5.42,23.76Zm-54.83,0c0,4.83,.42,8.9,1.27,12.21,.85,3.31,2.2,5.83,4.07,7.55,1.87,1.72,4.32,2.58,7.36,2.58s5.45-.86,7.25-2.58c1.79-1.72,3.1-4.23,3.92-7.55,.82-3.31,1.23-7.38,1.23-12.21s-.41-8.86-1.23-12.1c-.82-3.24-2.14-5.68-3.96-7.32-1.82-1.64-4.27-2.47-7.36-2.47-4.43,0-7.63,1.84-9.6,5.53s-2.95,9.14-2.95,16.36Z"/>
      <path class="cls-1" d="M846.66,32.57c8.71,0,15.84,2.47,21.37,7.4,5.53,4.93,8.29,12.83,8.29,23.68v55.06h-29.21v-46.17c0-5.63-.81-9.87-2.43-12.74-1.62-2.86-4.22-4.3-7.81-4.3-5.53,0-9.24,2.25-11.13,6.76-1.89,4.51-2.84,10.97-2.84,19.39v37.05h-29.21V34.07h22.04l3.96,11.21h1.12c1.79-2.69,3.93-4.98,6.42-6.87,2.49-1.89,5.35-3.34,8.59-4.33,3.24-1,6.85-1.49,10.83-1.49Z"/>
      <path class="cls-1" d="M960.83,104.37c0-4.48,1.21-8.95,3.62-13.41s5.54-8.08,9.38-10.87c3.83-2.79,7.74-4.18,11.73-4.18,4.18,0,7.56,1.38,10.12,4.15,2.56,2.77,3.85,6.34,3.85,10.72,0,4.78-1.18,9.41-3.55,13.9-2.37,4.48-5.48,8.16-9.34,11.02-3.86,2.86-7.76,4.29-11.69,4.29-4.23,0-7.65-1.43-10.24-4.29-2.59-2.86-3.88-6.64-3.88-11.32Zm31.97-16.44c0-2.99-.74-5.45-2.2-7.4-1.47-1.94-3.35-2.91-5.64-2.91-2.09,0-4.1,.67-6.01,2.02-1.92,1.34-3.67,3.31-5.27,5.9-1.79,2.99-3.28,6.47-4.44,10.46-1.17,3.98-1.76,7.52-1.76,10.61,0,3.69,.72,6.53,2.17,8.52,1.44,1.99,3.51,2.99,6.2,2.99,4.33,0,8.14-3.01,11.43-9.04,1.69-3.09,3.04-6.55,4.03-10.38,1-3.83,1.49-7.42,1.49-10.76Z"/>
      <path class="cls-1" d="M1066.02,78.82h-7.32l.52-2.54h7.4l7.02-32.8c1.2-5.43,2.42-9.76,3.66-13,1.24-3.24,2.74-6.03,4.48-8.37,4.28-5.73,9.61-8.59,15.99-8.59,2.14,0,4.11,.35,5.9,1.04l-2.69,6.8c-1.99-2.79-4.53-4.18-7.62-4.18-2.34,0-4.25,.91-5.72,2.73-1.47,1.82-2.73,4.82-3.77,9l-11.43,47.37h12.03l-.52,2.54h-12.1l-10.24,42.43c-1.34,5.68-2.65,9.91-3.92,12.7-1.27,2.79-3,5.38-5.19,7.77-3.98,4.33-8.34,6.5-13.07,6.5-2.29,0-4.33-.4-6.12-1.2l3.66-5.38c2.09,1.69,4.36,2.54,6.8,2.54,3.69,0,6.45-1.94,8.29-5.83,1.34-2.89,2.76-7.67,4.26-14.34l9.71-45.2Z"/>
      <path class="cls-1" d="M1177.5,23.76c12.04,0,21.05,2.62,27.05,7.86,6,5.24,9,12.69,9,22.34,0,4.33-.62,8.49-1.85,12.47-1.23,3.98-3.25,7.53-6.04,10.65-2.79,3.12-6.49,5.58-11.11,7.4-4.61,1.82-10.29,2.73-17.05,2.73h-7.21v31.5h-25.65V23.76h32.86Zm-.58,20.72h-6.62v21.82h5.07c2.21,0,4.26-.38,6.17-1.14,1.9-.76,3.43-1.99,4.58-3.7,1.15-1.71,1.72-3.99,1.72-6.85s-.89-5.42-2.66-7.31c-1.78-1.88-4.52-2.82-8.25-2.82Z"/>
      <path class="cls-1" d="M1246.36,118.71V23.76h25.65V97.99h36.56v20.72h-62.21Z"/>
      <path class="cls-1" d="M1399.71,118.71l-4.68-17.79h-30.85l-4.81,17.79h-28.18l30.98-95.33h34.22l31.37,95.33h-28.05Zm-10-38.84l-4.09-15.59c-.43-1.69-1.06-4.1-1.88-7.24s-1.63-6.39-2.43-9.74c-.8-3.35-1.42-6.11-1.85-8.28-.39,2.17-.94,4.84-1.66,8.02-.71,3.18-1.45,6.33-2.21,9.45-.76,3.12-1.42,5.71-1.98,7.79l-4.09,15.59h20.2Z"/>
      <path class="cls-1" d="M1546.12,118.71h-33.64l-34.68-66.89h-.58c.22,2.04,.41,4.48,.58,7.34,.17,2.86,.33,5.77,.45,8.74,.13,2.96,.2,5.64,.2,8.02v42.8h-22.73V23.76h33.51l34.55,65.98h.39c-.13-2.08-.26-4.49-.39-7.24-.13-2.75-.25-5.53-.36-8.35-.11-2.81-.16-5.3-.16-7.47V23.76h22.86V118.71Z"/>
      <path class="cls-1" d="M1626.21,118.71h-25.65V44.74h-23.18V23.76h71.96v20.98h-23.12V118.71Z"/>
      <path class="cls-1" d="M1742.68,89.88c0,5.15-1.3,10.03-3.9,14.64-2.6,4.61-6.63,8.34-12.11,11.2-5.48,2.86-12.54,4.29-21.2,4.29-4.33,0-8.13-.2-11.4-.58-3.27-.39-6.31-1.03-9.12-1.92-2.81-.89-5.74-2.05-8.77-3.47v-22.86c5.15,2.6,10.35,4.58,15.59,5.94,5.24,1.36,9.98,2.05,14.22,2.05,2.55,0,4.64-.3,6.27-.91,1.62-.61,2.82-1.44,3.6-2.5s1.17-2.28,1.17-3.67c0-1.64-.58-3.04-1.72-4.19s-2.98-2.35-5.49-3.61c-2.51-1.25-5.82-2.81-9.94-4.68-3.51-1.64-6.68-3.33-9.51-5.06-2.84-1.73-5.26-3.71-7.27-5.94-2.01-2.23-3.56-4.84-4.64-7.82-1.08-2.99-1.62-6.52-1.62-10.59,0-6.1,1.5-11.22,4.51-15.36,3.01-4.13,7.21-7.24,12.6-9.32,5.39-2.08,11.61-3.12,18.67-3.12,6.19,0,11.76,.69,16.72,2.08,4.96,1.39,9.41,2.97,13.35,4.74l-7.86,19.81c-4.07-1.86-8.07-3.34-12.01-4.45-3.94-1.1-7.6-1.66-10.97-1.66-2.21,0-4.02,.27-5.42,.81-1.41,.54-2.45,1.27-3.12,2.17-.67,.91-1.01,1.95-1.01,3.12,0,1.47,.57,2.79,1.72,3.96,1.15,1.17,3.07,2.44,5.78,3.8,2.71,1.36,6.4,3.13,11.07,5.29,4.63,2.08,8.57,4.32,11.82,6.72s5.72,5.28,7.44,8.64c1.71,3.36,2.57,7.5,2.57,12.44Z"/>
    </g>
  </g>
</svg>