<?xml version="1.0" encoding="UTF-8"?>
<svg id="Capa_2" data-name="Capa 2" xmlns="http://www.w3.org/2000/svg" viewBox="0 0 120 100.51">
  <defs>
    <style>
      .cls-1 {
        font-family: MyriadPro-Regular, 'Myriad Pro';
        font-size: 20.63px;
      }

      .cls-1, .cls-2 {
        fill: #98a664;
      }

      .cls-3 {
        letter-spacing: 0em;
      }

      .cls-4 {
        letter-spacing: 0em;
      }

      .cls-5 {
        letter-spacing: 0em;
      }

      .cls-6 {
        letter-spacing: -.05em;
      }

      .cls-7 {
        letter-spacing: 0em;
      }
    </style>
  </defs>
  <g id="Site_mock_up" data-name="Site mock up">
    <g>
      <g>
        <path class="cls-2" d="M.39,40.35c-.96-.34-.28-8.91,3.64-11.03,.53-.29,1.76-.8,2.87-2.1,.88-1.02,1.31-2.11,1.55-2.87,1.44-1.21,2.73-1.67,3.53-1.88,5.42-1.38,8.9,3.77,14.47,2.32,.88-.23,1.76-.61,2.76-.22,1.27,.49,1.79,1.83,2.76,4.99,1.47,4.77,2.24,8.13,2.76,12.56,.25,2.17,.22,2.68,0,2.76-.7,.26-3.39-3.87-4.97-8.38-.51-1.46-.61-2.73-1.66-4.3-.49-.73-1.46-2.19-3.2-2.98-2.02-.91-2.82,.09-5.3-.44-3.12-.67-3.37-2.6-5.52-2.76-1.15-.09-2.75,.34-6.4,4.41C2.39,36.31,1.09,40.59,.39,40.35Z"/>
        <path class="cls-2" d="M33.85,45.64c-.39-1.85-2.29-2.61-5.19-4.41-3.18-1.98-2.51-2.09-5.74-4.19-5.06-3.3-11.61-6.23-12.15-5.41-.28,.44,1.32,1.91,4.53,4.85,12.38,11.34,17.56,15.97,18.55,15.11,.17-.15,.03-.3,0-2.83-.03-2.54,.11-2.58,0-3.12Z"/>
        <path class="cls-2" d="M34.36,42.2c-.91-.34-3.07,1.67-2.87,3.42,.11,.94,.82,1.14,1.44,2.32,.58,1.1,.57,2.09,.44,4.3-.34,5.99-.7,7.51,.22,8.16,.55,.39,1.43,.38,1.92,.02,.58-.43,.77-1.44,.55-2.2-.02-.07-.04-.11-.04-.13-.39-1.09-.73-2.2-1.11-3.29-.47-1.37-.36-2.93-.22-4.98,.17-2.33,.57-3.34,.33-5.58-.19-1.79-.53-1.98-.66-2.03Z"/>
        <path class="cls-2" d="M32.96,44.47c-.79-.15,.46-3.54-.88-9.71-.94-4.29-2.57-7.34-.99-9.93,.46-.76,.93-1.03,1.33-2.1,.55-1.47,.36-2.8-.11-5.19-.59-2.97-.88-4.46-1.21-5.52C28.88,5.1,25.82,.19,26.12,0c.27-.16,2.59,3.77,6.63,9.05,5.06,6.61,7.01,7.72,7.62,11.25,.2,1.16,.22,2.39-1.55,8.61-1.62,5.72-4.49,15.82-5.85,15.56Z"/>
        <path class="cls-2" d="M32.85,43.99c-.6-.26-.11-2.06,0-5.96,.08-2.86-.14-2.75,0-3.53,.79-4.28,7.59-6.52,11.26-7.72,2.09-.69,6.38-1.89,11.93-1.88,2.53,0,7.47,.28,12.81,2.43,1.26,.51,3.63,1.56,3.53,1.88-.1,.31-2.51-.18-3.64-.44-1.98-.46-2.39-.86-3.64-1.1-1.82-.35-3.25,0-4.64,.33-6.03,1.39-3.77,.38-10.49,2.1-9.07,2.32-10.39,3.45-11.04,4.08-1.49,1.45-2.87,2.79-3.2,4.84-.17,1.07-.03,2.11-.77,3.33-.54,.89-1.57,1.89-2.1,1.65Z"/>
      </g>
      <g>
        <polyline class="cls-2" points="33.72 59.98 21.69 66.27 21.69 81.16 15.17 84.25 15.17 95.29"/>
        <polyline class="cls-2" points="34.72 59.98 44.66 65.83 44.66 81.72 49.51 84.81"/>
        <polyline class="cls-2" points="34.72 60.76 34.72 79.73 40.35 83.04 40.35 92.42"/>
        <circle class="cls-2" cx="15.17" cy="98.23" r="2.28"/>
        <circle class="cls-2" cx="28.42" cy="79.92" r="2.28"/>
        <circle class="cls-2" cx="40.35" cy="94.78" r="2.28"/>
        <circle class="cls-2" cx="51.94" cy="85.3" r="2.28"/>
      </g>
      <text class="cls-1" transform="translate(49.51 59.35)"><tspan x="0" y="0">Ba</tspan><tspan class="cls-4" x="21.12" y="0">rr</tspan><tspan class="cls-7" x="34.78" y="0">ier</tspan><tspan x="0" y="24.75" xml:space="preserve">      </tspan><tspan class="cls-6" x="26.24" y="24.75">F</tspan><tspan class="cls-5" x="35.36" y="24.75">a</tspan><tspan class="cls-3" x="45.22" y="24.75">t</tspan><tspan x="51.92" y="24.75">es</tspan></text>
    </g>
  </g>
</svg>