<?xml version="1.0" encoding="UTF-8"?>
<svg id="Capa_2" data-name="Capa 2" xmlns="http://www.w3.org/2000/svg" viewBox="0 0 119.42 100.42">
  <defs>
    <style>
      .cls-1, .cls-2 {
        fill: #93a164;
      }

      .cls-2 {
        stroke: #94a164;
        stroke-miterlimit: 10;
        stroke-width: .5px;
      }
    </style>
  </defs>
  <g id="Site_mock_up" data-name="Site mock up">
    <g>
      <path class="cls-1" d="M51.33,45.88c.78-.17,2.02-.29,3.28-.29,1.8,0,2.95,.31,3.82,1.01,.72,.54,1.16,1.36,1.16,2.46,0,1.34-.89,2.52-2.35,3.05v.04c1.32,.33,2.87,1.42,2.87,3.49,0,1.2-.48,2.1-1.18,2.79-.97,.89-2.54,1.3-4.81,1.3-1.24,0-2.19-.08-2.79-.17v-13.68Zm1.8,5.69h1.63c1.9,0,3.01-.99,3.01-2.33,0-1.63-1.24-2.27-3.06-2.27-.83,0-1.3,.06-1.59,.12v4.48Zm0,6.66c.35,.06,.87,.08,1.51,.08,1.86,0,3.57-.68,3.57-2.7,0-1.9-1.63-2.68-3.59-2.68h-1.49v5.3Z"/>
      <path class="cls-1" d="M67.99,59.6l-.14-1.26h-.06c-.56,.78-1.63,1.49-3.06,1.49-2.02,0-3.06-1.42-3.06-2.87,0-2.41,2.15-3.73,6.01-3.71v-.21c0-.83-.23-2.31-2.27-2.31-.93,0-1.9,.29-2.6,.74l-.41-1.2c.83-.54,2.02-.89,3.28-.89,3.06,0,3.8,2.08,3.8,4.08v3.73c0,.87,.04,1.71,.17,2.39h-1.65Zm-.27-5.1c-1.98-.04-4.23,.31-4.23,2.25,0,1.18,.78,1.73,1.71,1.73,1.3,0,2.13-.83,2.42-1.67,.06-.19,.1-.39,.1-.58v-1.73Z"/>
      <path class="cls-1" d="M72.41,52.73c0-1.18-.02-2.19-.08-3.11h1.59l.06,1.96h.08c.45-1.34,1.55-2.19,2.77-2.19,.21,0,.35,.02,.52,.06v1.71c-.19-.04-.37-.06-.62-.06-1.28,0-2.19,.97-2.44,2.33-.04,.25-.08,.54-.08,.85v5.32h-1.8v-6.87Z"/>
      <path class="cls-1" d="M79.25,52.73c0-1.18-.02-2.19-.08-3.11h1.59l.06,1.96h.08c.45-1.34,1.55-2.19,2.77-2.19,.21,0,.35,.02,.52,.06v1.71c-.19-.04-.37-.06-.62-.06-1.28,0-2.19,.97-2.44,2.33-.04,.25-.08,.54-.08,.85v5.32h-1.8v-6.87Z"/>
      <path class="cls-1" d="M88.1,46.81c.02,.62-.43,1.11-1.16,1.11-.64,0-1.09-.5-1.09-1.11s.48-1.13,1.14-1.13,1.11,.5,1.11,1.13Zm-2.02,12.79v-9.98h1.82v9.98h-1.82Z"/>
      <path class="cls-1" d="M91.92,54.94c.04,2.46,1.61,3.47,3.43,3.47,1.3,0,2.08-.23,2.77-.52l.31,1.3c-.64,.29-1.73,.62-3.32,.62-3.08,0-4.91-2.02-4.91-5.03s1.78-5.38,4.69-5.38c3.26,0,4.13,2.87,4.13,4.7,0,.37-.04,.66-.06,.85h-7.02Zm5.33-1.3c.02-1.16-.48-2.95-2.52-2.95-1.84,0-2.64,1.69-2.79,2.95h5.31Z"/>
      <path class="cls-1" d="M101.25,52.73c0-1.18-.02-2.19-.08-3.11h1.59l.06,1.96h.08c.45-1.34,1.55-2.19,2.77-2.19,.21,0,.35,.02,.52,.06v1.71c-.19-.04-.37-.06-.62-.06-1.28,0-2.19,.97-2.44,2.33-.04,.25-.08,.54-.08,.85v5.32h-1.8v-6.87Z"/>
      <path class="cls-1" d="M77.59,70.45h7.49v1.51h-5.7v4.62h5.26v1.49h-5.26v6.29h-1.8v-13.9Z"/>
      <path class="cls-1" d="M92.19,84.35l-.14-1.26h-.06c-.56,.78-1.63,1.49-3.06,1.49-2.02,0-3.06-1.42-3.06-2.87,0-2.41,2.15-3.73,6.01-3.71v-.21c0-.83-.23-2.31-2.27-2.31-.93,0-1.9,.29-2.6,.74l-.41-1.2c.83-.54,2.02-.89,3.28-.89,3.06,0,3.8,2.08,3.8,4.08v3.73c0,.87,.04,1.71,.17,2.39h-1.65Zm-.27-5.1c-1.98-.04-4.23,.31-4.23,2.25,0,1.18,.78,1.73,1.71,1.73,1.3,0,2.13-.83,2.42-1.67,.06-.19,.1-.39,.1-.58v-1.73Z"/>
      <path class="cls-1" d="M98.71,71.5v2.87h2.6v1.38h-2.6v5.38c0,1.24,.35,1.94,1.36,1.94,.47,0,.83-.06,1.05-.12l.08,1.36c-.35,.14-.91,.25-1.61,.25-.85,0-1.53-.27-1.96-.76-.52-.54-.7-1.42-.7-2.6v-5.45h-1.55v-1.38h1.55v-2.39l1.78-.47Z"/>
      <path class="cls-1" d="M104.25,79.69c.04,2.46,1.61,3.47,3.43,3.47,1.3,0,2.08-.23,2.77-.52l.31,1.3c-.64,.29-1.73,.62-3.32,.62-3.08,0-4.91-2.02-4.91-5.03s1.78-5.38,4.69-5.38c3.26,0,4.13,2.87,4.13,4.7,0,.37-.04,.66-.06,.85h-7.02Zm5.33-1.3c.02-1.16-.48-2.95-2.52-2.95-1.84,0-2.64,1.69-2.79,2.95h5.31Z"/>
      <path class="cls-1" d="M113.33,82.5c.54,.35,1.49,.72,2.4,.72,1.32,0,1.94-.66,1.94-1.49,0-.87-.52-1.34-1.86-1.84-1.8-.64-2.64-1.63-2.64-2.83,0-1.61,1.3-2.93,3.45-2.93,1.01,0,1.9,.29,2.46,.62l-.45,1.32c-.39-.25-1.11-.58-2.04-.58-1.07,0-1.67,.62-1.67,1.36,0,.83,.6,1.2,1.9,1.69,1.73,.66,2.62,1.53,2.62,3.01,0,1.75-1.36,2.99-3.74,2.99-1.09,0-2.11-.27-2.81-.68l.45-1.38Z"/>
    </g>
    <g>
      <path class="cls-2" d="M69.1,27.58c-5.34-2.15-10.28-2.42-12.81-2.43-5.54-.02-9.83,1.19-11.93,1.88-1.45,.48-3.39,1.12-5.26,1.98,1.72-6.08,1.7-7.3,1.5-8.45-.6-3.53-2.56-4.64-7.62-11.25C28.95,4.03,26.63,.09,26.37,.25c-.3,.19,2.76,5.1,4.97,12.03,.34,1.06,.63,2.54,1.21,5.52,.47,2.39,.66,3.72,.11,5.19-.4,1.07-.86,1.34-1.33,2.1-.22,.35-.37,.72-.47,1.09-.39-.7-.82-1.12-1.41-1.35-1-.39-1.88,0-2.76,.22-5.57,1.45-9.04-3.7-14.47-2.32-.81,.21-2.09,.67-3.53,1.88-.23,.76-.67,1.84-1.55,2.87-1.11,1.29-2.34,1.81-2.87,2.1C.36,31.69-.32,40.26,.64,40.6c.7,.25,2-4.04,7.29-9.93,3.65-4.07,5.25-4.5,6.4-4.41,2.15,.16,2.4,2.08,5.52,2.76,2.48,.53,3.28-.47,5.3,.44,1.74,.79,2.72,2.25,3.2,2.98,1.05,1.58,1.14,2.84,1.66,4.3,.79,2.26,1.86,4.43,2.82,5.99-.01,.22-.02,.42-.02,.6-.11,.12-.22,.25-.32,.38-.89-.66-2.11-1.31-3.59-2.23-3.18-1.98-2.51-2.09-5.74-4.19-5.06-3.3-11.61-6.23-12.15-5.41-.28,.44,1.32,1.92,4.53,4.85,11.12,10.18,16.41,14.94,18.1,15.19,0,.18-.02,.37-.03,.57-.32,5.59-.65,7.29,.06,8.02l-11.2,5.53v14.47l-5.51,3.03v11.35c-1.37,.09-2.46,1.23-2.46,2.63s1.18,2.64,2.64,2.64,2.64-1.18,2.64-2.64-1.09-2.54-2.46-2.63v-11.14l5.51-3.03v-14.46l5.72-2.83,.04,14.28h.35s-.04-14.45-.04-14.45l5.11-2.53c.28,.15,.6,.21,.92,.19h0s-.34,18.68-.34,18.68l5.51,3.66v7.93c-1.37,.09-2.46,1.23-2.46,2.63s1.18,2.64,2.64,2.64,2.64-1.18,2.64-2.64-1.09-2.54-2.46-2.63v-8.12l-5.51-3.66,.33-18.27,9.56,5.93-.61,14.87,4.12,2.76c0,.05,0,.11,0,.16,0,1.46,1.18,2.64,2.64,2.64s2.64-1.18,2.64-2.64-1.18-2.64-2.64-2.64c-1.27,0-2.33,.9-2.58,2.09l-3.81-2.56,.61-14.88-9.77-6.06c.11-.04,.23-.09,.32-.15,.58-.43,.77-1.44,.55-2.2-.02-.07-.04-.11-.04-.13-.39-1.09-.73-2.2-1.11-3.29-.47-1.37-.36-2.93-.22-4.98,.17-2.33,.57-3.34,.33-5.58-.05-.5-.12-.87-.19-1.15-.01-.15-.03-.32-.05-.5,.06-.08,.12-.17,.17-.25,.7-1.15,.62-2.14,.75-3.14,.22-.63,.44-1.3,.65-1.98,.62-1.13,1.56-2.06,2.57-3.04,.65-.63,1.98-1.77,11.04-4.08,6.72-1.72,4.46-.7,10.49-2.1,1.39-.32,2.82-.68,4.64-.33,1.26,.24,1.67,.64,3.64,1.1,1.13,.26,3.55,.75,3.64,.44,.1-.32-2.28-1.37-3.53-1.88ZM19.43,97.53c0,1.26-1.03,2.29-2.29,2.29s-2.29-1.03-2.29-2.29,1.03-2.29,2.29-2.29,2.29,1.03,2.29,2.29Zm23.14-3.7c0,1.26-1.03,2.29-2.29,2.29s-2.29-1.03-2.29-2.29,1.03-2.29,2.29-2.29,2.29,1.03,2.29,2.29Zm8.41-11.24c1.26,0,2.29,1.03,2.29,2.29s-1.03,2.29-2.29,2.29-2.29-1.03-2.29-2.29,1.03-2.29,2.29-2.29Z"/>
      <path class="cls-2" d="M28.76,77.73c-1.46,0-2.64,1.18-2.64,2.64s1.18,2.64,2.64,2.64,2.64-1.18,2.64-2.64-1.18-2.64-2.64-2.64Zm0,4.93c-1.26,0-2.29-1.03-2.29-2.29s1.03-2.29,2.29-2.29,2.29,1.03,2.29,2.29-1.03,2.29-2.29,2.29Z"/>
    </g>
  </g>
</svg>