<?xml version="1.0" encoding="UTF-8"?>
<svg id="Capa_2" data-name="Capa 2" xmlns="http://www.w3.org/2000/svg" viewBox="0 0 206.01 83.37">
  <defs>
    <style>
      .cls-1 {
        fill: #93a164;
      }
    </style>
  </defs>
  <g id="Site_mock_up" data-name="Site mock up">
    <g>
      <g>
        <path class="cls-1" d="M0,38.91c.17-1.49,.27-2.99,.51-4.47C2.59,21.65,8.69,11.44,19.95,4.63,23.94,2.22,28.31,.77,32.92,.07c.25-.04,.51-.03,.76-.03,2.44,0,4.88,.08,7.31-.02,3.21-.13,6.28,.48,9.29,1.48,8.77,2.92,15.55,8.35,20.45,16.16,3.79,6.04,5.91,12.66,6.72,19.71,.8,6.93,.31,13.77-2.06,20.35-4.51,12.51-13.07,20.89-25.94,24.67-1.27,.37-2.6,.56-3.91,.84-.14,.03-.27,.09-.4,.14h-10.3c-.12-.04-.23-.1-.35-.12-6.92-1.07-13.09-3.84-18.49-8.25C7.01,67.66,1.91,58.14,.36,46.68c-.15-1.11-.24-2.22-.36-3.33,0-1.48,0-2.96,0-4.45Zm48.55-8.92c5.64-5.77,11.21-11.47,16.88-17.28-1.79-1.6-3.57-3.18-5.41-4.81-4.59,6.99-9.08,13.83-13.58,20.67-.9-.49-1.73-.94-2.64-1.44,3.12-7.67,6.23-15.32,9.39-23.11-1.73-.6-3.43-1.18-5.22-1.8-1.99,8.12-3.95,16.13-5.9,24.11-.53,0-.51-.26-.44-.6,1.61-7.72,3.22-15.45,4.82-23.17,.04-.2,.07-.4,.1-.64-.54-.1-1.01-.19-1.53-.28-1.33,8.16-2.66,16.26-3.99,24.4-.79-.23-1.51-.45-2.26-.67,.12-8.12,.24-16.2,.36-24.21h-4.35c.78,8.02,1.54,15.91,2.32,23.86-.48-.08-.87-.19-1.26-.21-.53-.02-.75-.25-.87-.78-1.62-7.09-3.26-14.18-4.89-21.27-.05-.22-.12-.43-.19-.7-1.25,.39-2.43,.76-3.65,1.15,2.45,7.12,4.86,14.15,7.27,21.18-.1,.04-.2,.07-.3,.11-2.57-6.98-5.03-14-7.66-21.02-.42,.17-.79,.31-1.2,.47,2.75,6.84,5.48,13.62,8.21,20.41-.81,.12-1.28-.08-1.65-.84-2.85-5.93-5.76-11.83-8.66-17.73-.1-.2-.21-.39-.38-.68-1.47,.92-2.87,1.79-4.3,2.68,3.66,5.54,7.25,10.96,10.84,16.39-.04,.05-.07,.11-.11,.16-1.37-.13-2.74-.23-4.1-.41-.34-.04-.74-.23-.97-.48-2.25-2.36-4.47-4.75-6.7-7.13-1.29-1.37-2.58-2.74-3.91-4.15-.3,.34-.58,.65-.83,.94,3.46,3.53,6.86,7.01,10.25,10.48-2.43-.46-4.79-1.28-7.06-2.4-2.27-1.13-4.18-2.76-6.11-4.45-.62,1.01-1.19,1.91-1.77,2.85,.62,.43,1.2,.79,1.71,1.22,.27,.22,.5,.56,.61,.89,.86,2.72,1.64,5.46,2.55,8.17,.45,1.33,1.13,2.59,1.74,3.96-3.73-.97-7.41-1.93-11.16-2.91-.22,1.12-.43,2.19-.65,3.29,.19,.06,.33,.11,.46,.13,4.07,.68,8.15,1.37,12.22,2.02,.45,.07,.71,.26,.94,.63,1.26,2.02,2.71,3.89,4.51,5.47,.08,.07,.14,.17,.26,.32-6.27,.9-12.44,1.79-18.68,2.69,.06,.48,.11,.9,.16,1.34,.18-.02,.29-.02,.39-.04,6.06-1.1,12.13-2.19,18.18-3.33,.83-.16,1.23,.3,1.88,.77-6.78,1.62-13.43,3.2-20.11,4.8,.17,.8,.33,1.51,.49,2.25,.19-.05,.29-.08,.39-.11,6.34-1.92,12.69-3.82,19.02-5.78,.97-.3,1.78-.37,2.66,.25,.62,.44,1.36,.71,2.17,1.12-7.34,3.93-14.55,7.79-21.85,11.69,.61,1.24,1.21,2.46,1.83,3.71,.23-.14,.38-.21,.51-.31,6.79-4.67,13.58-9.32,20.35-14.01,.58-.4,1.07-.52,1.73,0-7.01,5.6-14,11.18-21.05,16.8,.69,.94,1.37,1.87,2.08,2.84,.9-.84,1.75-1.61,2.58-2.4,5.75-5.51,11.49-11.03,17.23-16.55,.33-.31,.61-.49,1.03-.05-6.47,6.88-12.94,13.76-19.46,20.68,.71,.75,1.45,1.52,2.2,2.32,.13-.14,.2-.21,.27-.3,3.79-4.72,7.59-9.44,11.37-14.17,2.13-2.66,4.24-5.34,6.37-8,.12-.15,.33-.36,.47-.34,.59,.09,1.18,.25,1.85,.4-4.84,9.06-9.64,18.03-14.49,27.08,1.22,.72,2.41,1.42,3.65,2.15,.14-.29,.24-.48,.32-.67,2.65-6.48,5.3-12.96,7.96-19.44,1.15-2.8,2.29-5.6,3.45-8.39,.08-.19,.32-.47,.47-.46,.71,.05,1.41,.18,2.14,.29-1.55,10.7-3.09,21.33-4.63,32.01,.65,.1,1.2,.19,1.83,.29,1.1-10.8,2.18-21.52,3.28-32.28,.39,.03,.69,.05,1.06,.08,.08,10.87,.16,21.67,.25,32.46h2.64c-.77-10.85-1.53-21.62-2.29-32.37,.58-.15,.57,.17,.61,.48,.34,2.77,.68,5.55,1.02,8.32,.79,6.36,1.58,12.73,2.38,19.09,.18,1.4,.36,2.8,.56,4.3,1.28-.25,2.49-.48,3.72-.72-2.29-10.54-4.55-20.96-6.82-31.38,.09-.04,.19-.07,.28-.11,.1,.2,.24,.39,.29,.6,2.24,8.93,4.47,17.85,6.7,26.78,.31,1.22,.62,2.44,.95,3.74,1.51-.55,2.95-1.07,4.4-1.59-3.72-9.83-7.39-19.53-11.06-29.23,.05-.05,.1-.1,.15-.15,.77,.21,1.53,.43,2.3,.61,.53,.13,.89,.41,1.19,.86,3.9,5.85,7.81,11.69,11.7,17.54,.18,.27,.28,.67,.27,1-.09,2.57-.7,5.02-1.72,7.37-.08,.18-.15,.36-.26,.65,2.69-1.36,5.15-2.76,5.88-6.02,.41,.53,.69,.89,.98,1.27,.76-.72,1.47-1.41,2.2-2.1-.61-.7-1.19-1.35-1.75-2.01-.11-.13-.26-.34-.23-.48,.2-1.22,.43-2.44,.69-3.86,1.19,1.31,2.3,2.52,3.5,3.83,.64-.88,1.13-1.55,1.63-2.24-1.6-1.38-3.12-2.68-4.63-4.01-.22-.2-.49-.47-.52-.73-.21-1.91-.36-3.82-.54-5.78,2.83,1.8,5.69,3.61,8.59,5.45,.27-.62,.54-1.21,.81-1.82-.23-.15-.42-.27-.62-.39-2.83-1.63-5.65-3.25-8.48-4.87-.27-.16-.68-.29-.76-.53-.28-.75-.43-1.54-.66-2.43,3.91,1.87,7.68,3.68,11.51,5.51,.14-.44,.25-.82,.38-1.23-.19-.1-.35-.19-.52-.26-3.74-1.65-7.47-3.3-11.2-4.96-.22-.1-.5-.24-.58-.44-.49-1.23-.93-2.48-1.42-3.81,4.99,1.41,9.9,2.79,14.91,4.2,.13-1.11,.26-2.15,.39-3.21-.29-.06-.49-.11-.7-.15-4.99-.97-9.98-1.93-14.96-2.91-.28-.05-.66-.11-.79-.3-.43-.64-.76-1.35-1.19-2.13,6.01,.42,11.89,.83,17.87,1.25-.11-1.71-.21-3.33-.31-4.96-.27,0-.44,0-.6,0-6.03,.37-12.05,.75-18.08,1.12-.18,.01-.44,.02-.53-.08-.39-.48-.74-.99-1.16-1.58,6.67-1.02,13.22-2.02,19.86-3.03-.14-.66-.27-1.26-.4-1.89-.22,.03-.37,.04-.51,.07-6.09,1.26-12.2,2.5-18.28,3.82-1,.22-1.59,.05-2.16-.77-.52-.75-1.19-1.4-1.84-2.15,6.66-3.31,13.25-6.59,19.9-9.89-.7-1.36-1.36-2.64-2.03-3.95-.22,.13-.33,.19-.43,.26-6.08,4.01-12.17,8.01-18.25,12.03-.46,.3-.74,.3-1.01-.24,6.26-4.46,12.51-8.92,18.81-13.4-.49-.72-.95-1.39-1.45-2.12-6.08,5.02-12.08,9.98-18.12,14.97-.38-.31-.77-.62-1.28-1.03Z"/>
        <path class="cls-1" d="M58.49,66.69c-3.77-5.17-7.44-10.2-11.11-15.24,.04-.05,.08-.1,.12-.14,2.4,1.05,4.52,2.52,6.34,4.44,2.6,2.74,4.62,7.44,4.64,10.94Z"/>
      </g>
      <g>
        <path class="cls-1" d="M85.64,36.82h-1.58V19.05h7.55v1.82h-5.97v6.51h5.61v1.81h-5.61v7.62Z"/>
        <path class="cls-1" d="M97.44,23.28c1.21,0,2.11,.36,2.7,1.07,.59,.71,.88,1.85,.88,3.42v9.05h-1.12l-.3-1.97h-.07c-.28,.49-.58,.89-.89,1.22s-.67,.58-1.07,.74c-.41,.17-.9,.25-1.49,.25-.62,0-1.17-.14-1.65-.43-.48-.28-.86-.71-1.13-1.29-.28-.58-.41-1.3-.41-2.19,0-1.33,.4-2.35,1.21-3.06s2.03-1.1,3.67-1.17l1.75-.1v-.81c0-1.15-.19-1.96-.57-2.42s-.91-.69-1.6-.69c-.53,0-1.04,.1-1.52,.3-.48,.2-.94,.44-1.37,.72l-.47-1.53c.46-.31,.98-.57,1.58-.79s1.22-.33,1.88-.33Zm2.06,6.98l-1.55,.08c-1.27,.06-2.16,.34-2.68,.81-.52,.48-.78,1.15-.78,2.03,0,.76,.18,1.32,.53,1.69,.35,.36,.82,.55,1.4,.55,.9,0,1.64-.33,2.22-.98s.86-1.64,.86-2.95v-1.23Z"/>
        <path class="cls-1" d="M110.77,33.17c0,.85-.16,1.57-.49,2.15-.32,.58-.79,1.01-1.39,1.31-.6,.29-1.32,.44-2.16,.44-.71,0-1.33-.07-1.85-.22s-.97-.35-1.36-.62v-1.86c.42,.27,.91,.51,1.48,.73,.58,.22,1.16,.33,1.76,.33,.88,0,1.51-.19,1.91-.56,.4-.37,.59-.88,.59-1.52,0-.37-.08-.69-.24-.97-.16-.28-.42-.55-.79-.81-.37-.26-.88-.55-1.54-.87-.65-.32-1.21-.65-1.68-.97-.47-.32-.84-.71-1.09-1.17-.26-.46-.38-1.06-.38-1.8,0-1.13,.35-1.99,1.04-2.59,.7-.6,1.61-.91,2.74-.91,.61,0,1.19,.08,1.72,.24,.53,.16,1.03,.37,1.5,.64l-.52,1.62c-.42-.24-.87-.43-1.35-.6-.48-.16-.96-.24-1.46-.24-.71,0-1.26,.15-1.64,.46-.38,.31-.57,.73-.57,1.26,0,.41,.09,.75,.26,1.02,.18,.27,.46,.52,.85,.75,.39,.24,.9,.51,1.54,.83,.64,.31,1.19,.63,1.65,.95s.82,.73,1.07,1.19c.25,.47,.38,1.06,.38,1.79Z"/>
        <path class="cls-1" d="M117.32,37.06c-.92,0-1.72-.25-2.42-.74-.7-.49-1.24-1.25-1.63-2.26-.39-1.01-.58-2.29-.58-3.83s.21-2.93,.62-3.96c.41-1.03,.98-1.78,1.7-2.28s1.55-.74,2.47-.74c.51,0,1,.07,1.47,.2,.47,.13,.86,.3,1.16,.5l-.46,1.69c-.31-.16-.67-.31-1.07-.44-.41-.13-.78-.19-1.14-.19-.71,0-1.29,.2-1.76,.6-.47,.4-.82,.98-1.05,1.75-.23,.77-.35,1.72-.35,2.84s.11,2,.34,2.76c.23,.76,.56,1.34,1.01,1.74,.45,.4,1.01,.6,1.68,.6,.54,0,1.02-.08,1.46-.22,.43-.15,.83-.33,1.18-.53v1.8c-.34,.23-.72,.4-1.14,.52-.42,.12-.91,.18-1.49,.18Z"/>
        <path class="cls-1" d="M123.14,18.52c.25,0,.47,.11,.65,.32,.18,.21,.27,.55,.27,1s-.09,.78-.27,1c-.18,.22-.4,.33-.65,.33s-.49-.11-.66-.33c-.18-.22-.26-.55-.26-1s.09-.79,.26-1c.18-.21,.4-.32,.66-.32Zm.75,4.98v13.32h-1.54v-13.32h1.54Z"/>
        <path class="cls-1" d="M131.96,23.25c1.21,0,2.12,.39,2.74,1.16,.62,.77,.93,2.02,.93,3.72v8.68h-1.52v-8.54c0-1.11-.19-1.94-.58-2.49-.39-.55-.98-.83-1.78-.83-1.12,0-1.92,.42-2.38,1.25-.46,.83-.69,2.05-.69,3.63v6.98h-1.54v-13.32h1.24l.23,1.92h.08c.22-.47,.49-.87,.83-1.19,.33-.32,.71-.56,1.12-.73,.41-.17,.85-.25,1.31-.25Z"/>
        <path class="cls-1" d="M142.61,23.28c1.21,0,2.11,.36,2.7,1.07,.59,.71,.88,1.85,.88,3.42v9.05h-1.12l-.3-1.97h-.07c-.28,.49-.58,.89-.89,1.22s-.67,.58-1.07,.74c-.41,.17-.9,.25-1.49,.25-.62,0-1.17-.14-1.65-.43-.48-.28-.86-.71-1.13-1.29-.28-.58-.41-1.3-.41-2.19,0-1.33,.4-2.35,1.21-3.06s2.03-1.1,3.67-1.17l1.75-.1v-.81c0-1.15-.19-1.96-.57-2.42s-.91-.69-1.6-.69c-.53,0-1.04,.1-1.52,.3-.48,.2-.94,.44-1.37,.72l-.47-1.53c.46-.31,.98-.57,1.58-.79s1.22-.33,1.88-.33Zm2.06,6.98l-1.55,.08c-1.27,.06-2.16,.34-2.68,.81-.52,.48-.78,1.15-.78,2.03,0,.76,.18,1.32,.53,1.69,.35,.36,.82,.55,1.4,.55,.9,0,1.64-.33,2.22-.98s.86-1.64,.86-2.95v-1.23Z"/>
        <path class="cls-1" d="M152.64,35.41c.25,0,.51-.03,.78-.08,.27-.06,.48-.12,.65-.21v1.57c-.18,.11-.43,.19-.75,.27-.32,.07-.63,.11-.93,.11-.54,0-1.03-.12-1.47-.37s-.79-.67-1.05-1.26c-.26-.59-.39-1.41-.39-2.46v-7.9h-1.45v-.98l1.46-.79,.61-2.89h.93v3.09h2.98v1.58h-2.98v7.84c0,.83,.15,1.46,.44,1.87,.29,.41,.68,.62,1.17,.62Z"/>
        <path class="cls-1" d="M156.92,18.52c.25,0,.47,.11,.65,.32,.18,.21,.27,.55,.27,1s-.09,.78-.27,1c-.18,.22-.4,.33-.65,.33s-.49-.11-.66-.33c-.18-.22-.26-.55-.26-1s.09-.79,.26-1c.18-.21,.4-.32,.66-.32Zm.75,4.98v13.32h-1.54v-13.32h1.54Z"/>
        <path class="cls-1" d="M169.7,30.13c0,1.09-.11,2.07-.32,2.93-.22,.86-.53,1.58-.94,2.18-.41,.59-.9,1.04-1.48,1.36-.58,.31-1.23,.47-1.96,.47-.68,0-1.3-.16-1.87-.47-.57-.31-1.05-.76-1.47-1.36-.41-.59-.73-1.32-.96-2.18-.23-.86-.34-1.83-.34-2.93,0-1.46,.19-2.7,.57-3.72,.38-1.03,.92-1.81,1.62-2.35s1.54-.81,2.51-.81,1.74,.27,2.44,.81c.7,.54,1.24,1.33,1.62,2.35,.39,1.03,.58,2.26,.58,3.71Zm-7.74,0c0,1.07,.11,2,.33,2.78,.22,.79,.55,1.39,1,1.82,.45,.43,1.03,.64,1.74,.64s1.28-.21,1.74-.64c.45-.43,.79-1.04,1.01-1.82,.22-.79,.32-1.71,.32-2.78s-.11-1.98-.32-2.75c-.22-.77-.55-1.37-1-1.79-.45-.42-1.04-.63-1.75-.63-1.06,0-1.83,.46-2.32,1.37-.49,.92-.74,2.18-.74,3.8Z"/>
        <path class="cls-1" d="M177.17,23.25c1.21,0,2.12,.39,2.74,1.16,.62,.77,.93,2.02,.93,3.72v8.68h-1.52v-8.54c0-1.11-.19-1.94-.58-2.49-.39-.55-.98-.83-1.78-.83-1.12,0-1.92,.42-2.38,1.25-.46,.83-.69,2.05-.69,3.63v6.98h-1.54v-13.32h1.24l.23,1.92h.08c.22-.47,.49-.87,.83-1.19,.33-.32,.71-.56,1.12-.73,.41-.17,.85-.25,1.31-.25Z"/>
        <path class="cls-1" d="M197.71,30.13c0,1.09-.11,2.07-.32,2.93-.22,.86-.53,1.58-.94,2.18-.41,.59-.9,1.04-1.48,1.36-.58,.31-1.23,.47-1.96,.47-.68,0-1.3-.16-1.87-.47-.57-.31-1.05-.76-1.47-1.36-.41-.59-.73-1.32-.96-2.18-.23-.86-.34-1.83-.34-2.93,0-1.46,.19-2.7,.57-3.72,.38-1.03,.92-1.81,1.62-2.35s1.54-.81,2.51-.81,1.74,.27,2.44,.81c.7,.54,1.24,1.33,1.62,2.35,.39,1.03,.58,2.26,.58,3.71Zm-7.74,0c0,1.07,.11,2,.33,2.78,.22,.79,.55,1.39,1,1.82,.45,.43,1.03,.64,1.74,.64s1.28-.21,1.74-.64c.45-.43,.79-1.04,1.01-1.82,.22-.79,.32-1.71,.32-2.78s-.11-1.98-.32-2.75c-.22-.77-.55-1.37-1-1.79-.45-.42-1.04-.63-1.75-.63-1.06,0-1.83,.46-2.32,1.37-.49,.92-.74,2.18-.74,3.8Z"/>
        <path class="cls-1" d="M204.9,25.08h-2.53v11.74h-1.54v-11.74h-1.8v-.97l1.8-.67v-.89c0-1.12,.13-2.03,.38-2.73,.25-.7,.62-1.22,1.1-1.55s1.07-.5,1.76-.5c.39,0,.75,.04,1.07,.13,.33,.09,.61,.19,.86,.3l-.4,1.59c-.21-.09-.45-.17-.71-.25-.26-.08-.53-.12-.8-.12-.59,0-1.02,.25-1.3,.75s-.42,1.28-.42,2.34v.97h2.53v1.58Z"/>
        <path class="cls-1" d="M87.93,41.85c1.75,0,3.03,.47,3.83,1.41,.8,.94,1.21,2.26,1.21,3.95,0,.77-.09,1.5-.27,2.19-.18,.69-.48,1.3-.9,1.83-.41,.53-.96,.95-1.64,1.26-.68,.31-1.51,.46-2.5,.46h-1.45v6.66h-2.23v-17.77h3.94Zm-.15,2.42h-1.57v6.26h1.21c.7,0,1.29-.11,1.78-.32,.49-.21,.86-.56,1.11-1.03,.25-.47,.38-1.09,.38-1.86,0-1.03-.24-1.79-.71-2.3-.47-.5-1.21-.75-2.21-.75Z"/>
        <path class="cls-1" d="M97.64,59.62h-2.19v-18.91h2.19v18.91Z"/>
        <path class="cls-1" d="M104.77,45.91c1.3,0,2.28,.38,2.95,1.13,.67,.75,1,1.93,1,3.52v9.05h-1.55l-.42-1.91h-.07c-.29,.49-.59,.89-.9,1.2-.31,.32-.67,.55-1.07,.71-.41,.16-.9,.24-1.48,.24-.61,0-1.16-.15-1.64-.44-.48-.3-.86-.75-1.14-1.36-.28-.61-.42-1.38-.42-2.31,0-1.38,.39-2.43,1.18-3.12,.79-.7,1.98-1.08,3.58-1.15l1.78-.08v-.71c0-.93-.17-1.6-.5-1.99-.33-.4-.8-.6-1.4-.6-.51,0-1.01,.1-1.49,.29s-.95,.43-1.41,.72l-.71-2.02c.5-.35,1.07-.63,1.71-.85,.64-.22,1.31-.33,2-.33Zm1.78,7.28l-1.33,.06c-1.09,.05-1.85,.29-2.29,.73s-.66,1.04-.66,1.8c0,.67,.15,1.15,.45,1.45,.3,.3,.7,.46,1.2,.46,.75,0,1.38-.28,1.88-.84,.5-.56,.75-1.39,.75-2.49v-1.17Z"/>
        <path class="cls-1" d="M117.12,45.91c1.16,0,2.06,.39,2.7,1.17,.65,.78,.97,2.04,.97,3.76v8.77h-2.18v-8.24c0-1.04-.16-1.83-.49-2.35-.33-.52-.84-.78-1.52-.78-1,0-1.69,.4-2.07,1.2-.39,.8-.58,1.96-.58,3.49v6.68h-2.18v-13.45h1.7l.31,1.82h.12c.22-.47,.5-.86,.83-1.16,.33-.3,.7-.53,1.11-.69,.41-.15,.84-.23,1.29-.23Z"/>
        <path class="cls-1" d="M127.66,57.55c.28,0,.57-.03,.84-.1,.28-.07,.53-.15,.76-.25v2.16c-.24,.14-.55,.25-.94,.35-.38,.1-.78,.15-1.2,.15-.58,0-1.1-.13-1.57-.38s-.83-.69-1.1-1.32c-.27-.62-.41-1.49-.41-2.59v-7.23h-1.4v-1.28l1.5-1.01,.71-2.88h1.37v2.99h2.94v2.18h-2.94v7.19c0,.68,.13,1.19,.39,1.52s.6,.5,1.03,.5Z"/>
        <path class="cls-1" d="M138.26,55.78c0,.88-.16,1.63-.49,2.24-.33,.61-.81,1.07-1.43,1.38-.63,.31-1.4,.47-2.31,.47-.72,0-1.33-.07-1.85-.2-.52-.13-1-.34-1.46-.61v-2.47c.49,.3,1.04,.56,1.65,.78,.61,.22,1.19,.33,1.73,.33,.72,0,1.23-.15,1.55-.44s.47-.69,.47-1.18c0-.29-.06-.55-.19-.78-.13-.23-.36-.47-.71-.72-.34-.25-.85-.54-1.51-.89-.65-.34-1.2-.68-1.64-1.02-.45-.34-.78-.75-1.01-1.23-.23-.48-.34-1.1-.34-1.85,0-1.19,.36-2.1,1.08-2.72s1.67-.93,2.86-.93c.63,0,1.23,.08,1.79,.25,.56,.17,1.11,.41,1.65,.72l-.69,2.15c-.46-.27-.93-.49-1.4-.66-.47-.17-.94-.26-1.42-.26-.56,0-.99,.11-1.29,.34s-.44,.55-.44,.97c0,.32,.07,.58,.21,.8,.14,.22,.39,.44,.74,.66,.35,.22,.84,.49,1.46,.81,.61,.31,1.14,.63,1.59,.97,.45,.34,.79,.75,1.04,1.23,.24,.49,.36,1.11,.36,1.88Z"/>
        <path class="cls-1" d="M156.77,50.56c0,2-.28,3.67-.85,5.01-.57,1.34-1.39,2.35-2.48,3.03s-2.39,1.01-3.92,1.01h-3.77v-17.77h4.17c1.4,0,2.62,.33,3.64,.99s1.81,1.64,2.37,2.93,.83,2.89,.83,4.79Zm-2.32,.09c0-1.46-.18-2.66-.52-3.6-.35-.94-.86-1.64-1.54-2.1-.68-.46-1.51-.69-2.5-.69h-1.9v12.91h1.58c1.64,0,2.86-.55,3.67-1.64,.81-1.09,1.22-2.72,1.22-4.88Z"/>
        <path class="cls-1" d="M163.49,45.91c1.3,0,2.28,.38,2.95,1.13,.67,.75,1,1.93,1,3.52v9.05h-1.55l-.42-1.91h-.07c-.29,.49-.59,.89-.9,1.2-.31,.32-.67,.55-1.07,.71-.41,.16-.9,.24-1.48,.24-.61,0-1.16-.15-1.64-.44-.48-.3-.86-.75-1.14-1.36-.28-.61-.42-1.38-.42-2.31,0-1.38,.39-2.43,1.18-3.12,.79-.7,1.98-1.08,3.58-1.15l1.78-.08v-.71c0-.93-.17-1.6-.5-1.99-.33-.4-.8-.6-1.4-.6-.51,0-1.01,.1-1.49,.29s-.95,.43-1.41,.72l-.71-2.02c.5-.35,1.07-.63,1.71-.85,.64-.22,1.31-.33,2-.33Zm1.78,7.28l-1.33,.06c-1.09,.05-1.85,.29-2.29,.73s-.66,1.04-.66,1.8c0,.67,.15,1.15,.45,1.45,.3,.3,.7,.46,1.2,.46,.75,0,1.38-.28,1.88-.84,.5-.56,.75-1.39,.75-2.49v-1.17Z"/>
        <path class="cls-1" d="M168.94,46.16h2.38l2.11,7.68c.09,.35,.18,.69,.25,1.03,.08,.34,.15,.67,.2,.99,.06,.32,.11,.65,.14,.97h.05c.06-.42,.15-.89,.26-1.42s.24-1.05,.39-1.57l2.02-7.68h2.35l-4.41,15.3c-.25,.88-.57,1.62-.93,2.24-.37,.62-.8,1.09-1.3,1.41-.5,.32-1.07,.48-1.72,.48-.31,0-.58-.02-.81-.07-.23-.04-.42-.09-.58-.14v-2.28c.13,.04,.29,.08,.49,.11,.2,.03,.4,.05,.61,.05,.39,0,.73-.1,1.01-.3,.28-.2,.53-.49,.72-.86,.2-.37,.36-.79,.49-1.26l.36-1.26-4.1-13.42Z"/>
      </g>
    </g>
  </g>
</svg>