<?xml version="1.0" encoding="UTF-8"?>
<svg id="Capa_2" data-name="Capa 2" xmlns="http://www.w3.org/2000/svg" viewBox="0 0 200 83.37">
  <defs>
    <style>
      .cls-1 {
        fill: #98a664;
      }
    </style>
  </defs>
  <g id="Site_mock_up" data-name="Site mock up">
    <g>
      <g>
        <path class="cls-1" d="M143.19,51.65c0-2.16,0-4.32,0-6.48,0-.39,.09-.64,.47-.78,1.71-.63,3.45-.88,5.24-.48,2.39,.54,3.72,2.16,4.29,4.45,.59,2.37,.51,4.75-.22,7.08-.8,2.57-2.62,3.93-5.31,4.04-1.35,.05-2.66-.11-3.94-.57-.39-.14-.55-.36-.54-.79,.02-2.16,.01-4.32,.01-6.48h0Zm2.15-.09h0c0,1.84,0,3.68,0,5.52,0,.35,.03,.63,.44,.72,2.13,.45,4.11,0,4.93-2.39,.84-2.45,.86-4.96,.08-7.42-.71-2.25-2.6-3.2-4.92-2.63-.4,.1-.55,.27-.54,.68,.02,1.84,0,3.68,0,5.52Z"/>
        <path class="cls-1" d="M84.18,53.14v6.1h-2.19c0-.25,0-.46,0-.66,0-4.44,.01-8.89,0-13.33,0-.51,.15-.76,.62-.93,1.62-.56,3.26-.75,4.94-.43,2.29,.44,3.61,2.12,3.6,4.54,0,2.4-1.36,4.13-3.7,4.53-1.05,.18-2.14,.13-3.28,.18Zm0-1.54c.62,.03,1.15,.11,1.67,.08,.86-.04,1.68-.23,2.3-.9,.98-1.06,1.13-3.24,.31-4.45-.71-1.06-2.5-1.53-3.9-.99-.15,.06-.36,.27-.36,.42-.02,1.92-.02,3.84-.02,5.85Z"/>
        <path class="cls-1" d="M111.35,59.24h-2.04c-.01-.22-.03-.41-.03-.59,0-3.39,.01-6.77,0-10.16,0-.49,.17-.7,.62-.85,1.65-.57,3.34-.78,5.06-.49,1.77,.29,2.74,1.31,2.93,3.08,.08,.71,.06,1.44,.06,2.15,0,2.26,0,4.52,0,6.85h-2.1c0-.23,0-.45,0-.68,0-2.45,0-4.91,0-7.36,0-2.14-1.01-2.99-3.13-2.7-.08,.01-.17,.03-.25,.04q-1.13,.19-1.12,1.3c0,2.92,0,5.84,0,8.76,0,.21,0,.41,0,.66Z"/>
        <path class="cls-1" d="M165.64,47.24c.69,0,1.33-.03,1.95,.02,.16,.01,.35,.31,.41,.52,.8,2.76,1.58,5.53,2.36,8.3,.04,.14,.09,.27,.19,.59,.32-1.12,.59-2.08,.88-3.03,.6-1.99,1.21-3.96,1.8-5.95,.1-.35,.27-.47,.62-.45,.48,.03,.97,0,1.52,0-.46,1.4-.89,2.73-1.33,4.04-1.35,4.03-2.71,8.06-4.05,12.1-.14,.43-.33,.63-.8,.59-.52-.04-1.05,0-1.69,0,.49-1.13,.86-2.19,1.39-3.17,.56-1.03,.56-1.95,.17-3.06-1.15-3.25-2.18-6.54-3.25-9.82-.06-.2-.11-.4-.18-.68Z"/>
        <path class="cls-1" d="M98.99,49.07c-.13-.3-.28-.67-.45-1.08,1.43-.83,2.95-1.1,4.54-.91,2.15,.25,3.27,1.34,3.37,3.51,.12,2.56,.06,5.12,.05,7.68,0,.17-.19,.44-.36,.51-2.02,.86-4.1,1.04-6.19,.31-2.55-.9-2.56-4.5-.83-5.97,.9-.77,1.98-1.12,3.1-1.37,.6-.13,1.2-.25,1.81-.33,.38-.05,.48-.23,.46-.59-.08-1.62-.95-2.48-2.57-2.36-.95,.07-1.88,.38-2.92,.61Zm5.49,3.39c-1.04,.29-1.98,.52-2.89,.84-.38,.13-.74,.43-1.01,.74-1.17,1.33-.68,3.52,.86,4,.88,.27,1.76,.22,2.62-.08,.17-.06,.39-.3,.39-.46,.03-1.61,.02-3.21,.02-5.04Z"/>
        <path class="cls-1" d="M156.44,49.03c-.1-.25-.26-.63-.42-1.01,1.55-1.19,4.84-1.35,6.43-.33,.94,.61,1.43,1.52,1.46,2.61,.06,2.32,.06,4.65,.06,6.98,0,1.51,0,1.52-1.47,1.9-1.41,.36-2.84,.47-4.28,.15-1.4-.32-2.45-1.05-2.73-2.57-.3-1.59,.08-2.94,1.43-3.93,1.24-.9,2.72-1.12,4.18-1.37,.89-.15,.89-.13,.79-1.02-.15-1.32-.87-2.06-2.23-1.99-1.05,.05-2.09,.36-3.22,.57Zm5.51,3.43c-1.05,.3-2.05,.49-2.97,.87-1.26,.52-1.78,1.81-1.46,3.24,.24,1.07,1.12,1.66,2.54,1.63,.48,0,.97-.09,1.43-.22,.18-.05,.43-.33,.43-.5,.03-1.6,.02-3.21,.02-5.01Z"/>
        <path class="cls-1" d="M194.42,30.93c0,1.65-.2,2.99-.75,4.25-.69,1.57-1.87,2.48-3.63,2.54-1.79,.06-3.17-.67-3.89-2.32-1.23-2.82-1.22-5.69,.06-8.49,.69-1.52,2.03-2.23,3.71-2.2,1.68,.03,2.91,.81,3.66,2.31,.66,1.32,.82,2.75,.84,3.91Zm-7.63,.3c.28,1.23,.48,2.52,.88,3.75,.32,.99,1.18,1.47,2.23,1.47,1.06,0,1.83-.55,2.2-1.52,.93-2.44,.91-4.92,.03-7.37-.38-1.04-1.12-1.67-2.3-1.66-1.18,.02-1.93,.67-2.25,1.72-.34,1.14-.52,2.33-.8,3.61Z"/>
        <path class="cls-1" d="M165.94,31.25c.01,1.37-.19,2.7-.75,3.96-.71,1.6-1.93,2.48-3.71,2.51-1.8,.03-3.13-.79-3.81-2.44-1.12-2.72-1.1-5.5,.03-8.21,.68-1.61,2.04-2.39,3.8-2.37,1.72,.02,2.93,.88,3.65,2.41,.62,1.31,.77,2.71,.78,4.14Zm-1.48-.1c-.26-1.19-.46-2.44-.83-3.64-.31-1-1.06-1.61-2.19-1.61-1.15,0-1.88,.62-2.25,1.64-.86,2.37-.87,4.77-.08,7.15,.39,1.18,1.31,1.78,2.38,1.76,1.06-.02,1.92-.63,2.27-1.8,.32-1.1,.47-2.26,.71-3.5Z"/>
        <path class="cls-1" d="M134.84,26.7c-.16-.33-.3-.64-.47-.99,1.19-.79,2.49-1.05,3.86-.99,2.33,.09,3.61,1.33,3.67,3.66,.07,2.68,.04,5.37,.02,8.06,0,.21-.21,.52-.4,.61-1.7,.75-3.47,.96-5.26,.4-1.38-.43-2.17-1.44-2.34-2.88-.2-1.7,.36-3.09,1.84-4.03,1.15-.73,2.47-.99,3.8-1.15,.61-.07,.82-.27,.78-.9-.12-1.82-.91-2.6-2.75-2.53-.46,.02-.92,.12-1.37,.24-.44,.12-.87,.32-1.37,.52Zm5.45,3.48c-1.13,.35-2.15,.62-3.13,.98-.34,.12-.64,.41-.9,.69-1.26,1.38-.82,3.91,.77,4.47,.95,.34,1.92,.28,2.87-.04,.16-.05,.37-.27,.37-.42,.03-1.82,.02-3.63,.02-5.69Z"/>
        <path class="cls-1" d="M90.85,26.71c-.16-.34-.31-.65-.45-.96,1.13-1.03,4.45-1.49,5.99-.46,.99,.66,1.45,1.63,1.48,2.74,.07,2.83,.05,5.67,.04,8.5,0,.16-.18,.39-.33,.46-1.59,.73-3.24,.97-4.95,.55-1.5-.37-2.44-1.31-2.68-2.87-.25-1.67,.28-3.06,1.69-4.03,1.16-.81,2.52-1.08,3.89-1.25,.6-.08,.82-.25,.78-.9-.11-1.91-.9-2.67-2.83-2.55-.46,.03-.92,.13-1.37,.26-.42,.12-.82,.33-1.27,.52Zm5.43,3.44c-1.18,.4-2.28,.66-3.27,1.13-1.12,.53-1.61,1.78-1.42,3.07,.17,1.15,.69,1.87,1.78,2.02,.81,.12,1.67-.02,2.5-.09,.15-.01,.39-.29,.39-.45,.03-1.81,.02-3.63,.02-5.68Z"/>
        <path class="cls-1" d="M131.45,37.48h-1.61c0-.24,0-.46,0-.68,0-2.6,.01-5.2,0-7.81,0-2.48-1.19-3.45-3.65-3.01q-1.39,.24-1.39,1.61c0,3.03,0,6.05,0,9.08,0,.25,0,.5,0,.8h-1.62c-.01-.19-.04-.4-.04-.6,0-3.58,0-7.15,0-10.73,0-.38,.12-.58,.46-.72,1.61-.65,3.27-.88,4.98-.61,1.69,.27,2.77,1.32,2.83,3.1,.11,3.17,.03,6.34,.03,9.57Z"/>
        <path class="cls-1" d="M170.12,37.48h-1.62c0-.2-.03-.4-.03-.6,0-3.53,.01-7.07-.01-10.6,0-.51,.15-.75,.62-.93,1.52-.59,3.07-.77,4.68-.56,1.78,.24,2.92,1.47,2.96,3.4,.06,3.06,.02,6.13,.02,9.25h-1.64c0-.22,0-.45,0-.67,0-2.6,0-5.2,0-7.81,0-.4-.02-.81-.09-1.2-.21-1.1-.88-1.75-1.99-1.81-.75-.04-1.51,.1-2.26,.19-.5,.06-.67,.32-.66,.86,.03,3.26,.02,6.52,.02,9.77,0,.21,0,.42,0,.7Z"/>
        <path class="cls-1" d="M133.82,47.87c-.23,.46-.41,.84-.55,1.14-.66-.19-1.26-.43-1.87-.53-.99-.15-1.79,.35-2.06,1.19-.29,.89,.06,1.76,.97,2.23,.67,.35,1.4,.61,2.06,.98,1.25,.69,1.82,1.78,1.75,3.2-.08,1.61-1,2.77-2.61,3.2-1.58,.42-3.1,.2-4.62-.59,.19-.47,.38-.93,.56-1.37,.56,.2,1.06,.5,1.59,.53,.65,.05,1.39,.03,1.96-.23,1.3-.59,1.37-2.45,.18-3.24-.38-.26-.83-.42-1.24-.63-.49-.25-1.01-.46-1.44-.79-2-1.52-1.72-4.47,.55-5.53,1.61-.76,3.21-.51,4.78,.43Z"/>
        <path class="cls-1" d="M125.5,57.85c.18,1.63,.2,1.52-1.29,1.55-1.81,.04-2.87-1.16-2.89-3.14-.02-2.31,0-4.61,0-6.92,0-.23,0-.46,0-.73-.46-.02-.85-.04-1.29-.06v-1.27c.39-.03,.8-.06,1.29-.1,0-.74-.03-1.45,.02-2.16,.01-.2,.22-.48,.41-.57,.49-.23,1.03-.36,1.65-.57v3.33h2.13v1.35h-2.08c-.01,.28-.03,.47-.03,.66,0,2.18,0,4.36,.02,6.54,0,.32,0,.64,.06,.95,.18,.96,.7,1.25,2.01,1.13Z"/>
        <path class="cls-1" d="M83.71,28.72h4.73v1.1h-4.73v7.63h-1.67v-15.79h6.89v1.15h-5.22v5.91Z"/>
        <path class="cls-1" d="M93.49,41.88h1.96v17.36h-1.96v-17.36Z"/>
        <path class="cls-1" d="M100.16,36.71c.18-.37,.34-.71,.5-1.05,.53,.21,1.02,.46,1.53,.6,1.35,.37,2.5-.13,2.93-1.22,.49-1.25,.05-2.43-1.18-3.11-.61-.34-1.26-.61-1.86-.95-1.39-.78-1.93-2.04-1.6-3.66,.29-1.4,1.38-2.37,2.89-2.55,1.38-.17,2.4,.1,3.3,.9-.14,.3-.29,.62-.43,.91-.55-.21-1.04-.47-1.56-.58-1.1-.25-2.08,.23-2.44,1.12-.44,1.07-.12,2.13,.9,2.75,.56,.34,1.17,.6,1.75,.9,1.73,.89,2.45,2.4,2,4.2-.43,1.74-1.88,2.79-3.78,2.75-1.17-.03-2.13-.34-2.95-1Z"/>
        <path class="cls-1" d="M197.57,26.15h-1.61v-1.22h1.6c0-.74-.09-1.42,.02-2.07,.14-.79,.35-1.6,.7-2.33,.3-.64,.95-.97,1.7-1.14,.02,.76,.02,1.4-.38,2.09-.34,.59-.29,1.42-.38,2.14-.05,.39,0,.8,0,1.23,.26,.03,.48,.06,.75,.1v1.15c-.22,.03-.44,.06-.73,.1v11.24h-1.67v-11.3Z"/>
        <path class="cls-1" d="M116.34,25.5c-.23,.47-.38,.77-.53,1.07-.5-.19-.95-.42-1.43-.54-1.13-.29-2.16,.07-2.72,1.1-.39,.71-.66,1.51-.81,2.31-.3,1.6-.25,3.2,.27,4.76,.73,2.17,2.45,2.77,4.4,1.58,.05-.03,.11-.04,.22-.09,.17,.37,.34,.73,.5,1.08-1.2,1.33-3.97,1.29-5.36-.14-.56-.58-1.04-1.31-1.31-2.06-.81-2.28-.8-4.62,.04-6.9,.81-2.21,2.54-3.24,4.76-2.86,.64,.11,1.25,.44,1.97,.7Z"/>
        <path class="cls-1" d="M150.59,25.59c-.16,.36-.3,.66-.43,.95-.08,0-.13,.02-.16,0-1.57-.94-2.68-.59-3.25,1.14-.74,2.23-.72,4.51-.05,6.75,.57,1.93,1.62,2.3,3.35,1.27,.04,.07,.09,.13,.11,.21,.44,1.1,.29,1.39-.88,1.68-1.6,.4-2.96-.22-3.84-1.75-.62-1.09-.84-2.3-.93-3.53-.14-1.83-.02-3.64,.72-5.36,.95-2.22,3.33-2.95,5.11-1.57,.07,.05,.13,.11,.25,.2Z"/>
        <path class="cls-1" d="M154.33,37.46h-1.63v-12.5h1.63v12.5Z"/>
        <path class="cls-1" d="M120.14,37.47h-1.58v-12.52h1.58v12.52Z"/>
        <path class="cls-1" d="M160.64,23.48c.54-1.02,1.07-2.02,1.62-3,.07-.12,.3-.21,.46-.22,.48-.03,.97-.01,1.59-.01-.19,.27-.32,.46-.46,.65-.48,.64-1.01,1.25-1.42,1.93-.43,.73-.99,.88-1.8,.65Z"/>
        <path class="cls-1" d="M120.4,21.54c0,.59-.43,1.02-1.05,1.02-.58,0-1.02-.42-1.03-.98-.02-.59,.42-1.06,1.01-1.07,.58,0,1.06,.46,1.07,1.03Z"/>
        <path class="cls-1" d="M154.51,21.56c0,.57-.4,.99-.98,1.02-.56,.02-1.08-.46-1.08-1.01,0-.57,.47-1.05,1.03-1.06,.58,0,1.02,.45,1.03,1.05Z"/>
      </g>
      <g>
        <path class="cls-1" d="M0,38.91c.17-1.49,.27-2.99,.51-4.47C2.59,21.65,8.69,11.44,19.95,4.63,23.94,2.22,28.31,.77,32.92,.07c.25-.04,.51-.03,.76-.03,2.44,0,4.88,.08,7.31-.02,3.21-.13,6.28,.48,9.29,1.48,8.77,2.92,15.55,8.35,20.45,16.16,3.79,6.04,5.91,12.66,6.72,19.71,.8,6.93,.31,13.77-2.06,20.35-4.51,12.51-13.07,20.89-25.94,24.67-1.27,.37-2.6,.56-3.91,.84-.14,.03-.27,.09-.4,.14h-10.3c-.12-.04-.23-.1-.35-.12-6.92-1.07-13.09-3.84-18.49-8.25C7.01,67.66,1.91,58.14,.36,46.68c-.15-1.11-.24-2.22-.36-3.33,0-1.48,0-2.96,0-4.45Zm48.55-8.92c5.64-5.77,11.21-11.47,16.88-17.28-1.79-1.6-3.57-3.18-5.41-4.81-4.59,6.99-9.08,13.83-13.58,20.67-.9-.49-1.73-.94-2.64-1.44,3.12-7.67,6.23-15.32,9.39-23.11-1.73-.6-3.43-1.18-5.22-1.8-1.99,8.12-3.95,16.13-5.9,24.11-.53,0-.51-.26-.44-.6,1.61-7.72,3.22-15.45,4.82-23.17,.04-.2,.07-.4,.1-.64-.54-.1-1.01-.19-1.53-.28-1.33,8.16-2.66,16.26-3.99,24.4-.79-.23-1.51-.45-2.26-.67,.12-8.12,.24-16.2,.36-24.21h-4.35c.78,8.02,1.54,15.91,2.32,23.86-.48-.08-.87-.19-1.26-.21-.53-.02-.75-.25-.87-.78-1.62-7.09-3.26-14.18-4.89-21.27-.05-.22-.12-.43-.19-.7-1.25,.39-2.43,.76-3.65,1.15,2.45,7.12,4.86,14.15,7.27,21.18-.1,.04-.2,.07-.3,.11-2.57-6.98-5.03-14-7.66-21.02-.42,.17-.79,.31-1.2,.47,2.75,6.84,5.48,13.62,8.21,20.41-.81,.12-1.28-.08-1.65-.84-2.85-5.93-5.76-11.83-8.66-17.73-.1-.2-.21-.39-.38-.68-1.47,.92-2.87,1.79-4.3,2.68,3.66,5.54,7.25,10.96,10.84,16.39-.04,.05-.07,.11-.11,.16-1.37-.13-2.74-.23-4.1-.41-.34-.04-.74-.23-.97-.48-2.25-2.36-4.47-4.75-6.7-7.13-1.29-1.37-2.58-2.74-3.91-4.15-.3,.34-.58,.65-.83,.94,3.46,3.53,6.86,7.01,10.25,10.48-2.43-.46-4.79-1.28-7.06-2.4-2.27-1.13-4.18-2.76-6.11-4.45-.62,1.01-1.19,1.91-1.77,2.85,.62,.43,1.2,.79,1.71,1.22,.27,.22,.5,.56,.61,.89,.86,2.72,1.64,5.46,2.55,8.17,.45,1.33,1.13,2.59,1.74,3.96-3.73-.97-7.41-1.93-11.16-2.91-.22,1.12-.43,2.19-.65,3.29,.19,.06,.33,.11,.46,.13,4.07,.68,8.15,1.37,12.22,2.02,.45,.07,.71,.26,.94,.63,1.26,2.02,2.71,3.89,4.51,5.47,.08,.07,.14,.17,.26,.32-6.27,.9-12.44,1.79-18.68,2.69,.06,.48,.11,.9,.16,1.34,.18-.02,.29-.02,.39-.04,6.06-1.1,12.13-2.19,18.18-3.33,.83-.16,1.23,.3,1.88,.77-6.78,1.62-13.43,3.2-20.11,4.8,.17,.8,.33,1.51,.49,2.25,.19-.05,.29-.08,.39-.11,6.34-1.92,12.69-3.82,19.02-5.78,.97-.3,1.78-.37,2.66,.25,.62,.44,1.36,.71,2.17,1.12-7.34,3.93-14.55,7.79-21.85,11.69,.61,1.24,1.21,2.46,1.83,3.71,.23-.14,.38-.21,.51-.31,6.79-4.67,13.58-9.32,20.35-14.01,.58-.4,1.07-.52,1.73,0-7.01,5.6-14,11.18-21.05,16.8,.69,.94,1.37,1.87,2.08,2.84,.9-.84,1.75-1.61,2.58-2.4,5.75-5.51,11.49-11.03,17.23-16.55,.33-.31,.61-.49,1.03-.05-6.47,6.88-12.94,13.76-19.46,20.68,.71,.75,1.45,1.52,2.2,2.32,.13-.14,.2-.21,.27-.3,3.79-4.72,7.59-9.44,11.37-14.17,2.13-2.66,4.24-5.34,6.37-8,.12-.15,.33-.36,.47-.34,.59,.09,1.18,.25,1.85,.4-4.84,9.06-9.64,18.03-14.49,27.08,1.22,.72,2.41,1.42,3.65,2.15,.14-.29,.24-.48,.32-.67,2.65-6.48,5.3-12.96,7.96-19.44,1.15-2.8,2.29-5.6,3.45-8.39,.08-.19,.32-.47,.47-.46,.71,.05,1.41,.18,2.14,.29-1.55,10.7-3.09,21.33-4.63,32.01,.65,.1,1.2,.19,1.83,.29,1.1-10.8,2.18-21.52,3.28-32.28,.39,.03,.69,.05,1.06,.08,.08,10.87,.16,21.67,.25,32.46h2.64c-.77-10.85-1.53-21.62-2.29-32.37,.58-.15,.57,.17,.61,.48,.34,2.77,.68,5.55,1.02,8.32,.79,6.36,1.58,12.73,2.38,19.09,.18,1.4,.36,2.8,.56,4.3,1.28-.25,2.49-.48,3.72-.72-2.29-10.54-4.55-20.96-6.82-31.38,.09-.04,.19-.07,.28-.11,.1,.2,.24,.39,.29,.6,2.24,8.93,4.47,17.85,6.7,26.78,.31,1.22,.62,2.44,.95,3.74,1.51-.55,2.95-1.07,4.4-1.59-3.72-9.83-7.39-19.53-11.06-29.23,.05-.05,.1-.1,.15-.15,.77,.21,1.53,.43,2.3,.61,.53,.13,.89,.41,1.19,.86,3.9,5.85,7.81,11.69,11.7,17.54,.18,.27,.28,.67,.27,1-.09,2.57-.7,5.02-1.72,7.37-.08,.18-.15,.36-.26,.65,2.69-1.36,5.15-2.76,5.88-6.02,.41,.53,.69,.89,.98,1.27,.76-.72,1.47-1.41,2.2-2.1-.61-.7-1.19-1.35-1.75-2.01-.11-.13-.26-.34-.23-.48,.2-1.22,.43-2.44,.69-3.86,1.19,1.31,2.3,2.52,3.5,3.83,.64-.88,1.13-1.55,1.63-2.24-1.6-1.38-3.12-2.68-4.63-4.01-.22-.2-.49-.47-.52-.73-.21-1.91-.36-3.82-.54-5.78,2.83,1.8,5.69,3.61,8.59,5.45,.27-.62,.54-1.21,.81-1.82-.23-.15-.42-.27-.62-.39-2.83-1.63-5.65-3.25-8.48-4.87-.27-.16-.68-.29-.76-.53-.28-.75-.43-1.54-.66-2.43,3.91,1.87,7.68,3.68,11.51,5.51,.14-.44,.25-.82,.38-1.23-.19-.1-.35-.19-.52-.26-3.74-1.65-7.47-3.3-11.2-4.96-.22-.1-.5-.24-.58-.44-.49-1.23-.93-2.48-1.42-3.81,4.99,1.41,9.9,2.79,14.91,4.2,.13-1.11,.26-2.15,.39-3.21-.29-.06-.49-.11-.7-.15-4.99-.97-9.98-1.93-14.96-2.91-.28-.05-.66-.11-.79-.3-.43-.64-.76-1.35-1.19-2.13,6.01,.42,11.89,.83,17.87,1.25-.11-1.71-.21-3.33-.31-4.96-.27,0-.44,0-.6,0-6.03,.37-12.05,.75-18.08,1.12-.18,.01-.44,.02-.53-.08-.39-.48-.74-.99-1.16-1.58,6.67-1.02,13.22-2.02,19.86-3.03-.14-.66-.27-1.26-.4-1.89-.22,.03-.37,.04-.51,.07-6.09,1.26-12.2,2.5-18.28,3.82-1,.22-1.59,.05-2.16-.77-.52-.75-1.19-1.4-1.84-2.15,6.66-3.31,13.25-6.59,19.9-9.89-.7-1.36-1.36-2.64-2.03-3.95-.22,.13-.33,.19-.43,.26-6.08,4.01-12.17,8.01-18.25,12.03-.46,.3-.74,.3-1.01-.24,6.26-4.46,12.51-8.92,18.81-13.4-.49-.72-.95-1.39-1.45-2.12-6.08,5.02-12.08,9.98-18.12,14.97-.38-.31-.77-.62-1.28-1.03Z"/>
        <path class="cls-1" d="M58.49,66.69c-3.77-5.17-7.44-10.2-11.11-15.24,.04-.05,.08-.1,.12-.14,2.4,1.05,4.52,2.52,6.34,4.44,2.6,2.74,4.62,7.44,4.64,10.94Z"/>
      </g>
    </g>
  </g>
</svg>