<?xml version="1.0" encoding="UTF-8"?>
<svg id="Capa_2" data-name="Capa 2" xmlns="http://www.w3.org/2000/svg" viewBox="0 0 200 74.95">
  <defs>
    <style>
      .cls-1 {
        fill: #98a664;
      }
    </style>
  </defs>
  <g id="Site_mock_up" data-name="Site mock up">
    <g>
      <path class="cls-1" d="M56.87,70.91c-.48,.46-.89,.79-1.19,.96-.29,.17-.54,.26-.73,.26-.08,0-.33,0-.33-.72,0-.23,.01-.42,.04-.57l2.67-18.22-1.07-.52-5.98,1-.39,1.76,2.79,1c-.2,1.42-.59,4.05-1.17,7.83-.4,2.61-.68,4.43-.84,5.58-.16,1.16-.28,2.17-.34,3l-.02,.33c0,1.56,.87,2.36,2.57,2.36,.74,0,1.45-.18,2.13-.54,.67-.36,1.25-.76,1.72-1.21,.47-.44,.8-.81,.99-1.08l.05-.08-.75-1.27-.13,.13Z"/>
      <path class="cls-1" d="M37.43,9.32c-2.07,0-3.97,.65-5.64,1.93-1.67,1.27-3,2.97-3.94,5.03-.95,2.06-1.42,4.26-1.42,6.54,0,2.84,.67,5.07,2,6.64,1.33,1.57,3.27,2.37,5.75,2.37,2.08,0,3.99-.65,5.67-1.92,1.67-1.27,2.99-2.96,3.94-5.02,.95-2.06,1.42-4.26,1.42-6.54,0-2.84-.68-5.08-2.01-6.65-1.34-1.58-3.28-2.38-5.77-2.38m-2.59,19.89c-1.36,0-2.34-.55-3.02-1.68-.68-1.14-1.03-2.79-1.03-4.93,0-1.67,.23-3.36,.68-4.99,.45-1.63,1.13-3,2.03-4.07,.88-1.05,1.98-1.58,3.25-1.58,1.34,0,2.33,.54,3.02,1.67,.69,1.13,1.05,2.76,1.05,4.86,0,1.67-.23,3.36-.67,5.01-.44,1.64-1.13,3.02-2.04,4.1-.9,1.07-2,1.6-3.27,1.6"/>
      <path class="cls-1" d="M56.44,43.12c-.46,0-.92,.14-1.37,.42-.45,.28-.82,.65-1.11,1.11-.29,.46-.44,.96-.44,1.48,0,.65,.23,1.21,.7,1.68s1.03,.7,1.68,.7c.53,0,1.04-.14,1.51-.43,.47-.29,.85-.67,1.13-1.15,.28-.48,.42-.99,.42-1.52,0-.64-.23-1.18-.69-1.62-.46-.43-1.07-.66-1.82-.66"/>
      <path class="cls-1" d="M118.2,5.38c.53,0,1.04-.14,1.51-.43,.47-.28,.85-.67,1.13-1.15,.28-.48,.42-.99,.42-1.52,0-.63-.23-1.18-.69-1.62-.46-.44-1.07-.66-1.82-.66-.46,0-.92,.14-1.37,.42-.45,.28-.83,.65-1.12,1.1-.29,.46-.44,.96-.44,1.48,0,.65,.23,1.21,.7,1.67s1.03,.7,1.68,.7"/>
      <path class="cls-1" d="M16.14,30.85c1.94-.65,3.52-1.7,4.68-3.12,1.17-1.43,1.76-3.26,1.76-5.43,0-1.12-.24-2.15-.73-3.07-.49-.92-1.17-1.67-2.03-2.25-.71-.47-1.51-.81-2.38-1,1.62-.61,2.91-1.49,3.82-2.62,1.02-1.25,1.51-2.89,1.47-4.85-.03-1.09-.35-2.1-.97-3.01-.61-.9-1.58-1.64-2.86-2.19-1.28-.55-2.89-.82-4.8-.82H3.79l-.26,2.26,2.54,.5L3.02,29.34l-2.82,.57-.2,1.92H9.6c2.41,0,4.61-.33,6.54-.98m1.59-18.37c-.56,.89-1.35,1.55-2.32,1.98-.98,.43-2.11,.65-3.35,.65h-3.13l1.3-10.16c.37-.06,.84-.09,1.4-.09h1.58c1.33,0,2.41,.16,3.2,.46,.77,.3,1.33,.76,1.67,1.38,.34,.62,.52,1.44,.52,2.44,0,1.34-.29,2.46-.86,3.35m-7.31,16.8c-.53,0-1.15-.03-1.84-.09-.61-.06-1.08-.14-1.39-.24l1.38-11.04c1.21-.08,2.6-.12,4.14-.12,1.9,0,3.3,.4,4.15,1.21,.86,.8,1.29,2.06,1.29,3.75,0,2.28-.68,3.95-2.03,4.97-1.36,1.03-3.28,1.55-5.7,1.55"/>
      <path class="cls-1" d="M44.24,70.92c-.52,.44-.94,.75-1.23,.92-.27,.15-.51,.23-.7,.23-.09,0-.33,0-.33-.65,0-.18,.02-.39,.05-.62l2.41-18.35h-4.09l-2.22,16.68c-.65,.83-1.41,1.53-2.27,2.09-.86,.56-1.7,.85-2.51,.85-.86,0-1.5-.21-1.92-.62s-.62-1.22-.62-2.38c0-.63,.03-1.25,.08-1.84,.06-.61,.16-1.4,.29-2.36,.03-.2,.05-.42,.09-.66s.07-.51,.1-.81l1.33-10.41-1.04-.69-4.9,1.05-.38,1.97,1.91,1.13-.96,6.77c-.23,1.63-.4,2.95-.5,3.91-.11,.97-.16,1.82-.16,2.55,0,1.88,.44,3.26,1.32,4.07,.88,.81,2.13,1.22,3.72,1.22,2.31,0,4.38-.96,6.16-2.86-.04,.23-.06,.44-.06,.62,0,.7,.21,1.26,.62,1.65,.41,.39,.99,.59,1.74,.59s1.43-.18,2.13-.54c.68-.35,1.27-.76,1.76-1.21,.49-.46,.81-.81,.99-1.08l.05-.07-.73-1.24-.13,.11Z"/>
      <polygon class="cls-1" points="1.07 54.71 1.04 54.88 3.53 54.88 5.37 48.16 11.11 48.16 8 72.43 3.35 72.87 3.15 74.93 16.79 74.93 16.95 72.86 12.19 72.42 15.31 48.16 21.16 48.16 21.03 54.88 23.42 54.88 24.74 45.62 2.55 45.62 1.07 54.71"/>
      <path class="cls-1" d="M113.82,20.56c-.4,2.61-.68,4.43-.84,5.58-.17,1.16-.28,2.17-.34,3l-.02,.33c0,1.56,.86,2.36,2.57,2.36,.74,0,1.45-.18,2.13-.54,.67-.35,1.25-.76,1.72-1.2,.47-.44,.8-.81,.99-1.08l.05-.08-.75-1.27-.13,.13c-.48,.46-.89,.79-1.19,.96-.29,.17-.54,.26-.73,.26-.08,0-.33,0-.33-.72,0-.23,.01-.42,.04-.57l2.66-18.22-1.07-.52-5.98,1-.39,1.76,2.79,1c-.2,1.42-.59,4.05-1.17,7.83"/>
      <path class="cls-1" d="M154.77,9.58c-.8-.17-1.56-.26-2.26-.26-2.35,0-4.42,.73-6.15,2.18-1.72,1.43-3.04,3.25-3.94,5.39-.89,2.14-1.34,4.27-1.34,6.32,0,1.78,.27,3.33,.82,4.61,.55,1.29,1.36,2.29,2.41,2.98,1.05,.68,2.32,1.03,3.76,1.03,1.62,0,3.05-.35,4.26-1.05,1.2-.69,2.16-1.46,2.85-2.28l.06-.07-.88-1.75-.14,.1c-1.11,.78-2.02,1.33-2.7,1.63-.68,.3-1.46,.45-2.32,.45-1.18,0-2.07-.49-2.73-1.49-.66-1.01-1-2.59-1-4.7s.26-4.04,.78-5.58c.51-1.52,1.24-2.69,2.16-3.48,.92-.78,2-1.18,3.21-1.18,1.01,0,2.18,.55,3.46,1.66l.61,.48,1.22-4.25-.11-.05c-.54-.27-1.22-.5-2.02-.67"/>
      <path class="cls-1" d="M135.9,9.55c-.98-.15-1.96-.23-2.91-.23-1.34,0-2.59,.26-3.74,.77-1.15,.51-2.08,1.25-2.77,2.19-.7,.95-1.05,2.05-1.05,3.27,0,1.35,.42,2.59,1.26,3.69,.83,1.08,1.76,2.01,2.78,2.75,.72,.52,1.31,.98,1.75,1.38,.44,.39,.81,.85,1.1,1.36,.29,.5,.44,1.07,.44,1.68,0,1.04-.32,1.7-.99,2.03-.69,.34-1.57,.51-2.62,.51s-1.98-.15-2.89-.44c-.91-.29-1.63-.6-2.14-.94l-.17-.11-.78,3.16,.07,.06c.36,.31,1.11,.58,2.28,.82,1.14,.23,2.29,.34,3.44,.34,1.38,0,2.68-.23,3.86-.7,1.18-.46,2.14-1.17,2.85-2.08,.71-.92,1.07-2.03,1.07-3.29,0-.98-.21-1.88-.63-2.67-.41-.79-.92-1.47-1.49-2.03-.57-.56-1.31-1.18-2.19-1.85-.93-.69-1.67-1.39-2.2-2.06-.52-.66-.79-1.37-.79-2.13,0-.16,0-.29,.02-.37,.1-.92,.46-1.58,1.08-1.96,.63-.39,1.41-.59,2.31-.59,.71,0,1.37,.1,1.98,.29,.6,.19,1.11,.42,1.51,.67,.48,.31,.64,.48,.7,.57l.19,.33,.83-3.86-.1-.05c-.37-.17-1.04-.33-2.03-.49"/>
      <path class="cls-1" d="M197.64,26.1c-1,.94-2.06,1.64-3.16,2.09-1.1,.45-2.17,.68-3.18,.68-.91,0-1.67-.28-2.26-.83-.59-.56-1.03-1.28-1.3-2.13-.27-.86-.41-1.74-.41-2.63,0-.16,.01-.38,.03-.64,1.43-.02,3.14-.35,5.09-.98,2.01-.65,3.79-1.62,5.28-2.88,1.51-1.28,2.28-2.84,2.28-4.66,0-.92-.21-1.75-.62-2.47-.41-.73-1.05-1.3-1.89-1.72-.84-.41-1.87-.62-3.08-.62-2.07,0-3.99,.66-5.71,1.96-1.71,1.3-3.09,3.03-4.1,5.16-1.01,2.13-1.55,4.4-1.61,6.78-.04,1.5,.22,2.92,.78,4.22,.55,1.3,1.43,2.37,2.61,3.17,1.18,.8,2.67,1.21,4.42,1.21,1.17,0,2.3-.21,3.37-.63,1.06-.41,2-.93,2.79-1.53s1.4-1.2,1.81-1.76l.06-.08-1.03-1.84-.14,.13Zm-4.15-14.24c.68,0,1.22,.21,1.62,.63,.4,.42,.61,1.09,.62,1.96,0,1.11-.46,2.11-1.38,2.97-.93,.88-2.08,1.57-3.39,2.07-1.25,.47-2.42,.72-3.47,.75,.15-1.12,.46-2.33,.94-3.59,.5-1.32,1.2-2.47,2.07-3.41,.86-.92,1.86-1.39,3-1.39"/>
      <path class="cls-1" d="M126.57,71.66c-.7,.56-1.22,.85-1.57,.85-.06,0-.14-.02-.19-.16-.06-.14-.09-.38-.09-.69,0-.19,0-.33,.02-.43,.04-.84,.12-1.71,.25-2.58,.14-.89,.33-2.05,.58-3.48,.02-.18,.09-.56,.21-1.16,.24-1.3,.43-2.41,.56-3.28,.13-.89,.2-1.69,.2-2.38,0-2.09-.39-3.61-1.15-4.52-.77-.92-1.89-1.39-3.33-1.39s-2.78,.43-4.16,1.28c-1.25,.76-2.39,1.75-3.41,2.93l.35-3.69-1.05-.52-4.85,1.03-.38,1.9,1.87,1.13-2.49,18.43h4.11l1.98-14.57c.93-1.32,2-2.42,3.17-3.28,1.17-.86,2.23-1.29,3.13-1.29,.5,0,.89,.06,1.16,.17,.25,.1,.45,.34,.61,.72,.16,.39,.24,1.02,.24,1.85s-.07,1.78-.22,2.76c-.15,.99-.36,2.23-.64,3.71-.13,.66-.2,1.02-.21,1.11l-.11,.66c-.24,1.28-.43,2.36-.56,3.22-.14,.85-.22,1.63-.26,2.32-.05,.91,.14,1.59,.58,2.02,.43,.43,1.1,.64,1.97,.64,.68,0,1.34-.13,1.97-.39,.62-.26,1.17-.56,1.61-.89,.45-.34,.74-.6,.88-.8l.05-.08-.72-1.24-.13,.11Z"/>
      <path class="cls-1" d="M178.25,28.36c-.52,.39-.94,.66-1.23,.81-.28,.14-.51,.21-.71,.21-.05,0-.15,0-.22-.24-.06-.22-.08-.57-.05-1.03,.09-1.25,.34-3.1,.76-5.52l.09-.53c.3-1.54,.54-2.87,.72-3.95,.17-1.07,.26-2.04,.26-2.87,0-2.09-.39-3.61-1.15-4.52-.77-.92-1.89-1.39-3.34-1.39s-2.88,.45-4.25,1.35c-1.23,.8-2.35,1.83-3.35,3.08l1.72-13.04v-.1s-1.11-.58-1.11-.58l-5.33,.82-.37,1.8,2.28,.82-3.67,28.16-.02,.16h4.11l1.92-14.5c.95-1.34,2.02-2.46,3.19-3.34,1.16-.87,2.22-1.31,3.15-1.31,.45,0,.82,.06,1.1,.17,.26,.1,.47,.35,.64,.74,.18,.4,.27,1.02,.27,1.83,0,.91-.09,1.94-.26,3.05-.17,1.11-.4,2.4-.68,3.83l-.36,1.99c-.21,1.2-.38,2.18-.48,2.9-.11,.74-.18,1.41-.22,2.01-.05,.92,.14,1.59,.59,2.02,.44,.42,1.1,.63,1.98,.63,.73,0,1.44-.15,2.13-.43,.68-.28,1.27-.6,1.76-.97,.49-.37,.8-.65,.94-.87l.05-.07-.72-1.23-.13,.1Z"/>
      <path class="cls-1" d="M57.23,4.16h-2.13l-.04,.09c-.41,1.08-.85,2.11-1.3,3.07-.44,.94-.86,1.63-1.22,2.06l-2.38,.94-.44,1.97h2.31l-1.69,13.41c-.17,1.22-.25,2.1-.25,2.61,0,1.25,.34,2.16,1.01,2.71,.66,.54,1.54,.82,2.63,.82,.71,0,1.5-.15,2.34-.45,.83-.3,1.61-.67,2.31-1.11,.71-.44,1.22-.86,1.53-1.25l.04-.05-.41-1.75-.18,.14c-.44,.34-1.05,.69-1.79,1.03-.73,.33-1.33,.5-1.76,.5s-.74-.04-.94-.14c-.19-.08-.31-.23-.39-.44-.08-.23-.12-.57-.12-1.03,0-.61,.11-1.72,.32-3.31l1.56-11.67h4.9l.42-2.96h-4.96l.65-5.17Z"/>
      <path class="cls-1" d="M81.24,71.66c-.7,.56-1.22,.85-1.57,.85-.06,0-.14-.02-.19-.16-.06-.14-.09-.38-.09-.69,0-.19,0-.33,.02-.43,.04-.84,.12-1.71,.25-2.58,.14-.89,.33-2.05,.58-3.48,.02-.18,.09-.56,.21-1.16,.24-1.3,.43-2.41,.56-3.28,.13-.89,.2-1.69,.2-2.38,0-2.09-.39-3.61-1.15-4.52-.77-.92-1.89-1.39-3.33-1.39s-2.78,.43-4.16,1.28c-1.25,.76-2.39,1.75-3.41,2.93l.35-3.69-1.05-.52-4.85,1.03-.38,1.9,1.87,1.13-2.49,18.43h4.11l1.98-14.57c.93-1.32,2-2.42,3.17-3.28,1.17-.86,2.23-1.29,3.13-1.29,.5,0,.89,.06,1.16,.17,.25,.1,.45,.34,.61,.72,.16,.39,.24,1.02,.24,1.85s-.07,1.78-.22,2.76c-.15,.99-.36,2.23-.64,3.71-.13,.66-.2,1.02-.21,1.11l-.11,.66c-.24,1.28-.43,2.36-.56,3.22-.14,.85-.22,1.63-.26,2.32-.05,.91,.14,1.59,.58,2.02,.43,.43,1.1,.64,1.97,.64,.68,0,1.34-.13,1.97-.39,.62-.26,1.17-.56,1.61-.89,.45-.34,.74-.6,.88-.8l.05-.08-.72-1.24-.13,.11Z"/>
      <path class="cls-1" d="M106.04,28.53c-.7,.56-1.22,.85-1.57,.85-.06,0-.14-.02-.19-.16-.06-.14-.09-.38-.09-.69,0-.19,0-.33,.02-.43,.04-.84,.12-1.71,.25-2.58,.14-.89,.33-2.05,.58-3.48,.02-.18,.09-.56,.21-1.16,.24-1.3,.43-2.41,.56-3.28,.13-.89,.2-1.69,.2-2.38,0-2.09-.39-3.61-1.15-4.52-.77-.92-1.89-1.39-3.33-1.39s-2.78,.43-4.16,1.28c-1.25,.76-2.39,1.75-3.41,2.93l.35-3.69-1.05-.52-4.85,1.03-.38,1.9,1.87,1.13-2.49,18.43h4.11l1.98-14.57c.93-1.32,2-2.42,3.17-3.28,1.17-.85,2.23-1.29,3.13-1.29,.5,0,.89,.06,1.16,.17,.25,.1,.45,.34,.61,.72,.16,.39,.24,1.02,.24,1.85s-.07,1.78-.22,2.76c-.14,.99-.36,2.23-.64,3.71-.13,.66-.2,1.02-.21,1.11l-.11,.66c-.24,1.28-.43,2.36-.56,3.22-.13,.85-.22,1.63-.26,2.32-.05,.91,.14,1.59,.58,2.02,.43,.43,1.1,.64,1.97,.64,.68,0,1.34-.13,1.97-.39,.62-.26,1.17-.56,1.61-.89,.45-.34,.74-.6,.88-.8l.05-.08-.72-1.24-.13,.11Z"/>
      <path class="cls-1" d="M81.76,28.18c-.4,.31-.74,.53-.98,.65-.23,.11-.44,.17-.6,.17-.11,0-.21-.07-.3-.2-.1-.15-.15-.37-.15-.68,0-.15,0-.28,.02-.37l2.53-18.47-2.48,.7c-.58-.19-1.22-.34-1.88-.47-.68-.13-1.32-.19-1.91-.19-2.49,0-4.72,.76-6.62,2.25-1.9,1.49-3.37,3.36-4.39,5.57-1.01,2.21-1.53,4.37-1.53,6.43,0,2.52,.49,4.54,1.46,6.01,.98,1.49,2.54,2.24,4.63,2.24,1.18,0,2.34-.37,3.45-1.12,.97-.65,1.85-1.43,2.62-2.35l-.08,.74c-.05,.93,.16,1.62,.63,2.07,.46,.44,1.13,.66,1.98,.66,.68,0,1.35-.16,1.98-.47,.62-.31,1.16-.67,1.6-1.05,.44-.39,.72-.7,.84-.94l.04-.07-.72-1.21-.13,.1Zm-6.35-16.22c.94,0,1.71,.17,2.3,.51l-1.62,12.35c-.76,1.07-1.68,2.05-2.72,2.9-1.04,.85-2.06,1.28-3.03,1.28-1.7,0-2.56-1.94-2.56-5.75,0-1.65,.29-3.38,.86-5.12,.57-1.74,1.44-3.23,2.59-4.4,1.13-1.17,2.54-1.76,4.18-1.76"/>
      <path class="cls-1" d="M95.85,64.78c2.01-.65,3.79-1.62,5.28-2.88,1.51-1.28,2.28-2.84,2.28-4.66,0-.92-.21-1.75-.62-2.47-.41-.73-1.05-1.3-1.89-1.72-.84-.41-1.87-.62-3.08-.62-2.07,0-3.99,.66-5.71,1.96-1.71,1.3-3.09,3.03-4.1,5.16-1.01,2.13-1.55,4.4-1.61,6.78-.04,1.5,.22,2.92,.78,4.22,.55,1.3,1.43,2.37,2.61,3.17,1.18,.8,2.67,1.21,4.42,1.21,1.17,0,2.3-.21,3.37-.63,1.06-.41,2-.93,2.79-1.53s1.4-1.2,1.81-1.76l.06-.08-1.03-1.84-.14,.13c-1,.94-2.06,1.64-3.16,2.09s-2.17,.68-3.19,.68c-.91,0-1.67-.28-2.26-.83-.59-.56-1.03-1.28-1.3-2.13-.27-.86-.41-1.74-.41-2.63,0-.16,.01-.38,.03-.64,1.43-.02,3.14-.35,5.09-.98m1.05-9.8c.68,0,1.22,.21,1.62,.63,.4,.42,.61,1.09,.62,1.96,0,1.11-.46,2.11-1.38,2.97-.93,.88-2.08,1.57-3.39,2.07-1.25,.47-2.42,.72-3.47,.75,.15-1.12,.46-2.33,.94-3.59,.5-1.32,1.2-2.47,2.07-3.41,.86-.92,1.86-1.39,3-1.39"/>
    </g>
  </g>
</svg>