<?xml version="1.0" encoding="UTF-8"?>
<svg id="Capa_2" data-name="Capa 2" xmlns="http://www.w3.org/2000/svg" viewBox="0 0 200 67.89">
  <defs>
    <style>
      .cls-1 {
        fill: #98a664;
      }
    </style>
  </defs>
  <g id="Site_mock_up" data-name="Site mock up">
    <g id="v6jzp8.tif">
      <g>
        <path class="cls-1" d="M200,43.53c-1.27,.22-1.86,1.15-2.37,2.2-1.94,3.99-3.9,7.97-5.87,11.95-.24,.48-.55,.95-.9,1.36-.46,.54-1.08,.82-1.81,.75-.84-.08-1.44-.66-1.49-1.43-.05-.87,.44-1.52,1.31-1.71,.09-.02,.19-.05,.28-.05,1.56,.01,2.32-.97,2.94-2.24,.36-.75,.37-1.32-.02-2.07-1.15-2.18-2.2-4.41-3.28-6.62-.1-.2-.21-.4-.32-.6-.63-1.1-.82-1.25-2.02-1.55v-.8h6.74v.77s-.07,.06-.1,.06c-1.28,.23-1.44,.52-.89,1.69,.65,1.38,1.32,2.74,1.99,4.11,.04,.08,.09,.15,.19,.31,.73-1.53,1.47-2.96,2.11-4.43,.36-.83-.05-1.43-.95-1.6-.16-.03-.33-.06-.52-.1v-.86c.75,0,1.48,0,2.21,0,.92,.01,1.84,.04,2.76,.06v.79Z"/>
        <path class="cls-1" d="M35.77,0c.59,.08,1.18,.16,1.84,.24-1.18,6.72-2.36,13.4-3.53,20.08-.06,0-.11,0-.17,.01-1.18-6.67-2.35-13.35-3.54-20.09C30.98,.16,31.56,.08,32.14,0c1.21,0,2.41,0,3.62,0Zm-.55,2.51c0-.7-.54-1.25-1.24-1.24-.69,0-1.25,.57-1.24,1.25,0,.67,.55,1.2,1.22,1.21,.71,.01,1.26-.52,1.26-1.22Z"/>
        <path class="cls-1" d="M91.01,15.38v-1.04h6.87v1c-.34,.04-.67,.06-1,.12-1.13,.2-1.59,.74-1.59,1.89,0,2.24,.03,4.49-.02,6.73-.02,.91-.11,1.85-.35,2.73-.6,2.24-2.15,3.58-4.36,4.14-2.2,.56-4.42,.49-6.58-.21-2.69-.87-4.07-2.81-4.07-5.64,0-2.45,0-4.9,0-7.35,0-.13,0-.26,0-.4-.03-1.61-.37-1.95-1.97-1.99-.11,0-.22-.02-.36-.03v-1.01h8.34v.99c-.37,.04-.73,.06-1.07,.14-.75,.17-1.21,.67-1.21,1.43-.02,2.96-.05,5.92,.02,8.87,.04,1.68,1.17,2.94,2.88,3.45,1.42,.42,2.84,.38,4.22-.12,1.79-.65,2.75-2.01,2.82-3.85,.1-2.6,.06-5.2,.01-7.8-.02-1.42-.72-2.03-2.14-2.06-.13,0-.26,0-.44,0Z"/>
        <path class="cls-1" d="M97.87,38.02c-.28,.02-.54,.05-.8,.07-1.19,.11-1.78,.71-1.78,1.9-.01,2.26,.02,4.52-.02,6.78-.01,.82-.11,1.66-.29,2.46-.5,2.16-1.85,3.61-3.97,4.24-2.73,.81-5.45,.74-8.05-.49-2.03-.96-3.01-2.68-3.04-4.9-.03-2.52,0-5.05,0-7.57,0-.13,0-.26,0-.4-.02-1.69-.31-1.99-2-2.07-.09,0-.18-.02-.31-.03v-.99h8.34v.99c-.31,.03-.6,.05-.9,.09-.84,.11-1.4,.66-1.4,1.5-.02,2.92-.04,5.84,.02,8.76,.04,1.82,1.27,3.17,3.18,3.61,1.15,.27,2.32,.26,3.47-.06,2.01-.55,3.26-2.06,3.3-4.14,.05-2.52,.04-5.05,0-7.57-.02-1.47-.65-2.06-2.12-2.15-.15,0-.3-.02-.47-.04v-1h6.86v1.02Z"/>
        <path class="cls-1" d="M148.87,30.11v.76h-6.73v-.76s.07-.03,.08-.03c1.28-.1,1.75-.02,1.75-1.91,0-3.86,0-7.73,0-11.59,0-.9-.12-1.05-.98-1.34-.12-.04-.28-.05-.37-.13-.13-.13-.27-.3-.27-.46,0-.12,.17-.33,.3-.37,1.24-.4,2.48-.78,3.72-1.15,.26-.08,.55-.05,.86-.08v8.64c.24-.14,.4-.25,.58-.34,1.07-.5,2.1-1.12,3.22-1.46,1.89-.58,3.22,.27,3.66,2.2,.15,.66,.22,1.34,.24,2.01,.04,1.51,0,3.01,.04,4.52,.03,1.11,.29,1.35,1.4,1.46v.8h-6.27v-.79c.14-.01,.26-.03,.39-.04,.77-.1,1.09-.33,1.11-1.1,.05-1.81,.11-3.62,0-5.42-.1-1.5-1.12-2.05-2.57-1.61-.05,.02-.11,.03-.16,.04-1.58,.52-1.62,.58-1.62,2.23,0,1.34,0,2.68,0,4.01,0,1.51,.13,1.67,1.61,1.9Z"/>
        <path class="cls-1" d="M39.84,28.16c0,3.13,.07,6.21-.03,9.29-.04,1.41-1.29,2.35-2.7,2.37-.36,0-.72,.01-1.07,0-.58-.03-1.02,.2-1.36,.65-.36,.46-1.02,.46-1.37,0-.35-.45-.79-.67-1.36-.66-.54,0-1.1,.04-1.63-.07-1.33-.27-2.16-1.2-2.19-2.64-.06-2.9-.02-5.8-.01-8.7,0-.07,.03-.14,.06-.26h11.69Zm-10.36,1.14c2.92,2.92,5.87,5.86,8.9,8.89,.1-.41,.29-.83,.3-1.25,.03-2.39,.01-4.78,.01-7.17,0-.15-.02-.29-.03-.47h-9.18Z"/>
        <path class="cls-1" d="M97.76,53.55v-.8c.13-.02,.23-.04,.34-.05,.86-.08,1.22-.42,1.28-1.28,.05-.71,.04-1.43,.05-2.14,0-1.07,0-2.15,0-3.22,0-.97-.18-1.22-1.09-1.52-.12-.04-.28-.04-.37-.12-.14-.11-.32-.27-.33-.41,0-.15,.14-.39,.28-.44,1.35-.48,2.7-.94,4.06-1.38,.2-.07,.44-.04,.72-.06v2.3c.27-.15,.44-.26,.61-.34,.99-.49,1.95-1.09,3-1.43,2.35-.77,3.81,.21,4.02,2.68,.13,1.53,.08,3.08,.11,4.63,0,.4,0,.79,0,1.19,.03,1.18,.25,1.43,1.46,1.61v.8h-6.26v-.81c1.1-.13,1.41-.95,1.43-1.89,.04-1.56,.07-3.12-.04-4.68-.1-1.49-1.03-2.02-2.45-1.56-.09,.03-.18,.06-.27,.09-1.54,.6-1.62,.73-1.62,2.36,0,1.24,0,2.49,0,3.73,0,1.46,.29,1.78,1.77,1.95v.8h-6.72Z"/>
        <path class="cls-1" d="M30.35,67.69c1.19-6.74,2.36-13.42,3.54-20.1,.06,0,.11,0,.17,0,1.18,6.67,2.35,13.35,3.54,20.09-2.41,.27-4.77,.26-7.25,0Zm4.86-2.28c0-.7-.55-1.24-1.25-1.23-.67,0-1.22,.55-1.23,1.21-.02,.68,.54,1.25,1.24,1.26,.71,0,1.25-.53,1.25-1.24Z"/>
        <path class="cls-1" d="M45.16,26.14c4.84-4.76,9.67-9.53,14.55-14.33,1.61,1.83,2.95,3.79,4.14,5.95-6.22,2.85-12.41,5.69-18.6,8.52-.03-.05-.06-.09-.09-.14Zm15.98-10.04c0-.71-.55-1.26-1.25-1.25-.66,0-1.22,.57-1.24,1.23-.01,.66,.53,1.22,1.21,1.24,.73,.02,1.27-.5,1.28-1.21Z"/>
        <path class="cls-1" d="M3.99,17.71c1.41-2.03,2.75-3.97,4.15-6,4.96,4.89,9.81,9.66,14.65,14.44-.03,.05-.06,.1-.09,.14-6.17-2.83-12.34-5.66-18.72-8.58Zm4.08-.39c.7,0,1.21-.52,1.22-1.21,0-.7-.55-1.26-1.25-1.25-.67,0-1.22,.56-1.23,1.23,0,.69,.56,1.24,1.26,1.24Z"/>
        <path class="cls-1" d="M52.9,62.16c-.85,.52-1.65,1.01-2.51,1.54-.79-1.44-1.57-2.84-2.36-4.28-.37,.19-.69,.37-1.05,.56,.72,1.46,1.43,2.88,2.17,4.37-.88,.39-1.73,.77-2.67,1.19-2.09-6.54-4.16-13.01-6.23-19.48,.05-.03,.1-.05,.15-.08,4.15,5.38,8.31,10.75,12.51,16.18Z"/>
        <path class="cls-1" d="M22.36,65.88c2.78-6.29,5.52-12.48,8.26-18.67,.06,.02,.12,.03,.18,.05-.46,6.75-.92,13.5-1.38,20.34-.98-.17-1.89-.33-2.86-.5,.36-1.62,.71-3.17,1.07-4.76-.38-.1-.72-.18-1.15-.29-.42,1.55-.85,3.1-1.29,4.71-.95-.3-1.86-.58-2.83-.89Z"/>
        <path class="cls-1" d="M64.3,18.59c.41,.91,.8,1.76,1.22,2.67-1.54,.62-3.01,1.21-4.53,1.81,.14,.37,.27,.72,.42,1.11,1.53-.54,3.03-1.07,4.6-1.62,.29,.94,.56,1.82,.86,2.81-6.75,1.29-13.42,2.56-20.1,3.83-.02-.05-.05-.1-.07-.16,5.84-3.47,11.68-6.94,17.59-10.46Z"/>
        <path class="cls-1" d="M45.26,41.63c6.18,2.83,12.36,5.66,18.6,8.53-.53,.87-1.01,1.68-1.52,2.52-1.37-.91-2.69-1.79-4.07-2.7-.23,.33-.44,.63-.68,.98,1.3,.94,2.59,1.88,3.95,2.87-.6,.76-1.17,1.49-1.81,2.3-4.89-4.82-9.72-9.58-14.56-14.34,.03-.05,.06-.1,.09-.15Z"/>
        <path class="cls-1" d="M145.42,48.03c-1.34,0-2.55,0-3.76,0s-2.41,0-3.67,0c.24,1.56,.78,2.89,2.21,3.57,1.92,.91,3.06-.55,4.33-1.62,.19,.16,.38,.31,.56,.46-1.13,2.42-4.77,4.03-7.26,3.2-1.82-.61-2.81-1.97-3.16-3.79-.4-2.12-.07-4.1,1.44-5.74,1.47-1.6,4.02-2.17,6.04-1.37,1.44,.57,2.3,1.64,2.61,3.16,.09,.44,.36,.84,.51,1.28,.09,.25,.09,.53,.14,.87Zm-3.6-1.12c-.25-.85-.37-1.67-.72-2.37-.52-1.06-1.69-1.15-2.46-.27-.65,.75-.81,1.65-.74,2.64h3.92Z"/>
        <path class="cls-1" d="M128.87,25.34h-7.35c-.16,1.16,.79,2.93,1.97,3.53,1.96,.98,3.16-.41,4.46-1.57,.2,.17,.39,.33,.62,.53-1.6,2.06-3.48,3.51-6.2,3.36-1.52-.09-2.72-.83-3.54-2.12-1.52-2.38-1.07-5.96,.96-7.9,1.99-1.9,5.54-1.93,7.34-.07,.64,.67,.92,1.49,1.1,2.37,.08,.35,.31,.66,.43,1.01,.09,.25,.12,.52,.2,.87Zm-3.79-1.08c.01-.9-.11-1.71-.55-2.44-.51-.84-1.38-1.05-2.12-.54-.81,.57-1.29,2-.98,2.98h3.65Z"/>
        <path class="cls-1" d="M21.49,65.54c-.68-.29-1.26-.55-1.89-.82,.7-1.49,1.37-2.93,2.06-4.38-.96-.51-1.89-1.01-2.84-1.52-.18,.29-.35,.58-.56,.92,.61,.35,1.19,.69,1.81,1.05-.56,1.09-1.12,2.17-1.72,3.34-1.1-.65-2.17-1.28-3.3-1.95,4.21-5.45,8.36-10.82,12.51-16.19,.05,.02,.1,.05,.16,.07-2.07,6.46-4.13,12.93-6.22,19.47Z"/>
        <path class="cls-1" d="M12.63,55.35c.41,.39,.89,.85,1.4,1.33-.81,.93-1.61,1.84-2.5,2.86-.86-.93-1.7-1.83-2.59-2.8,5.28-4.19,10.6-8.42,15.93-12.65,.04,.04,.09,.07,.13,.11-3.56,5.79-7.12,11.57-10.71,17.41-.33-.24-.6-.43-.87-.63-.25-.19-.5-.39-.78-.61,1.03-1.27,2.04-2.51,3.04-3.75-.8-.72-1.57-1.42-2.34-2.12-.22,.26-.45,.53-.71,.84Z"/>
        <path class="cls-1" d="M53.67,6.28c.58,.44,1.1,.84,1.66,1.27-1.03,1.27-2.03,2.49-3.04,3.74,.79,.72,1.57,1.42,2.35,2.13,.25-.25,.49-.49,.76-.75-.46-.49-.92-.98-1.41-1.49,.76-.87,1.55-1.78,2.43-2.79,.85,.94,1.67,1.86,2.54,2.83-5.22,4.14-10.54,8.37-15.86,12.6-.04-.04-.09-.08-.13-.12,3.55-5.78,7.1-11.55,10.7-17.41Z"/>
        <path class="cls-1" d="M5.14,38.06c-.05-.41-.09-.78-.13-1.17-1.28,.12-2.48,.23-3.72,.35-.05-.43-.08-.8-.12-1.18H.08c-.03-.53-.05-1.04-.08-1.64,6.85,.36,13.61,.73,20.38,1.09,.01,.06,.02,.12,.03,.18-6.48,1.97-12.97,3.94-19.53,5.93-.12-.57-.22-1.07-.33-1.6,.37-.09,.7-.16,1.06-.25-.05-.39-.1-.76-.15-1.17,1.22-.18,2.41-.35,3.68-.53Z"/>
        <path class="cls-1" d="M64.28,49.31c-5.9-3.51-11.72-6.97-17.53-10.42,.02-.06,.04-.12,.07-.17,6.65,1.27,13.3,2.53,20.03,3.81-.15,.56-.29,1.06-.43,1.6-.37-.1-.69-.19-1.06-.29-.13,.35-.27,.7-.43,1.11-1.16-.41-2.3-.81-3.51-1.24-.14,.36-.28,.69-.44,1.1,1.16,.47,2.29,.94,3.46,1.42-.15,.4-.29,.74-.44,1.13,.32,.16,.62,.3,.98,.48-.23,.47-.45,.93-.71,1.47Z"/>
        <path class="cls-1" d="M59.1,56.81c-.42,.44-.78,.82-1.15,1.21-.28-.26-.52-.49-.79-.75-.29,.26-.57,.51-.89,.8-.84-.91-1.66-1.8-2.53-2.73-.29,.26-.57,.5-.9,.78,.81,.96,1.6,1.9,2.41,2.86-.32,.28-.62,.53-.93,.8,.22,.29,.42,.56,.65,.87-.42,.32-.82,.62-1.3,.98-3.58-5.83-7.14-11.62-10.7-17.41,.04-.04,.09-.08,.13-.12,5.31,4.22,10.62,8.44,16,12.71Z"/>
        <path class="cls-1" d="M3.66,49.33c-.39-.86-.75-1.64-1.05-2.32,.54,.05,1.08,.2,1.58,.11,.64-.11,.91-.59,.92-1.25,0-.32-.09-.64-.05-.95,.03-.23,.2-.43,.31-.65,.21,.14,.46,.25,.63,.43,.12,.12,.14,.34,.19,.52,.2,.83,.19,.84,1.1,.62,0-.82-.19-1.59-.71-2.25-.47-.61-1.11-.78-1.81-.53-.64,.23-.91,.66-.9,1.46,0,.26,.1,.53,.06,.78-.03,.21-.18,.4-.28,.6-.19-.12-.46-.19-.56-.36-.15-.25-.16-.57-.28-.85-.07-.16-.21-.36-.34-.39-.23-.04-.48,.04-.82,.08-.14-.48-.34-1.14-.55-1.85,6.73-1.28,13.4-2.55,20.07-3.82,.02,.05,.05,.11,.07,.16-5.83,3.47-11.67,6.93-17.58,10.45Z"/>
        <path class="cls-1" d="M66.47,39.39c.3,.13,.62,.27,.99,.42-.11,.52-.23,1.12-.37,1.81-6.55-1.99-13.04-3.96-19.54-5.93,0-.06,0-.12,.01-.18,6.76-.36,13.52-.72,20.39-1.09-.04,.96-.09,1.86-.13,2.75-.29-.32-.51-.67-.82-.87-.68-.43-1.54-.17-1.93,.55-.16,.3-.24,.64-.42,.92-.11,.17-.41,.36-.55,.31-.16-.05-.36-.36-.35-.54,.03-.44,.18-.87,.29-1.36-.25-.12-.53-.26-.86-.41-.45,.87-.64,1.73-.39,2.64,.18,.65,.64,.99,1.32,1.06,.66,.07,1.07-.15,1.41-.8,.14-.27,.21-.57,.37-.82,.11-.17,.32-.26,.48-.39,.13,.19,.37,.38,.37,.57-.02,.42-.15,.84-.26,1.36Z"/>
        <path class="cls-1" d="M39.79,4.41c-.18,.29-.32,.53-.5,.81,.79,.52,1.59,.83,2.51,.71,.72-.1,1.17-.55,1.31-1.22,.14-.66-.15-1.13-.68-1.48-.25-.17-.55-.27-.77-.46-.14-.12-.3-.41-.25-.53,.07-.15,.37-.3,.54-.27,.42,.07,.82,.25,1.32,.42,.16-.24,.36-.53,.61-.9,.46,.15,1.04,.35,1.72,.57-2.77,6.26-5.51,12.47-8.25,18.67-.06,0-.11-.02-.17-.03,.46-6.77,.92-13.54,1.38-20.39,.97,.17,1.87,.33,2.77,.49-.58,.23-1.08,.5-1.25,1.14-.18,.67,0,1.17,.57,1.57,.23,.16,.52,.25,.72,.44,.18,.17,.26,.43,.39,.65-.24,.09-.5,.28-.72,.25-.41-.07-.8-.27-1.23-.43Z"/>
        <path class="cls-1" d="M30.62,20.71c-2.74-6.2-5.48-12.39-8.25-18.67,.9-.29,1.75-.56,2.6-.83-.36,.51-.64,1-.49,1.62,.16,.66,.55,1,1.33,1.09,.28,.03,.58-.03,.84,.05,.2,.05,.49,.24,.5,.39,.02,.17-.2,.46-.37,.52-.42,.14-.88,.18-1.39,.27-.02,.26-.03,.57-.05,.92,.91,.09,1.73-.02,2.47-.49,.61-.39,.84-1.02,.65-1.72-.18-.67-.58-.97-1.37-1.03-.23-.02-.47,.03-.67-.03-.23-.07-.42-.23-.63-.35,.17-.19,.31-.48,.52-.56,.34-.13,.74-.12,1.15-.18,.01-.3,.36-.64-.1-1.03,.66-.12,1.33-.23,2.06-.36,.46,6.83,.92,13.59,1.38,20.36-.06,.01-.12,.03-.18,.04Z"/>
        <path class="cls-1" d="M1.95,22.56c1.35,1.18,2.65,2.32,3.99,3.51,.14-.45,.27-.84,.39-1.21-.03-.05-.04-.09-.07-.11-.25-.24-.72-.49-.72-.73,0-.44,.26-.89,.46-1.31,.05-.1,.29-.19,.42-.16,.67,.17,.96-.18,1.13-.75,.04-.12,.09-.24,.21-.52H2.44c.46-.99,.83-1.8,1.22-2.67,5.9,3.51,11.73,6.97,17.57,10.44-.02,.06-.04,.11-.06,.17-6.67-1.27-13.34-2.54-20.09-3.82,.3-.96,.57-1.85,.86-2.81Z"/>
        <path class="cls-1" d="M20.41,32.35c-.22,.03-.43,.09-.65,.1-2.52,.13-5.04,.25-7.56,.38-3.08,.16-6.17,.34-9.25,.51-.83,.05-1.65,.09-2.48,.15-.34,.02-.49-.1-.45-.45,.03-.35,.04-.71,.06-1.11,1.62,.09,3.19,.18,4.84,.27,.03-.38,.06-.75,.09-1.16-.63-.07-1.22-.14-1.93-.23,.16-.24,.25-.45,.41-.57,.22-.16,.49-.34,.75-.36,1-.09,1.14-.76,1.13-1.65-.82,.36-1.6,.71-2.38,1.06-.57-1.44-1.52-1.56-2.65-.2,.18-.94,.34-1.82,.53-2.78,6.57,1.99,13.06,3.96,19.56,5.94v.12Z"/>
        <path class="cls-1" d="M9.57,49.86c-1.63,.42-3.23,.83-4.89,1.26-.17-.3-.35-.6-.57-.98,6.23-2.86,12.41-5.69,18.58-8.52,.03,.05,.07,.09,.1,.14-4.84,4.77-9.69,9.54-14.56,14.34-.27-.32-.5-.59-.76-.9,.54-.78,1.07-1.55,1.6-2.32,.19-.28,.38-.56,.58-.84q.76-1.09-.09-2.19Z"/>
        <path class="cls-1" d="M47.55,32.22c6.48-1.97,12.97-3.94,19.52-5.92,.08,.34,.2,.64,.2,.95,0,.14-.18,.34-.32,.42-1.23,.66-2.46,1.3-3.7,1.94-.27,.14-.54,.26-.39,.62,.16,.39-.19,.98,.6,1.13,1.48,.28,2.93,.67,4.38,1.02,.03,.05,.05,.08,.06,.12,.12,1.04,.1,1.02-.95,.95-1.63-.12-3.27-.19-4.91-.28-3.38-.18-6.77-.37-10.15-.55-1.11-.06-2.22-.09-3.33-.15-.33-.02-.66-.06-1-.09,0-.05-.01-.1-.02-.15Z"/>
        <path class="cls-1" d="M120.54,42.72h6.88v.87c-.29,0-.57,0-.85,0-.47,0-.64,.27-.59,.7,.02,.17,.05,.34,.12,.49,.79,1.81,1.6,3.61,2.43,5.49,.11-.22,.2-.36,.26-.51,.61-1.37,1.23-2.75,1.82-4.13,.56-1.3,.28-1.78-1.12-2-.13-.02-.25-.05-.42-.09v-.82h5.25v.77s-.06,.07-.09,.07c-1.19,.06-1.77,.79-2.2,1.81-1.13,2.64-2.33,5.26-3.47,7.9-.18,.42-.41,.59-.84,.52-.07-.01-.15-.01-.23,0-.59,.1-.88-.14-1.13-.7-1.18-2.62-2.42-5.22-3.62-7.83-.38-.82-.82-1.51-1.82-1.69-.16-.03-.24-.51-.39-.87Z"/>
        <path class="cls-1" d="M154.18,52.7v.87h-7.36v-.8c1.38-.25,1.61-.53,1.61-1.95,0-1.49-.02-2.98,0-4.46,.02-.87-.29-1.45-1.15-1.69-.29-.08-.54-.18-.53-.6,.01-.42,.32-.42,.56-.52,1.14-.44,2.29-.87,3.44-1.28,.27-.1,.57-.13,.95-.2v2.77s.09,.03,.14,.04c.24-.43,.48-.86,.73-1.28,.75-1.26,1.22-1.42,2.6-.91,.51,.19,1.02,.38,1.64,.61-.42,.95-.82,1.87-1.24,2.83-.66-.21-1.22-.41-1.79-.57-.99-.28-2.06,.53-2.06,1.55,0,1.37-.01,2.75,.04,4.12,.04,1.07,.46,1.43,1.51,1.48,.28,.01,.56,0,.9,0Z"/>
        <path class="cls-1" d="M114.41,30.06v.84h-7.43v-.75s.06-.06,.09-.07c1.26-.15,1.57-.5,1.58-1.79,.01-1.53,0-3.05,0-4.58,0-1.09-.17-1.31-1.18-1.73-.27-.11-.62-.17-.5-.59,.04-.15,.15-.34,.28-.4,1.31-.52,2.63-1.02,3.96-1.5,.2-.07,.44-.05,.71-.08v2.8s.07,.03,.11,.04c.19-.34,.37-.69,.57-1.02,.18-.31,.37-.61,.58-.9,.42-.57,1-.73,1.66-.53,.7,.22,1.38,.5,2.2,.81-.42,.96-.83,1.89-1.25,2.84-.67-.22-1.21-.43-1.77-.58-1.02-.29-2.07,.54-2.07,1.6,0,1.22,0,2.45,0,3.67,0,1.48,.42,1.9,1.93,1.92,.17,0,.33,0,.54,0Z"/>
        <path class="cls-1" d="M140.75,27.95c.17,.1,.4,.22,.65,.36-.02,.08-.02,.16-.06,.22-1.79,2.81-6.31,3.59-8.97,1.55-2.28-1.76-2.67-5.12-.88-7.6,1.77-2.45,5.62-3.48,8.39-2.25,.64,.28,1.19,.66,1.4,1.38,.28,.93-.3,1.79-1.26,1.72-.52-.04-1.07-.31-1.52-.6-.38-.24-.66-.67-.98-1.01-.99-1.06-2.26-.98-2.9,.32-.39,.78-.58,1.71-.67,2.59-.12,1.19,.09,2.37,.67,3.44,.92,1.71,2.69,2.23,4.37,1.25,.62-.37,1.16-.88,1.77-1.37Z"/>
        <path class="cls-1" d="M8.86,11.1c.31-.32,.54-.57,.91-.96,1.09,1.2,2.16,2.38,3.27,3.6,.34-.4,.56-.66,.81-.95-.63-.66-1.3-1.36-1.97-2.06,.01-.03,.03-.05,.04-.08,.83,.27,1.68,.48,2.47,.81,.61,.26,1.07,.19,1.49-.29,.09-.1,.2-.17,.34-.29-.96-1.29-1.9-2.57-2.88-3.89,.31-.23,.59-.44,.95-.71,3.58,5.81,7.14,11.6,10.7,17.4-.04,.04-.08,.08-.12,.12-5.32-4.22-10.64-8.45-16.01-12.71Z"/>
        <path class="cls-1" d="M165.61,45.79c-.56,.17-.85,0-1.08-.54-.41-.97-1.1-1.67-2.26-1.66-.49,0-.89,.17-1.11,.64-.21,.46-.06,.89,.26,1.19,.42,.39,.91,.73,1.39,1.04,.72,.48,1.51,.86,2.19,1.39,1.28,1,1.66,2.47,1.11,3.94-.49,1.31-1.73,2.11-3.32,2.05-.82-.03-1.64-.2-2.46-.29-.18-.02-.37-.01-.54,.03-.34,.09-.67,.22-1.08,.37-.06-.71-.11-1.26-.16-1.82-.05-.54-.09-1.08-.14-1.66,.51-.09,.85-.12,1.11,.49,.44,1.03,1.26,1.68,2.44,1.74,.63,.03,1.16-.3,1.37-.81,.24-.6-.04-1.04-.47-1.39-.51-.41-1.09-.74-1.62-1.12-.63-.45-1.3-.85-1.84-1.39-1.58-1.54-1.26-3.96,.68-5,1.73-.93,3.53-.7,5.31-.1,.1,.03,.21,.22,.21,.34,.02,.84,0,1.69,0,2.56Z"/>
        <path class="cls-1" d="M158.97,21.52h-1.35c-.14-.48-.05-.73,.39-.98,1.42-.79,2.53-1.91,3.21-3.39,.24-.51,.53-.54,1.02-.42v3.26h3.5c-.14,.53-.26,1-.4,1.51h-3.05c-.02,.23-.04,.41-.04,.59,0,1.92,0,3.84,0,5.76,0,.54,.02,1.09,.6,1.35,.59,.27,1.15,.13,1.64-.25,.34-.26,.64-.57,.97-.86,.46,.43,.42,.84,.01,1.3-.99,1.14-2.16,1.85-3.72,1.81-1.51-.04-2.62-.96-2.72-2.48-.11-1.73-.06-3.46-.07-5.19,0-.65,0-1.31,0-2.02Z"/>
        <path class="cls-1" d="M98.87,21.5h-1.35c-.17-.51,.01-.74,.43-.97,1.4-.78,2.49-1.9,3.18-3.34,.24-.49,.5-.58,1.01-.45v3.26h3.52c-.13,.48-.22,.9-.37,1.29-.04,.11-.28,.21-.43,.21-.86,.02-1.73,0-2.65,0-.02,.22-.05,.4-.05,.57,0,1.9,0,3.81,0,5.71,0,.55,0,1.13,.6,1.42,.63,.3,1.22,.11,1.73-.31,.31-.25,.58-.53,.87-.8,.5,.59,.51,.69,.04,1.27-.95,1.17-2.15,1.87-3.7,1.84-1.54-.03-2.66-.96-2.75-2.51-.11-1.82-.06-3.65-.07-5.48,0-.54,0-1.09,0-1.72Z"/>
        <path class="cls-1" d="M39.52,65.49c.58-.11,1.13-.22,1.75-.33,.06,.23,.13,.46,.21,.76-.69,.15-1.33,.28-2.01,.42,.04,.36,.08,.69,.13,1.07-.33,.05-.64,.1-1.07,.17-.46-6.79-.92-13.56-1.38-20.32,.05-.01,.11-.02,.16-.03,.09,.18,.18,.35,.26,.53,2,4.52,4,9.04,6,13.56,.45,1.02,.28,1.41-.78,1.73-.21,.06-.43,.11-.68,.18-.14-.42-.26-.81-.4-1.21-.97,.22-1.92,.43-2.92,.65,.05,.33,.11,.66,.17,1.05,.62-.11,1.21-.21,1.85-.32,.06,.24,.13,.48,.21,.77-.36,.08-.67,.14-.98,.21q-.82,.18-.54,1.12Z"/>
        <path class="cls-1" d="M184.67,42.67c.01,.13,.02,.15,.01,.17q-.34,1.36-1.73,1.36h-1.69c-.01,.19-.04,.35-.04,.52,0,1.94,0,3.88,0,5.82,0,.54,.05,1.08,.61,1.36,.57,.28,1.11,.13,1.59-.23,.36-.27,.68-.59,1.03-.9,.39,.42,.43,.81,.02,1.29-1.08,1.24-2.36,1.98-4.05,1.8-1.3-.14-2.15-.92-2.38-2.2-.08-.46-.11-.93-.12-1.4-.01-1.99,0-3.99,0-6.03h-1.32c-.19-.48-.11-.74,.35-.98,1.41-.72,2.43-1.87,3.51-3.87h.76c0,.54,0,1.08,0,1.61s0,1.08,0,1.69h3.44Z"/>
        <path class="cls-1" d="M40.25,21.83c2.06-6.45,4.12-12.9,6.22-19.45,.76,.32,1.47,.63,2.18,.93-.9,.13-1.66,.46-2.17,1.23-.5,.75-.67,1.56-.36,2.42,.48,1.33,2.26,2.11,3.55,1.57,1.48-.61,1.98-2.28,1.13-4.08,.75,.46,1.39,.86,2.1,1.3-4.19,5.42-8.34,10.79-12.49,16.17l-.16-.08Z"/>
        <path class="cls-1" d="M27.56,21.92c-4.15-5.37-8.3-10.73-12.49-16.16,.7-.44,1.34-.84,1.99-1.24-.39,.8-.55,1.59-.22,2.44,.32,.82,.84,1.42,1.71,1.67,1.4,.41,3.11-.58,3.4-1.96,.34-1.6-.75-2.97-2.74-3.28,.83-.36,1.53-.67,2.3-1,2.09,6.53,4.15,13,6.22,19.46l-.15,.08Z"/>
        <path class="cls-1" d="M118.79,42.11v.68c0,2.65,0,5.31,0,7.96,0,1.42,.2,1.68,1.59,2.02v.78h-6.65v-.83c.17-.01,.3-.02,.43-.03,.86-.06,1.26-.43,1.29-1.32,.05-1.35,.04-2.71,.05-4.06,0-.56-.03-1.13-.02-1.69,0-.49-.24-.77-.67-.93-.26-.1-.55-.16-.79-.3-.14-.08-.31-.28-.31-.43,0-.15,.16-.38,.3-.43,1.33-.47,2.67-.91,4.01-1.35,.22-.07,.47-.05,.76-.08Z"/>
        <path class="cls-1" d="M168.51,53.55v-.77c.06-.03,.1-.06,.13-.06,1.27-.09,1.58-.33,1.62-1.59,.05-1.82,.02-3.65,.02-5.48,0-.5-.24-.81-.71-.97-.28-.1-.58-.18-.84-.32-.13-.07-.23-.27-.24-.42,0-.13,.11-.34,.22-.38,1.42-.49,2.85-.96,4.28-1.41,.15-.05,.33,0,.58,0v.62c0,2.69,0,5.38,0,8.07,0,1.34,.26,1.66,1.58,1.92v.8h-6.65Z"/>
        <path class="cls-1" d="M171.76,39.7s-.1,0-.17-.01c-1.05-.07-1.84-.75-1.92-1.65-.08-.87,.62-1.7,1.63-1.94,1-.24,2.06,.21,2.46,1.03,.6,1.24-.4,2.56-2.01,2.56Z"/>
        <path class="cls-1" d="M116.8,39.7c-.11-.02-.4-.05-.66-.14-.71-.26-1.18-.74-1.25-1.51-.07-.79,.36-1.32,1-1.69,.81-.47,1.92-.38,2.6,.18,.6,.5,.82,1.22,.56,1.92-.27,.76-1.12,1.27-2.25,1.25Z"/>
        <path class="cls-1" d="M50.03,5.84c-.02,.88-.77,1.76-1.51,1.75-.71,0-1.32-.61-1.29-1.28,.03-.87,.81-1.77,1.52-1.77,.71,0,1.3,.6,1.28,1.29Z"/>
        <path class="cls-1" d="M20.72,6.41c-.03,.67-.64,1.21-1.34,1.18-.73-.03-1.49-.98-1.46-1.82,.02-.65,.66-1.25,1.32-1.23,.75,.02,1.52,.99,1.48,1.87Z"/>
        <path class="cls-1" d="M64.35,30.29c1.05-.48,2.1-.96,3.22-1.47,.09,.77,.18,1.48,.27,2.28-1.22-.24-2.34-.47-3.47-.7,0-.04-.02-.07-.02-.11Z"/>
        <path class="cls-1" d="M6.64,54.13c-.44-.65-.84-1.22-1.29-1.88,1.18-.35,2.3-.68,3.57-1.06-.8,1.03-1.51,1.95-2.28,2.94Z"/>
        <path class="cls-1" d="M14.09,10.15c-1.04-.34-2.07-.69-3.23-1.07,.51-.45,.95-.83,1.44-1.27,.63,.77,1.23,1.51,1.84,2.25-.02,.03-.04,.06-.06,.09Z"/>
        <path class="cls-1" d="M45.59,65.87c-.64,.21-1.18,.38-1.83,.59,.3-.94,.56-1.77,.87-2.76,.35,.79,.64,1.44,.96,2.17Z"/>
        <path class="cls-1" d="M.95,30.62c.2-.43,.33-.8,.54-1.11,.06-.08,.51-.04,.55,.04,.16,.35,.22,.74,.35,1.23-.53-.06-.89-.1-1.44-.16Z"/>
        <path class="cls-1" d="M3.32,22.27c.54,.05,1.07,.1,1.7,.15-.13,.34-.24,.64-.37,1-.49-.37-.92-.71-1.36-1.04,.01-.04,.02-.07,.03-.11Z"/>
        <path class="cls-1" d="M43.38,63.93c-.18,.69-.34,1.26-.49,1.83h-.09c-.14-.48-.27-.97-.42-1.51,.31-.1,.59-.19,1-.32Z"/>
      </g>
    </g>
  </g>
</svg>