<?xml version="1.0" encoding="UTF-8"?>
<svg id="Capa_2" data-name="Capa 2" xmlns="http://www.w3.org/2000/svg" xmlns:xlink="http://www.w3.org/1999/xlink" viewBox="0 0 862.78 1338.94">
  <defs>
    <style>
      .cls-1, .cls-2, .cls-3, .cls-4, .cls-5 {
        fill: none;
      }

      .cls-6 {
        clip-path: url(#clippath);
      }

      .cls-7 {
        fill: #f0f0e7;
      }

      .cls-8 {
        fill: #9e681f;
      }

      .cls-9 {
        fill: #c28238;
      }

      .cls-10 {
        fill: #1d1d1b;
      }

      .cls-11 {
        fill: #5a623b;
      }

      .cls-12 {
        fill: #828f59;
      }

      .cls-2 {
        stroke: #d49c5e;
      }

      .cls-2, .cls-3, .cls-4 {
        stroke-width: 4px;
      }

      .cls-2, .cls-3, .cls-4, .cls-5 {
        stroke-miterlimit: 10;
      }

      .cls-3 {
        stroke: #5a623b;
      }

      .cls-4 {
        stroke: #47553a;
      }

      .cls-13 {
        fill: url(#Degradado_sin_nombre_17);
      }

      .cls-5 {
        stroke: #406533;
      }
    </style>
    <clipPath id="clippath">
      <path class="cls-1" d="M691.33,44.71c-71.12,23.29-125.98,42.95-156.5,67.36-77.56,61.99-73.61,167.88-80.94,212.33-12.52,76.05-2.99,150.03,6.44,222.99,6.08,47.14,3.94,84.82,6.44,135.08,0,0,1.61,32.59-2.17,32.88-3.81,.33-3.19-61.59-42.87-102.2-4.4-4.53-13.44-13.76-17.87-11.43-9.33,4.86-9,42.44,8.57,80.78,11.4,24.93,55.59,47.67,57.92,69.32,1.31,12.58-4.5,42.84-3.55,51.44,.1,.95,.2,5.78,.85,8.7,1.05,4.76,3.15,16.92,3.94,30.45,0,0,.82,13.96,1.35,33.77,.33,13.54-1.05,16.26-1.48,31.64-.3,10.74-.13,24.87,1.48,46.25,2.4,32.52,.69,58.38,7.13,110.08,4.43,35.58,7.32,41.62,10.02,74.34,3.38,41.32,5.09,61.99,0,80.75-7.39,27.14,2.69-.16-15.01,47.17-7.14,19.08-33.52,67.12-31.06,72.52h2.97c7.41-4.96,21.8-37.74,37.39-66.08,9.69-17.67,32.88-95.76,31.44-147.96-1.71-61.82-5.91-59.98-9.3-97.2-4.27-47.17-5.91-74.54-2.86-118.39,2.07-29.8,3.29-39.06,3.45-49.21,.2-11.37-.95-11.07-.59-19.65,.49-10.55-4.39-31.44-5.78-38.01,0,0-6.9-39.19-4.67-57.78,2.56-21.39,40.23-32.58,47.78-61.19,12.81-48.45,9.74-88.08,3.66-90.31-6.14-2.27-24.9,34.82-26.44,37.88-22.01,43.85-24.01,78.87-27.13,78.61-4.34-.36,1.18-67.11,0-137.22-2.33-135.38-12.39-136.05,6.5-205.4,6.57-24.05,20.43-64.12,54.17-130.06,26.41-51.58,39.19-66.36,54.17-81.47,5.91-5.98,47.76-47.1,102.32-67.07,57.88-21.16,101.63-19.32,126.76-17.48,15.16,1.11,23.55,2.22,24.17-1.72,.92-6.01-25.89-16.62-50.75-21.42-24.31-4.69-47.11-10.8-72.41-10.8-14.74,0-30.32,2.07-47.54,7.71"/>
    </clipPath>
    <linearGradient id="Degradado_sin_nombre_17" data-name="Degradado sin nombre 17" x1="-4004.42" y1="2464.93" x2="-4003.42" y2="2464.93" gradientTransform="translate(3211391.99 -5214744.07) rotate(-90) scale(1302.58 -1302.58)" gradientUnits="userSpaceOnUse">
      <stop offset="0" stop-color="#c28238"/>
      <stop offset=".31" stop-color="#c28238"/>
      <stop offset=".36" stop-color="#c28238"/>
      <stop offset=".39" stop-color="#b58a43"/>
      <stop offset=".45" stop-color="#949f62"/>
      <stop offset=".46" stop-color="#93a164"/>
      <stop offset=".53" stop-color="#93a164"/>
      <stop offset="1" stop-color="#93a164"/>
    </linearGradient>
  </defs>
  <g id="Site_mock_up" data-name="Site mock up">
    <g>
      <g>
        <g>
          <path class="cls-2" d="M427.74,832.59c-3.16-1.09-23.67,11.91-35.61,16.08-14.28,5-23.39,1.28-24.66,3.81m36.04,.31c.73,2.57,2.52,23.39-4.24,36.14-6.17,11.65-16.55,16.08-19.3,17.15m-39.59-22.01c-5.21,5.42-21.5,10.76-38.31,16.29-21.91,7.2-40.68,2.8-47.89,.71m221.05-82.8c-3.95,1.14-25.12,2.1-31.03,4.73-3.39,1.52-10.86,4.9-18.73,10.64-7.81,5.69-11.45,10.36-15.06,13.94-14.59,14.43-26.53,8.68-48.86,20.9-14.54,7.96-23.36,17.98-32.69,28.6-12.09,13.75-12.14,18.39-25.35,35.94-6.53,8.67-17.77,23.6-32.69,35.94-10.51,8.68-29.53,21.61-59.51,28.6m384.89-154.03c8-.54,22.06-8.06,30.73-8.22,6.25-.11,12.33-.11,18.23,0m-97.33,11.65c14.28-4.23,41.14-5.24,48.37-3.43,14.34,3.59,20.05,11.6,32.88,11.79,9.78,.15,17.86-4.33,23.23-8.22m15.76,59.38c6.42-5.26,31.54-17.05,35.71-18.64,16.39-6.26,26.72-1.41,44.31-7.15,7.51-2.45,13.2-5.81,16.8-8.22m-128.41,55.39c7.3-3.04,16.81,2,23.7,9.21m-54.33-39.59c-2.38,14.65,10.26,21.8,7.87,36.45m-13.64-71.52c-1.59,6.27,.84,24.04,4.71,32.92,4.24,9.73,10.75,10.4,21.44,20.37,16.18,15.09,13.4,24.87,30.02,42.53,8.11,8.61,16.13,14.1,21.09,17.15m-173.41-135.99c24.56-.36,38.59,2.85,41.75,6,.57,.57,2.67,2.84,6.18,4.48,4.06,1.89,7.68,1.85,9.45,1.87,0,0,10.68,.09,22.91,3.36,8.82,2.36,14.96,6.5,17.45,8.22,8.9,6.12,7.76,9.05,15.63,15.31,11.94,9.49,16.05,3.92,28.72,13.82,5.45,4.26,8.53,8.29,16.72,12.32,1.33,.65,4.77,2.28,9.82,3.73,18.89,5.43,39.42,2.36,42.54,1.87,16-2.53,16-5.18,35.63-10.08,24.99-6.24,42.43-10.34,57.81-1.87,9.12,5.03,14.75,12.96,18.18,19.42m-199.44,118.64c1.94,.18,13.86-2.92,15.98-2.86,5.36,.15,10.27-.17,14.65-.71m-75.16-14.03c1.1-7.3,19-15,25.62-16.54,7.28-1.69,12.36-13.16,13.22-12.51m-60.77,36.28c.87,2.33,5.8,15.02,10.38,18.88,6.65,5.61,14.12,6.04,16.44,6.07m-89.21-77.78c9.57,5.85,16.48,12.19,21.1,17.08,7.33,7.74,11.59,14.68,12.59,16.33,7.76,12.85,5.25,16.03,9.26,19.67,12.73,11.59,41.06-17.87,66.63-7.05,.94,.4,9.27,7.94,25.91,23.01,11.19,10.13,17.07,15.69,27.02,20.04,7.79,3.41,14.84,4.67,19.62,5.2m-366.66-28.45c.24,6.43,.48,19.88,.71,26.31m56.46-81.31c-1.59,3.72-11.36,17.55-11.08,26.08,.38,11.47,5.17,19.72,7.51,23.23m60.27-94.74c-8.1-3.61-27.95-.28-31.32,.95-4.7,1.71-6.22,4.86-12.51,8.58-5.01,2.97-9.72,4.32-12.86,5m-19.66,38.24c-3.09-1.34-24.16,14.49-32.16,15.58-14.1,1.92-21.85-5.78-23.23-3.79m179.23-105.17c-13.31,3.34-30.74,17.61-35.03,22.2-2.46,2.64-3.44,4.38-12.35,20.06-12.1,21.28-12.44,21.87-13.81,23.34-6.47,6.98-14.58,10.1-30.52,16.05-20.03,7.47-22.39,5.22-30.89,10.21-13.53,7.95-17.25,19.37-24.71,31.36-7.98,12.82-22.33,29.63-50.15,44.49m202.71-69.56c-20.24,17.33-48.07,44.71-56.39,57.17-14.14,21.17-16.4,32.57-30.68,40.52-11.84,6.59-23.59,6.14-46.01,5.3-29.57-1.11-39.61-8-50.03,0-10.19,7.83-9.46,21.23-17.53,21.96-5.58,.5-7.8-5.74-20.08-11.36,0,0-6.12-2.8-14.97-4.54-19.33-3.8-38.43,3.65-45.65,6.82m291.52-12.32c-4.57,3.47-22.27,24.42-26.66,33.33-7.1,14.4-1.06,20.85-7.51,31.45-6.68,10.98-15.96,8.66-33.95,23.23-7.31,5.92-12.49,11.74-15.72,15.72m102.58-142.72c2.22,2.29,12.84,5.52,16.73,9.29,7.38,7.16,11.07,10.74,14.65,13.22,7.59,5.28,9.1,3.78,16.8,9.29,6.14,4.4,6.54,6.33,11.79,10.36,4.07,3.12,10.44,7.05,20.01,9.65"/>
          <path class="cls-11" d="M445.57,278.89c-3.38-11.56-2.3-21.68,0-41.46,2.44-21.02,3.94-33.9,7.86-34.31,2.91-.3,4.64,6.54,18.58,42.89,6.19,16.13,8.01,20.41,7.86,27.88-.27,14.23-7.49,31.12-15.72,31.45-8.62,.34-15.98-17.55-18.58-26.45"/>
          <path class="cls-12" d="M426.74,375.86c-13.64-23.33-11.66-29.97-25.02-50.75-11.35-17.66-18-21-30.73-36.45-11.2-13.6-17.57-25-38.6-70.76-36.71-79.9-31.91-76.96-42.88-93.63-15.79-23.99-33.6-51.05-67.9-65.76-40.71-17.45-79.99-6.92-94.35-2.86-60.49,17.12-91.09,64.22-95.77,60.04-4.16-3.71,16.2-44.16,55.03-74.33C98.56,32.01,149.7-7.72,216.61,1.33c49.63,6.72,80.5,36.55,112.93,67.9,33.86,32.73,50.45,63.04,83.62,123.65,28.08,51.31,46.46,85.6,48.6,124.37,.89,16.04-1.1,31.09,2.15,65.04,2.19,22.9,4.87,34.57,.71,36.45-6.88,3.11-26.47-23.37-37.88-42.88"/>
          <path class="cls-5" d="M464.62,413.74c5.29-12.88,36.36-164.72,56.24-200.81,24.83-45.07,49.45-78.79,97.4-102.41,20.21-9.95,54.51-30.57,95.49-41.32,57.97-15.21,111.5-8.44,148.25,.5"/>
          <path class="cls-4" d="M453.43,206.47c3.96,15.08,7.56,33.01,9.53,53.37,1.76,18.14,1.87,34.58,1.19,48.84"/>
        </g>
        <g class="cls-6">
          <rect class="cls-13" x="394.54" y="37" width="468.41" height="1301.94"/>
        </g>
        <path class="cls-3" d="M408.67,620.68c17.95,26.64,1.41,15.43,38.15,75.37m100.99-84.07c-10.07,30.5-11.34,10.56-36.23,76.31M31.49,115.69c11.79-17.42,39.96-53.47,89.34-72.19,27.11-10.28,49.98-11.03,58.13-11.44,52.65-2.65,94.18,25.47,103.88,32.4,19.75,14.13,36.63,40.75,69.57,93.39,30.22,48.29,44.69,72.84,58.13,101.02,17.73,37.17,3.11,6.22,30.68,75.24M862.02,69.69c-20.07-8.24-37.5-12.23-90.18-9.5-27.65,1.43-25.09,0-61.64,6.95-50.99,9.7-108.35,43.24-117.54,50.17-18.73,14.14-30.59,23.9-44.8,40.5-15.86,18.52-33.69,41.57-49.46,65.94-22.16,34.25-30.77,119.75-33.78,189.99"/>
      </g>
      <g id="s7hZfi.tif">
        <g>
          <path class="cls-11" d="M468.04,506.19c-.1,1.09-.29,2.18-.28,3.26,.06,6.49-.11,12.94-2.04,19.24-1.83,6-4.69,11.55-9.33,15.63-6.86,6.03-14.84,10.34-24.24,10.96-10.46,.69-20.94,.95-31.39,1.69-13.01,.92-26.01,2.15-39.01,3.24-12.09,1.02-23.9-.21-34.48-6.47-10.11-5.99-17.86-14.45-22.94-25.17-7.37-15.54-10.35-31.89-7.87-48.91,2.01-13.76,6.89-26.36,18.47-35.24,4.34-3.33,9.26-5.57,14.73-6.29,29.36-3.88,58.88-4.33,88.43-4.19,7.86,.04,15.51,1.37,23.18,3.06,11.32,2.49,17.08,10.61,21.51,20.19,.96,2.08,1.3,4.44,1.99,6.65,.22,.71,.65,1.35,1.19,2.44,1.61-4.87,2.86-9.24,4.51-13.46,2.45-6.28,5.42-12.31,9.85-17.5,.53-.62,1.09-1.35,1.8-1.68,6-2.78,11.9-5.66,18.57-6.84,19.35-3.43,38.9-3.5,58.43-3.87,12.81-.24,25.63-.24,38.43,.11,7.95,.21,15.69,1.86,22.36,6.69,8.52,6.17,13.1,14.52,14.98,24.85,2.93,16.13,3.16,32.36,3.05,48.66-.08,11.83-4.95,21.21-13.77,28.85-10.71,9.28-23.32,13.7-37.24,14.96-13.75,1.24-27.48,2.62-41.24,3.79-11.6,.99-23.22,1.94-34.86,.29-6.51-.92-12.4-3.45-18.28-6.25-7.2-3.43-11.14-9.66-15.05-16.06-3.86-6.31-6.22-13.18-7.89-20.34-.18-.78-.47-1.53-.71-2.29-.3,0-.59,0-.89,0Zm-37.78,24.27s0-.07,0-.1c5.98,0,12,.35,17.95-.09,7.63-.56,14.86-6.02,14.47-15.88-.47-11.78-.47-23.58-1.06-35.35-.35-7.02-1.2-14.04-3.98-20.66-5.02-11.98-14.73-18.25-26.95-19.08-15.74-1.08-31.6-.7-47.4-.39-18.25,.36-36.59-.07-54.58,4.25-7.24,1.74-13.15,5.45-17.4,11.27-7.3,10-10.51,21.65-11.17,33.83-.57,10.52,1.1,20.84,5.52,30.57,2.72,6,5.77,11.8,10.75,16.29,4.59,4.15,9.76,5.97,16.06,4.27,7.69-2.08,15.46-3.89,23.24-5.63,11.56-2.58,23.32-3.83,35.13-3.92,13.14-.1,26.28,.38,39.42,.61Zm203.66-38.32c-.66-15.12-1.57-28.44-4.42-41.54-1.45-6.66-5.35-11.91-10.69-16.02-6.99-5.39-15.34-7.52-23.83-7.62-18.21-.23-36.44-.03-54.63,.68-13.19,.52-26.38,1.8-39.49,3.42-7.7,.95-14.17,4.87-18.86,11.4-5.58,7.77-8.92,16.36-10.4,25.78-2.82,17.94-.25,34.72,10.4,49.81,5.23,7.42,12.04,11.65,21.5,9.73,4.39-.89,8.71-2.11,13.08-3.11,5.42-1.25,10.82-2.6,16.28-3.58,4.82-.87,9.7-1.6,14.58-1.87,10.78-.59,21.58-1.15,32.37-1.14,11.05,.01,22.11,.86,33.16,1.07,4.73,.09,9.47-.47,13.69-3.06,3.08-1.89,5.17-4.55,5.63-8.1,.76-5.83,1.21-11.7,1.62-15.85Z"/>
          <path class="cls-7" d="M430.26,530.46c-13.14-.23-26.28-.71-39.42-.61-11.81,.09-23.57,1.35-35.13,3.92-7.78,1.73-15.55,3.55-23.24,5.63-6.3,1.7-11.47-.13-16.06-4.27-4.98-4.49-8.02-10.29-10.75-16.29-4.41-9.73-6.09-20.06-5.52-30.57,.66-12.17,3.87-23.82,11.17-33.83,4.25-5.82,10.16-9.53,17.4-11.27,17.98-4.33,36.32-3.89,54.58-4.25,15.8-.31,31.66-.68,47.4,.39,12.22,.84,21.93,7.1,26.95,19.08,2.78,6.62,3.62,13.64,3.98,20.66,.59,11.77,.59,23.57,1.06,35.35,.39,9.86-6.84,15.32-14.47,15.88-5.95,.44-11.96,.09-17.95,.09,0,.03,0,.07,0,.1Zm-41.04-73.55c-2.55,.37-7,.42-11.05,1.7-9.93,3.15-18.53,8.5-24.49,17.34-5.55,8.24-8.59,17.32-8.61,27.3,0,.97,.79,2.75,1.2,2.75,1.23,0,2.77-.4,3.62-1.23,1.47-1.42,2.47-3.3,3.74-4.94,8.27-10.63,18.81-17.08,32.56-17.61,9.29-.36,17.92,1.78,25.17,7.71,4.08,3.34,7.64,7.33,11.38,11.07,1.74,1.74,3.7,2.91,6.2,2.27,2.54-.65,3.43-2.65,3.58-5.1,.41-6.61-1.43-12.85-4.57-18.38-8.06-14.22-20.3-22.2-38.74-22.87Z"/>
          <path class="cls-7" d="M633.92,492.14c-.41,4.15-.87,10.02-1.62,15.85-.46,3.55-2.55,6.21-5.63,8.1-4.22,2.59-8.96,3.15-13.69,3.06-11.06-.21-22.11-1.06-33.16-1.07-10.79-.01-21.59,.55-32.37,1.14-4.88,.27-9.76,1-14.58,1.87-5.47,.99-10.87,2.34-16.28,3.58-4.37,1-8.69,2.22-13.08,3.11-9.46,1.92-16.27-2.31-21.5-9.73-10.65-15.1-13.22-31.87-10.4-49.81,1.48-9.42,4.83-18.01,10.4-25.78,4.68-6.53,11.16-10.45,18.86-11.4,13.11-1.62,26.3-2.9,39.49-3.42,18.19-.72,36.42-.91,54.63-.68,8.49,.11,16.84,2.23,23.83,7.62,5.34,4.12,9.24,9.36,10.69,16.02,2.85,13.1,3.76,26.43,4.42,41.54Zm-88.89-45.21c-4.54-.13-12.73,2.4-19.98,7.48-6.82,4.78-12.11,11.04-15.8,18.59-3.08,6.31-4.69,12.94-4.39,19.95,.05,1.17,.98,2.75,1.97,3.34,1.58,.93,2.45-.67,3.25-1.85,5.28-7.74,11.75-14.2,20.33-18.23,13.44-6.32,26.72-5.69,39.12,2.38,4.92,3.2,8.91,7.88,13.15,12.06,2.16,2.13,4.67,3.2,7.09,2.29,2.7-1.01,2.31-3.51,2.3-5.51-.02-7.34-1.66-14.29-5.82-20.5-8.78-13.09-20.9-20-41.23-19.99Z"/>
          <path class="cls-10" d="M389.22,456.91c18.44,.68,30.69,8.65,38.74,22.87,3.14,5.53,4.97,11.78,4.57,18.38-.15,2.45-1.05,4.45-3.58,5.1-2.5,.64-4.46-.53-6.2-2.27-3.75-3.74-7.3-7.74-11.38-11.07-7.26-5.93-15.88-8.07-25.17-7.71-13.75,.53-24.29,6.98-32.56,17.61-1.27,1.63-2.27,3.52-3.74,4.94-.85,.82-2.39,1.22-3.62,1.23-.41,0-1.21-1.78-1.2-2.75,.03-9.98,3.06-19.06,8.61-27.3,5.96-8.84,14.56-14.19,24.49-17.34,4.06-1.28,8.5-1.34,11.05-1.7Zm13.77,9.43c-.92,.62-2.74,1.28-3.64,2.57-1.26,1.81-.07,3.7,1.26,5.14,2.92,3.17,6.79,4.7,10.85,5.6,2.85,.63,5.34-2.76,4.05-5.35-2.38-4.75-6.45-7.08-12.52-7.96Zm13.71,13.75c-.33,.5-1.22,1.29-1.38,2.21-.27,1.58,1.94,3.69,3.54,3.31,.86-.21,1.97-1.27,2.14-2.11,.29-1.49-2.07-3.51-4.29-3.41Z"/>
          <path class="cls-10" d="M545.03,446.93c20.33-.01,32.45,6.9,41.23,19.99,4.16,6.21,5.8,13.15,5.82,20.5,0,2,.39,4.5-2.3,5.51-2.42,.91-4.93-.16-7.09-2.29-4.24-4.18-8.23-8.86-13.15-12.06-12.4-8.07-25.68-8.69-39.12-2.38-8.58,4.03-15.05,10.49-20.33,18.23-.8,1.18-1.68,2.78-3.25,1.85-1-.59-1.92-2.17-1.97-3.34-.3-7,1.31-13.64,4.39-19.95,3.69-7.55,8.98-13.8,15.8-18.59,7.24-5.08,15.43-7.61,19.98-7.48Zm17.07,8.39c-1.02,.67-2.64,1.34-3.66,2.51-1.31,1.51-.24,3.11,.7,4.52,2.55,3.81,6.42,5.46,10.71,5.98,1.43,.17,3.72-.55,4.33-1.6,.67-1.16,.36-3.47-.41-4.75-2.42-4.02-6.54-5.52-11.67-6.65Zm18.31,17.69c-.15-2.63-2.03-4.36-3.78-3.88-.81,.22-1.95,1.52-1.89,2.24,.16,1.86,1.51,3.21,3.46,3.11,.89-.05,1.72-1.12,2.2-1.46Z"/>
          <path class="cls-7" d="M402.99,466.34c6.07,.89,10.14,3.22,12.52,7.96,1.3,2.59-1.2,5.98-4.05,5.35-4.06-.9-7.94-2.43-10.85-5.6-1.33-1.44-2.52-3.33-1.26-5.14,.9-1.29,2.71-1.95,3.64-2.57Z"/>
          <path class="cls-7" d="M416.7,480.09c2.22-.1,4.58,1.92,4.29,3.41-.16,.84-1.27,1.9-2.14,2.11-1.6,.38-3.81-1.74-3.54-3.31,.16-.92,1.05-1.7,1.38-2.21Z"/>
          <path class="cls-7" d="M562.1,455.32c5.13,1.13,9.25,2.62,11.67,6.65,.77,1.28,1.08,3.6,.41,4.75-.61,1.05-2.9,1.77-4.33,1.6-4.29-.52-8.17-2.17-10.71-5.98-.94-1.4-2.01-3.01-.7-4.52,1.02-1.17,2.64-1.84,3.66-2.51Z"/>
          <path class="cls-7" d="M580.42,473.01c-.49,.34-1.32,1.41-2.2,1.46-1.95,.11-3.3-1.25-3.46-3.11-.06-.72,1.07-2.01,1.89-2.24,1.75-.48,3.63,1.25,3.78,3.88Z"/>
        </g>
      </g>
      <path class="cls-8" d="M138.51,227.47c23.85-8.82,54.38-14.79,86.39-12.35,67.99,5.17,104.09,63.47,103.86,112.1-.13,28.77-12.62,52.14-31.91,72.53-11.25,11.9-24.01,21.95-37.61,30.97-2.74,1.82-3.19,3.1-1.69,6.24,4.19,8.75,10.33,15.72,17.52,22.07,2.94,2.59,7.27,5.15,5.58,10.2-1.69,5.04-6.63,4.48-10.59,4.83-18.73,1.69-36.03-2.39-51.33-13.63-2.04-1.5-3.42-1.48-5.68-.17-30.09,17.38-62.06,28.95-97.14,30.34-56.13,2.23-93.68-29.96-109.71-79.32-10.38-31.97-7.95-62.97,9.04-92.36,11.66-20.18,27.78-36.36,46.17-50.4,21.71-16.57,45.58-29.25,77.09-41.03Zm128.35,237.81c.29,.09,.74,.35,.86,.25,.57-.51,.05-.84-.3-1.18-7.85-7.79-14.68-16.26-18.51-26.83-2.68-7.37-2.25-8.67,4.35-13.13,17.41-11.79,33.6-24.95,46.44-41.8,12.31-16.16,19.61-33.98,19.97-54.69,.76-42.99-31.22-96.71-91.46-103.32-23.46-2.58-46.52-.39-69.12,5.97-42.95,12.09-81.74,31.87-113.55,63.75-13.74,13.77-25.05,29.35-31.26,48.11-9.04,27.33-5.94,53.94,5.86,79.59,18.2,39.58,49.75,60.73,93.99,59.53,34.56-.93,66.25-11.98,95.67-29.76,4.47-2.7,7.79-2.65,12.13,.51,13.32,9.69,28.26,14.53,44.93,13.01Z"/>
      <path class="cls-8" d="M228.45,263.88c13.54-4.7,31.03-.75,40.44,10.82,9.69,11.9,9.96,28.94,.47,41.57-2.78,3.7-5.94,7.14-9.14,10.5-4.27,4.49-6.25,9.53-5.58,15.82,.77,7.21-1,9.18-8.12,10.32-.16,.03-.33,.05-.49,.08-14.79,2.34-16.67,.81-17.47-14.32-.57-10.89,4.29-19.57,11.38-27.24,2.39-2.59,4.62-5.28,6.07-8.44,1.74-3.79,2.12-7.82-.69-11.3-2.5-3.1-5.92-4.06-9.85-3.04-4.55,1.17-6.19,4.61-6.97,8.78-1.77,9.54-2.68,10.27-12.33,9.92-14.53-.54-17.52-4.58-13.56-18.77,3.34-11.97,11.2-19.69,25.84-24.68Zm-.99,6.48c-9.2,3.2-15.69,9.2-18.93,18.47-3.77,10.78-2.37,12.76,8.81,12.65,.17,0,.34-.05,.5-.02,3.52,.5,4.99-.82,5.28-4.57,.46-5.96,3.07-10.84,9.1-13.17,6.31-2.44,13.84-.63,17.74,4.27,4.17,5.24,4.2,14.34-.29,20.62-2.99,4.19-6.55,7.96-9.66,12.07-4.16,5.49-6.28,11.66-5.55,18.66,1,9.61,.96,9.49,10.54,7.85,2.74-.47,4.21-.92,3.7-4.24-1.14-7.42,1.58-13.64,6.53-19.13,3.67-4.07,7.44-8.15,10.43-12.71,6.41-9.77,6.76-20.02,.49-30.05-7.43-11.89-23.13-16.11-38.69-10.68Z"/>
      <path class="cls-8" d="M70.23,345.75c21.83-7.57,43.59,8.11,43.62,31.58,0,5.29-.63,10.59-1.19,15.86-.61,5.78,.8,10.71,4.66,15.18,4.98,5.78,4.64,8.03-1.07,13.36-1.21,1.13-2.46,2.23-3.64,3.39-5.96,5.83-9.17,5.82-15-.18-7.98-8.22-11.7-17.94-10.28-29.48,.53-4.27,1.12-8.55,.63-12.9-.55-4.86-2.72-8.65-7.36-10.36-3.7-1.37-6.82,.46-9.37,3.11-3.44,3.58-2.66,7.53-.91,11.58,3.48,8.03,2.75,10.36-4.56,15.24-11.91,7.94-17.39,5.91-21.58-7.99-6.05-20.09,5.32-41.22,26.05-48.4Zm-20.49,47.35c1.09,2.23,2.1,4.49,3.3,6.66,.64,1.16,1.7,2.46,3.18,1.52,3.35-2.13,7.05-4.04,9.67-6.89,2.23-2.43-.88-5.19-1.67-7.74-2.97-9.53,1.5-18.01,11.03-20.38,8.25-2.05,16.42,4.14,18.16,13.44,1.04,5.53,.05,10.92-.41,16.36-.64,7.51,.03,14.63,5.23,20.61,7.76,8.92,6.15,8.01,14.47,.46,1.9-1.72,1.86-3.2,.06-4.99-5.24-5.21-6.53-11.6-5.86-18.77,.64-6.91,2.04-13.78,.98-20.83-1.66-11.08-11.42-21.41-22.17-22.73-23.34-2.84-44.27,22.95-35.97,43.27Z"/>
      <path class="cls-8" d="M190.12,417.04c-8.36,2.84-17.96-2-20.95-10.56-3.05-8.73,2-18.4,11.18-21.44,8.38-2.77,17.96,2.23,20.78,10.85,2.86,8.77-1.99,18.09-11.01,21.15Zm-1.86-5.8c5.95-2,8.94-8.04,6.91-13.96-1.92-5.57-8.27-8.74-13.66-6.8-5.84,2.09-8.71,8.18-6.68,14.13,2.08,6.08,7.34,8.68,13.43,6.63Z"/>
      <path class="cls-8" d="M123.93,424.37c7.1-2.52,15.53,1.55,18.25,8.8,2.68,7.16-1.59,15.76-9.18,18.5-7.05,2.54-15.31-1.69-17.91-9.17-2.53-7.29,1.47-15.5,8.85-18.12Zm7.33,21.61c4.37-1.64,6.83-6.74,5.26-10.91-1.61-4.25-6.94-6.73-10.97-5.09-4.13,1.68-6.36,6.94-4.73,11.14,1.73,4.46,6.09,6.49,10.44,4.86Z"/>
      <path class="cls-8" d="M251.85,386.92c-7.79,2.72-15.75-.84-18.35-8.19-2.78-7.85,.76-15.48,8.42-18.11,7.9-2.71,16.1,1.06,18.7,8.59,2.47,7.15-1.51,15.18-8.77,17.71Zm-2.47-5.58c4.72-1.54,6.92-5.8,5.48-10.6-1.26-4.19-5.81-6.29-10.44-4.82-4.66,1.48-6.93,5.55-5.57,10.01,1.43,4.71,5.8,6.95,10.54,5.4Z"/>
      <path class="cls-9" d="M227.46,270.36c15.56-5.43,31.26-1.21,38.69,10.68,6.27,10.03,5.91,20.27-.49,30.05-2.99,4.56-6.76,8.64-10.43,12.71-4.95,5.5-7.67,11.71-6.53,19.13,.51,3.32-.96,3.78-3.7,4.24-9.59,1.64-9.54,1.75-10.54-7.85-.73-7,1.4-13.16,5.55-18.66,3.11-4.11,6.66-7.89,9.66-12.07,4.49-6.28,4.46-15.38,.29-20.62-3.9-4.9-11.44-6.71-17.74-4.27-6.03,2.33-8.64,7.21-9.1,13.17-.29,3.75-1.76,5.07-5.28,4.57-.16-.02-.33,.02-.5,.02-11.18,.11-12.58-1.87-8.81-12.65,3.24-9.27,9.73-15.27,18.93-18.47Z"/>
      <path class="cls-9" d="M49.75,393.1c-8.3-20.32,12.63-46.12,35.97-43.27,10.76,1.31,20.51,11.64,22.17,22.73,1.06,7.04-.34,13.91-.98,20.83-.67,7.17,.62,13.57,5.86,18.77,1.8,1.78,1.83,3.27-.06,4.99-8.32,7.55-6.71,8.45-14.47-.46-5.2-5.97-5.87-13.09-5.23-20.61,.46-5.43,1.44-10.83,.41-16.36-1.74-9.3-9.91-15.5-18.16-13.44-9.52,2.37-13.99,10.85-11.03,20.38,.79,2.54,3.9,5.31,1.67,7.74-2.62,2.85-6.31,4.77-9.67,6.89-1.49,.94-2.54-.36-3.18-1.52-1.2-2.17-2.21-4.43-3.3-6.66Z"/>
      <path class="cls-9" d="M188.26,411.24c-6.09,2.05-11.35-.55-13.43-6.63-2.04-5.95,.84-12.04,6.68-14.13,5.39-1.93,11.75,1.23,13.66,6.8,2.03,5.91-.96,11.95-6.91,13.96Z"/>
      <path class="cls-9" d="M131.26,445.97c-4.35,1.63-8.7-.4-10.44-4.86-1.63-4.2,.6-9.47,4.73-11.14,4.03-1.64,9.36,.84,10.97,5.09,1.57,4.17-.88,9.26-5.26,10.91Z"/>
      <path class="cls-9" d="M249.38,381.34c-4.73,1.55-9.1-.69-10.54-5.4-1.36-4.46,.91-8.54,5.57-10.01,4.63-1.47,9.18,.63,10.44,4.82,1.44,4.8-.75,9.05-5.48,10.6Z"/>
      <path class="cls-8" d="M122.1,282.2c14.15-9.96,35.76-11.2,50.54-.9,15.2,10.59,21.19,30.27,14.38,48.08-2,5.22-4.52,10.27-7.11,15.23-3.46,6.63-4.08,13.14-1.21,20.22,3.29,8.11,1.9,10.99-5.99,14.69-.18,.09-.36,.17-.55,.26-16.39,7.64-19.08,6.49-25.04-10.81-4.29-12.45-1.54-24.14,4.14-35.4,1.91-3.8,3.61-7.66,4.24-11.82,.75-4.98-.15-9.78-4.56-12.89-3.93-2.77-8.23-2.74-12.45-.25-4.89,2.88-5.65,7.42-5.16,12.5,1.12,11.66,.3,12.82-11.01,15.61-17.04,4.22-21.86,.52-21.98-17.27-.11-15,6.45-26.59,21.77-37.25Zm1,7.85c-9.61,6.77-15.15,15.89-15.83,27.73-.79,13.77,1.5,15.59,14.44,11.75,.19-.06,.38-.17,.57-.19,4.25-.6,5.52-2.62,4.6-7.06-1.45-7.07-.04-13.61,6.18-18.32,6.51-4.93,15.85-5.34,22.01-.95,6.58,4.69,9.64,15.25,6.52,24.03-2.08,5.85-4.95,11.42-7.19,17.22-3,7.76-3.41,15.62-.24,23.5,4.36,10.81,4.27,10.7,14.85,5.6,3.02-1.45,4.57-2.47,2.88-6.16-3.79-8.23-2.7-16.35,1.21-24.38,2.9-5.95,5.92-11.94,7.87-18.23,4.18-13.47,1.19-25.48-9.43-35.04-12.58-11.32-32.2-11-48.46,.49Z"/>
      <path class="cls-9" d="M123.1,290.04c16.25-11.48,35.88-11.81,48.46-.49,10.62,9.56,13.61,21.56,9.43,35.04-1.95,6.29-4.97,12.28-7.87,18.23-3.92,8.03-5,16.15-1.21,24.38,1.7,3.68,.14,4.7-2.88,6.16-10.58,5.09-10.49,5.21-14.85-5.6-3.18-7.88-2.76-15.74,.24-23.5,2.24-5.8,5.11-11.37,7.19-17.22,3.12-8.78,.06-19.34-6.52-24.03-6.16-4.39-15.51-3.98-22.01,.95-6.22,4.71-7.63,11.25-6.18,18.32,.91,4.45-.35,6.47-4.6,7.06-.2,.03-.38,.14-.57,.19-12.94,3.85-15.22,2.02-14.44-11.75,.68-11.84,6.21-20.96,15.83-27.73Z"/>
    </g>
  </g>
</svg>