<?xml version="1.0" encoding="UTF-8"?>
<svg id="Capa_2" data-name="Capa 2" xmlns="http://www.w3.org/2000/svg" viewBox="0 0 877.32 340.38">
  <defs>
    <style>
      .cls-1 {
        fill: #5a623b;
        stroke: #5a623b;
        stroke-miterlimit: 10;
      }
    </style>
  </defs>
  <g id="Site_mock_up" data-name="Site mock up">
    <g>
      <g>
        <path class="cls-1" d="M29.56,119.21H.5V9.99H65.05v23.68H29.56v20.84H62.28v23.68H29.56v41.01Z"/>
        <path class="cls-1" d="M121.65,33.07c10.71,0,19.07,2.65,25.1,7.96,6.03,5.3,9.04,12.86,9.04,22.67v55.51h-20.25l-5.6-11.21h-.6c-2.39,2.99-4.84,5.42-7.36,7.28-2.52,1.87-5.39,3.24-8.63,4.11-3.24,.87-7.2,1.31-11.88,1.31s-9.26-1-13.15-2.99-6.95-5.01-9.19-9.04-3.36-9.14-3.36-15.31c0-9.06,3.14-15.79,9.41-20.17,6.28-4.38,15.36-6.85,27.27-7.4l14.12-.45v-1.2c0-3.78-.93-6.47-2.8-8.07-1.87-1.59-4.37-2.39-7.51-2.39-3.34,0-7.06,.59-11.17,1.76-4.11,1.17-8.23,2.68-12.36,4.52l-8.44-19.27c4.88-2.49,10.41-4.38,16.58-5.68,6.17-1.29,13.1-1.94,20.77-1.94Zm5.08,48.34l-6.72,.3c-5.38,.2-9.15,1.13-11.32,2.8-2.17,1.67-3.25,4.05-3.25,7.13,0,2.89,.77,5.02,2.32,6.39,1.54,1.37,3.59,2.05,6.13,2.05,3.54,0,6.56-1.12,9.08-3.36,2.51-2.24,3.77-5.15,3.77-8.74v-6.57Z"/>
        <path class="cls-1" d="M237.65,93.21c0,5.38-1.2,10.14-3.59,14.27-2.39,4.13-6.21,7.37-11.47,9.71-5.26,2.34-12.17,3.51-20.73,3.51-6.03,0-11.42-.33-16.17-.97-4.76-.65-9.58-1.89-14.46-3.74v-23.38c5.33,2.44,10.76,4.2,16.29,5.27,5.53,1.07,9.89,1.61,13.07,1.61s5.69-.36,7.21-1.08c1.52-.72,2.28-1.8,2.28-3.25,0-1.24-.51-2.3-1.53-3.17-1.02-.87-2.84-1.88-5.45-3.03-2.61-1.14-6.29-2.69-11.02-4.63-4.68-1.94-8.58-4.06-11.69-6.35-3.11-2.29-5.44-5.03-6.98-8.22-1.54-3.19-2.32-7.1-2.32-11.73,0-8.27,3.19-14.49,9.56-18.68,6.37-4.18,14.82-6.28,25.33-6.28,5.58,0,10.83,.61,15.76,1.83s10.04,3,15.31,5.34l-7.99,18.83c-4.18-1.89-8.42-3.41-12.7-4.56-4.28-1.15-7.69-1.72-10.23-1.72-2.29,0-4.06,.3-5.3,.9-1.25,.6-1.87,1.47-1.87,2.62,0,1.05,.44,1.97,1.31,2.76,.87,.8,2.53,1.72,4.97,2.76,2.44,1.05,6,2.52,10.68,4.41,4.93,1.99,9,4.12,12.21,6.39,3.21,2.27,5.6,5.02,7.17,8.25,1.57,3.24,2.35,7.35,2.35,12.33Z"/>
        <path class="cls-1" d="M291.49,120.7c-8.57,0-16.01-1.53-22.34-4.59-6.33-3.06-11.22-7.79-14.68-14.19-3.46-6.4-5.19-14.61-5.19-24.62s1.93-18.65,5.79-25.18c3.86-6.52,9.15-11.33,15.88-14.42,6.72-3.09,14.34-4.63,22.86-4.63,5.18,0,10.1,.57,14.75,1.72,4.66,1.15,8.98,2.71,12.96,4.71l-8.59,21.59c-3.49-1.54-6.74-2.78-9.75-3.7-3.01-.92-6.14-1.38-9.38-1.38-2.94,0-5.53,.77-7.77,2.32-2.24,1.54-3.99,3.87-5.23,6.99-1.25,3.11-1.87,7.06-1.87,11.84s.64,8.82,1.9,11.8c1.27,2.99,3.04,5.16,5.3,6.5,2.27,1.34,4.87,2.02,7.81,2.02,4.23,0,8.45-.66,12.66-1.98,4.21-1.32,8.2-3.15,11.99-5.49v23.23c-3.49,2.29-7.42,4.11-11.8,5.45-4.38,1.34-9.49,2.02-15.31,2.02Z"/>
        <path class="cls-1" d="M349.37,.5c4.18,0,7.83,.87,10.94,2.62,3.11,1.74,4.67,5.21,4.67,10.38s-1.56,8.43-4.67,10.2c-3.11,1.77-6.76,2.65-10.94,2.65s-7.93-.88-10.94-2.65c-3.01-1.77-4.52-5.17-4.52-10.2s1.51-8.64,4.52-10.38c3.01-1.74,6.66-2.62,10.94-2.62Zm14.49,34.07V119.21h-29.21V34.57h29.21Z"/>
        <path class="cls-1" d="M436.31,33.07c8.71,0,15.84,2.47,21.37,7.4s8.29,12.83,8.29,23.68v55.06h-29.21v-46.17c0-5.63-.81-9.87-2.43-12.74-1.62-2.86-4.22-4.3-7.81-4.3-5.53,0-9.24,2.25-11.13,6.76-1.89,4.51-2.84,10.97-2.84,19.39v37.05h-29.21V34.57h22.04l3.96,11.21h1.12c1.79-2.69,3.93-4.98,6.42-6.87,2.49-1.89,5.35-3.34,8.59-4.33,3.24-1,6.85-1.49,10.83-1.49Z"/>
        <path class="cls-1" d="M526.23,33.07c10.71,0,19.07,2.65,25.1,7.96,6.03,5.3,9.04,12.86,9.04,22.67v55.51h-20.25l-5.6-11.21h-.6c-2.39,2.99-4.84,5.42-7.36,7.28-2.52,1.87-5.39,3.24-8.63,4.11-3.24,.87-7.2,1.31-11.88,1.31s-9.26-1-13.15-2.99-6.95-5.01-9.19-9.04-3.36-9.14-3.36-15.31c0-9.06,3.14-15.79,9.41-20.17,6.28-4.38,15.36-6.85,27.27-7.4l14.12-.45v-1.2c0-3.78-.93-6.47-2.8-8.07-1.87-1.59-4.37-2.39-7.51-2.39-3.34,0-7.06,.59-11.17,1.76-4.11,1.17-8.23,2.68-12.36,4.52l-8.44-19.27c4.88-2.49,10.41-4.38,16.58-5.68,6.17-1.29,13.1-1.94,20.77-1.94Zm5.08,48.34l-6.72,.3c-5.38,.2-9.15,1.13-11.32,2.8-2.17,1.67-3.25,4.05-3.25,7.13,0,2.89,.77,5.02,2.32,6.39,1.54,1.37,3.59,2.05,6.13,2.05,3.54,0,6.56-1.12,9.08-3.36,2.51-2.24,3.77-5.15,3.77-8.74v-6.57Z"/>
        <path class="cls-1" d="M620.79,97.62c2.64,0,5.05-.27,7.25-.82,2.19-.55,4.48-1.24,6.87-2.09v21.29c-3.19,1.4-6.56,2.53-10.12,3.4-3.56,.87-8.11,1.31-13.63,1.31s-10.31-.86-14.49-2.58c-4.18-1.72-7.43-4.71-9.75-8.96-2.32-4.26-3.47-10.2-3.47-17.82V56.46h-10.24v-11.88l13-9.19,7.55-17.78h19.12v16.96h20.77v21.89h-20.77v32.95c0,2.74,.7,4.79,2.09,6.16,1.39,1.37,3.34,2.05,5.83,2.05Z"/>
        <path class="cls-1" d="M663.65,.5c4.18,0,7.83,.87,10.94,2.62,3.11,1.74,4.67,5.21,4.67,10.38s-1.56,8.43-4.67,10.2c-3.11,1.77-6.76,2.65-10.94,2.65s-7.93-.88-10.94-2.65c-3.01-1.77-4.52-5.17-4.52-10.2s1.51-8.64,4.52-10.38c3.01-1.74,6.66-2.62,10.94-2.62Zm14.49,34.07V119.21h-29.21V34.57h29.21Z"/>
        <path class="cls-1" d="M778.45,76.7c0,7.07-.97,13.35-2.91,18.83-1.94,5.48-4.76,10.09-8.44,13.82-3.69,3.74-8.14,6.56-13.37,8.48-5.23,1.92-11.13,2.88-17.71,2.88-6.13,0-11.74-.96-16.85-2.88-5.11-1.92-9.55-4.74-13.33-8.48-3.79-3.74-6.71-8.34-8.78-13.82-2.07-5.48-3.1-11.75-3.1-18.83,0-9.36,1.71-17.28,5.12-23.76,3.41-6.47,8.29-11.4,14.64-14.79,6.35-3.39,13.93-5.08,22.75-5.08,8.12,0,15.34,1.69,21.67,5.08,6.32,3.39,11.29,8.32,14.9,14.79,3.61,6.48,5.42,14.39,5.42,23.76Zm-54.83,0c0,4.83,.42,8.9,1.27,12.21,.85,3.31,2.2,5.83,4.07,7.55,1.87,1.72,4.32,2.58,7.36,2.58s5.45-.86,7.25-2.58c1.79-1.72,3.1-4.23,3.92-7.55,.82-3.31,1.23-7.38,1.23-12.21s-.41-8.86-1.23-12.1c-.82-3.24-2.14-5.68-3.96-7.32-1.82-1.64-4.27-2.46-7.36-2.46-4.43,0-7.63,1.84-9.6,5.53-1.97,3.69-2.95,9.14-2.95,16.36Z"/>
        <path class="cls-1" d="M847.16,33.07c8.71,0,15.84,2.47,21.37,7.4s8.29,12.83,8.29,23.68v55.06h-29.21v-46.17c0-5.63-.81-9.87-2.43-12.74-1.62-2.86-4.22-4.3-7.81-4.3-5.53,0-9.24,2.25-11.13,6.76-1.89,4.51-2.84,10.97-2.84,19.39v37.05h-29.21V34.57h22.04l3.96,11.21h1.12c1.79-2.69,3.93-4.98,6.42-6.87,2.49-1.89,5.35-3.34,8.59-4.33,3.24-1,6.85-1.49,10.83-1.49Z"/>
      </g>
      <g>
        <path class="cls-1" d="M130.42,224.07c0-4.48,1.21-8.95,3.62-13.41,2.42-4.46,5.54-8.08,9.38-10.87,3.83-2.79,7.74-4.18,11.73-4.18,4.18,0,7.56,1.38,10.12,4.15,2.56,2.76,3.85,6.34,3.85,10.72,0,4.78-1.18,9.41-3.55,13.9-2.37,4.48-5.48,8.16-9.34,11.02-3.86,2.86-7.76,4.29-11.69,4.29-4.23,0-7.65-1.43-10.23-4.29s-3.88-6.64-3.88-11.32Zm31.97-16.44c0-2.99-.74-5.45-2.2-7.4-1.47-1.94-3.35-2.91-5.64-2.91-2.09,0-4.1,.67-6.01,2.02-1.92,1.34-3.67,3.31-5.27,5.9-1.79,2.99-3.28,6.47-4.44,10.46-1.17,3.99-1.76,7.52-1.76,10.61,0,3.69,.72,6.53,2.17,8.52,1.44,1.99,3.51,2.99,6.2,2.99,4.33,0,8.14-3.01,11.43-9.04,1.69-3.09,3.04-6.55,4.03-10.38,1-3.83,1.49-7.42,1.49-10.76Z"/>
        <path class="cls-1" d="M235.61,198.52h-7.32l.52-2.54h7.4l7.02-32.8c1.2-5.43,2.42-9.76,3.66-13,1.24-3.24,2.74-6.03,4.48-8.37,4.28-5.73,9.61-8.59,15.99-8.59,2.14,0,4.11,.35,5.9,1.05l-2.69,6.8c-1.99-2.79-4.53-4.18-7.62-4.18-2.34,0-4.25,.91-5.72,2.73-1.47,1.82-2.73,4.82-3.77,9l-11.43,47.36h12.03l-.52,2.54h-12.1l-10.23,42.43c-1.34,5.68-2.65,9.91-3.92,12.7-1.27,2.79-3,5.38-5.19,7.77-3.98,4.33-8.34,6.5-13.07,6.5-2.29,0-4.33-.4-6.13-1.2l3.66-5.38c2.09,1.69,4.36,2.54,6.8,2.54,3.69,0,6.45-1.94,8.29-5.83,1.34-2.89,2.76-7.67,4.26-14.34l9.71-45.2Z"/>
      </g>
      <g>
        <path class="cls-1" d="M312.79,229.16c13.85,0,24.22,3.01,31.12,9.04,6.9,6.03,10.35,14.59,10.35,25.7,0,4.98-.71,9.76-2.13,14.34-1.42,4.58-3.74,8.67-6.95,12.25-3.21,3.59-7.47,6.42-12.78,8.52-5.3,2.09-11.84,3.14-19.61,3.14h-8.29v36.23h-29.51v-109.22h37.8Zm-.67,23.83h-7.62v25.1h5.83c2.54,0,4.9-.43,7.1-1.31,2.19-.87,3.95-2.29,5.27-4.26,1.32-1.97,1.98-4.59,1.98-7.88s-1.02-6.24-3.06-8.4c-2.04-2.17-5.21-3.25-9.49-3.25Z"/>
        <path class="cls-1" d="M400.98,338.38h-29.21v-116.24h29.21v116.24Z"/>
        <path class="cls-1" d="M464.38,252.25c10.71,0,19.07,2.65,25.1,7.96,6.03,5.3,9.04,12.86,9.04,22.67v55.51h-20.25l-5.6-11.21h-.6c-2.39,2.99-4.84,5.42-7.36,7.28-2.52,1.87-5.39,3.24-8.63,4.11-3.24,.87-7.2,1.31-11.88,1.31s-9.26-1-13.15-2.99-6.95-5.01-9.19-9.04c-2.24-4.04-3.36-9.14-3.36-15.32,0-9.06,3.14-15.79,9.41-20.17,6.28-4.38,15.36-6.85,27.27-7.4l14.12-.45v-1.2c0-3.79-.93-6.47-2.8-8.07-1.87-1.59-4.37-2.39-7.51-2.39-3.34,0-7.06,.59-11.17,1.75-4.11,1.17-8.23,2.68-12.36,4.52l-8.44-19.28c4.88-2.49,10.41-4.38,16.58-5.68,6.17-1.29,13.1-1.94,20.77-1.94Zm5.08,48.33l-6.72,.3c-5.38,.2-9.15,1.13-11.32,2.8-2.17,1.67-3.25,4.05-3.25,7.13,0,2.89,.77,5.02,2.32,6.39,1.54,1.37,3.59,2.05,6.13,2.05,3.54,0,6.56-1.12,9.08-3.36,2.51-2.24,3.77-5.16,3.77-8.74v-6.57Z"/>
        <path class="cls-1" d="M573.19,252.25c8.71,0,15.84,2.46,21.37,7.4s8.29,12.83,8.29,23.68v55.06h-29.21v-46.17c0-5.63-.81-9.87-2.43-12.74-1.62-2.86-4.22-4.3-7.81-4.3-5.53,0-9.24,2.25-11.13,6.76-1.89,4.51-2.84,10.97-2.84,19.39v37.05h-29.21v-84.64h22.04l3.96,11.21h1.12c1.79-2.69,3.93-4.98,6.42-6.87,2.49-1.89,5.35-3.34,8.59-4.33,3.24-1,6.85-1.49,10.83-1.49Z"/>
        <path class="cls-1" d="M666.02,316.79c2.64,0,5.05-.27,7.25-.82,2.19-.55,4.48-1.24,6.87-2.09v21.29c-3.19,1.4-6.56,2.53-10.12,3.4-3.56,.87-8.11,1.31-13.63,1.31s-10.31-.86-14.49-2.58c-4.18-1.72-7.43-4.71-9.75-8.96-2.32-4.26-3.47-10.2-3.47-17.82v-34.89h-10.23v-11.88l13-9.19,7.54-17.78h19.12v16.96h20.77v21.89h-20.77v32.95c0,2.74,.7,4.79,2.09,6.16,1.39,1.37,3.34,2.05,5.83,2.05Z"/>
        <path class="cls-1" d="M759.67,312.38c0,5.38-1.2,10.14-3.59,14.27s-6.21,7.37-11.47,9.71c-5.25,2.34-12.17,3.51-20.73,3.51-6.03,0-11.42-.32-16.17-.97-4.76-.65-9.58-1.89-14.46-3.74v-23.38c5.33,2.44,10.76,4.2,16.29,5.27,5.53,1.07,9.89,1.61,13.07,1.61s5.69-.36,7.21-1.08c1.52-.72,2.28-1.8,2.28-3.25,0-1.24-.51-2.3-1.53-3.17-1.02-.87-2.84-1.88-5.45-3.03-2.61-1.15-6.29-2.69-11.02-4.63-4.68-1.94-8.58-4.06-11.69-6.35-3.11-2.29-5.44-5.03-6.98-8.22-1.54-3.19-2.32-7.1-2.32-11.73,0-8.27,3.19-14.49,9.56-18.68,6.38-4.18,14.82-6.28,25.33-6.28,5.58,0,10.83,.61,15.76,1.83,4.93,1.22,10.04,3,15.32,5.34l-7.99,18.83c-4.18-1.89-8.42-3.41-12.7-4.56-4.28-1.15-7.69-1.72-10.23-1.72-2.29,0-4.06,.3-5.3,.9-1.25,.6-1.87,1.47-1.87,2.61,0,1.05,.44,1.97,1.31,2.76s2.53,1.72,4.97,2.76c2.44,1.05,6,2.52,10.68,4.41,4.93,1.99,9,4.12,12.21,6.39,3.21,2.27,5.6,5.02,7.17,8.26,1.57,3.24,2.35,7.35,2.35,12.33Z"/>
      </g>
    </g>
  </g>
</svg>